%
M48
M72
T01C0.0140
T02C0.0400
T03C0.0472
%
T01
X2957Y2450
X5257Y1450
X5457Y2150
X8257Y1450
X8757Y2030
X10457Y2750
X8757Y3230
X7657Y4150
X8668Y4433
X9057Y4250
X10457Y3850
X11657Y4150
X12157Y4550
X12857Y4550
X12257Y5050
X11157Y5450
X9357Y5650
X8657Y5450
X8457Y5850
X7457Y5750
X7457Y6250
X6557Y7050
X5257Y7050
X5757Y6250
X3857Y7050
X3457Y6650
X1157Y8050
X4757Y4850
X5757Y4850
X6557Y4850
X8657Y7650
X8557Y8250
X7957Y8250
X8057Y9050
X9357Y8250
X9857Y7950
X10857Y8150
X11257Y7650
X11657Y8150
X12457Y8150
X13557Y7950
X14457Y7850
X14357Y7150
X13857Y7050
X13357Y7050
X14757Y7050
X15257Y7050
X15657Y6650
X15757Y6150
X15457Y5650
X14757Y5650
X14157Y5650
X15557Y5050
X15857Y4550
X14857Y4150
X13557Y3750
X13157Y3350
X12557Y2950
X13257Y2850
X13757Y2850
X12457Y1550
X13457Y1250
X14157Y1250
X16657Y2050
X15857Y3250
X11357Y1750
X16657Y5950
X15657Y7850
X16457Y8250
T02
X17757Y8650
X17757Y7650
X17757Y6650
X17757Y5650
X17757Y4650
X17757Y3650
X17757Y2650
X17757Y1650
X16757Y650
X15757Y650
X14757Y650
X13757Y650
X12757Y650
X11757Y650
X10757Y650
X9757Y650
X8757Y650
X7757Y650
X6757Y650
X5757Y650
X2557Y3750
X2557Y4750
X2557Y5750
X2557Y6750
X5757Y9650
X6757Y9650
X7757Y9650
X8757Y9650
X9757Y9650
X10757Y9650
X11757Y9650
X12757Y9650
X13757Y9650
X14757Y9650
X15757Y9650
X16757Y9650
T03
X1557Y7250
X1557Y5872
X1557Y4494
X1557Y3116
M30
