G75*
%MOIN*%
%OFA0B0*%
%FSLAX24Y24*%
%IPPOS*%
%LPD*%
%AMOC8*
5,1,8,0,0,1.08239X$1,22.5*
%
%ADD10C,0.0060*%
%ADD11C,0.0080*%
%ADD12R,0.6400X0.1000*%
%ADD13C,0.0000*%
%ADD14R,0.0050X0.0010*%
%ADD15R,0.0070X0.0010*%
%ADD16R,0.0090X0.0010*%
%ADD17R,0.0110X0.0010*%
%ADD18R,0.0130X0.0010*%
%ADD19R,0.0150X0.0010*%
%ADD20R,0.0170X0.0010*%
%ADD21R,0.0190X0.0010*%
%ADD22R,0.0210X0.0010*%
%ADD23R,0.0230X0.0010*%
%ADD24R,0.0240X0.0010*%
%ADD25R,0.0260X0.0010*%
%ADD26R,0.0270X0.0010*%
%ADD27R,0.0280X0.0010*%
%ADD28R,0.0140X0.0010*%
%ADD29R,0.0250X0.0010*%
%ADD30R,0.0160X0.0010*%
%ADD31R,0.0180X0.0010*%
%ADD32R,0.0200X0.0010*%
%ADD33R,0.0220X0.0010*%
%ADD34R,0.0020X0.0010*%
%ADD35R,0.0290X0.0010*%
%ADD36R,0.0300X0.0010*%
%ADD37R,0.0310X0.0010*%
%ADD38R,0.0320X0.0010*%
%ADD39R,0.0330X0.0010*%
%ADD40R,0.0040X0.0010*%
%ADD41R,0.0060X0.0010*%
%ADD42R,0.0080X0.0010*%
%ADD43R,0.0100X0.0010*%
%ADD44R,0.0120X0.0010*%
%ADD45R,0.0030X0.0010*%
%ADD46R,0.0350X0.0010*%
%ADD47R,0.0380X0.0010*%
%ADD48R,0.0420X0.0010*%
%ADD49R,0.0450X0.0010*%
%ADD50R,0.0340X0.0010*%
%ADD51R,0.0480X0.0010*%
%ADD52R,0.0390X0.0010*%
%ADD53R,0.0410X0.0010*%
%ADD54R,0.0430X0.0010*%
%ADD55R,0.0460X0.0010*%
%ADD56R,0.0470X0.0010*%
%ADD57R,0.0400X0.0010*%
%ADD58R,0.0490X0.0010*%
%ADD59R,0.0510X0.0010*%
%ADD60R,0.0370X0.0010*%
%ADD61R,0.0590X0.0010*%
%ADD62R,0.0500X0.0010*%
%ADD63R,0.0580X0.0010*%
%ADD64R,0.0570X0.0010*%
%ADD65R,0.0530X0.0010*%
%ADD66R,0.0520X0.0010*%
%ADD67R,0.0360X0.0010*%
%ADD68R,0.0010X0.0010*%
D10*
X003359Y002537D02*
X003416Y002480D01*
X003529Y002480D01*
X003586Y002537D01*
X003586Y002650D02*
X003472Y002707D01*
X003416Y002707D01*
X003359Y002650D01*
X003359Y002537D01*
X003586Y002650D02*
X003586Y002820D01*
X003359Y002820D01*
X003357Y002980D02*
X003527Y002980D01*
X003527Y003320D01*
X003357Y003320D01*
X003300Y003264D01*
X003300Y003207D01*
X003357Y003150D01*
X003527Y003150D01*
X003357Y003150D02*
X003300Y003093D01*
X003300Y003037D01*
X003357Y002980D01*
X003727Y002764D02*
X003727Y002707D01*
X003784Y002650D01*
X003897Y002650D01*
X003954Y002707D01*
X003954Y002764D01*
X003897Y002820D01*
X003784Y002820D01*
X003727Y002764D01*
X003784Y002650D02*
X003727Y002593D01*
X003727Y002537D01*
X003784Y002480D01*
X003897Y002480D01*
X003954Y002537D01*
X003954Y002593D01*
X003897Y002650D01*
X004096Y002650D02*
X004322Y002650D01*
X004152Y002820D01*
X004152Y002480D01*
X004464Y002650D02*
X004691Y002650D01*
X004832Y002593D02*
X004832Y002537D01*
X004889Y002480D01*
X005002Y002480D01*
X005059Y002537D01*
X005002Y002650D02*
X004889Y002650D01*
X004832Y002593D01*
X004832Y002764D02*
X004889Y002820D01*
X005002Y002820D01*
X005059Y002764D01*
X005059Y002707D01*
X005002Y002650D01*
X005200Y002650D02*
X005200Y002764D01*
X005257Y002820D01*
X005427Y002820D01*
X005427Y002480D01*
X005427Y002593D02*
X005257Y002593D01*
X005200Y002650D01*
X005314Y002593D02*
X005200Y002480D01*
X006139Y002993D02*
X006139Y003107D01*
X006252Y003220D01*
X006394Y003050D02*
X006394Y002880D01*
X006252Y002880D02*
X006139Y002993D01*
X006394Y003050D02*
X006450Y003107D01*
X006620Y003107D01*
X006620Y002880D01*
X006762Y002937D02*
X006762Y003050D01*
X006819Y003107D01*
X006932Y003107D01*
X006989Y003050D01*
X006989Y002937D01*
X006932Y002880D01*
X006819Y002880D01*
X006762Y002937D01*
X007121Y002880D02*
X007234Y002880D01*
X007178Y002880D02*
X007178Y003107D01*
X007234Y003107D01*
X007178Y003220D02*
X007178Y003277D01*
X007376Y003107D02*
X007546Y003107D01*
X007603Y003050D01*
X007546Y002993D01*
X007432Y002993D01*
X007376Y002937D01*
X007432Y002880D01*
X007603Y002880D01*
X007910Y002880D02*
X007910Y003107D01*
X007910Y002993D02*
X007796Y003107D01*
X007739Y003107D01*
X008051Y003050D02*
X008051Y002993D01*
X008278Y002993D01*
X008278Y002937D02*
X008278Y003050D01*
X008221Y003107D01*
X008108Y003107D01*
X008051Y003050D01*
X008221Y002880D02*
X008278Y002937D01*
X008221Y002880D02*
X008108Y002880D01*
X008419Y002993D02*
X008419Y003220D01*
X008646Y003220D02*
X008646Y002993D01*
X008533Y002880D01*
X008419Y002993D01*
X009156Y003050D02*
X009213Y002993D01*
X009383Y002993D01*
X009269Y002993D02*
X009156Y002880D01*
X009383Y002880D02*
X009383Y003220D01*
X009213Y003220D01*
X009156Y003164D01*
X009156Y003050D01*
X009524Y002993D02*
X009524Y003220D01*
X009751Y003220D02*
X009751Y002993D01*
X009638Y002880D01*
X009524Y002993D01*
X009893Y003050D02*
X010119Y003050D01*
X010119Y003107D02*
X010006Y003220D01*
X009893Y003107D01*
X009893Y002880D01*
X010119Y002880D02*
X010119Y003107D01*
X010252Y003220D02*
X010365Y003107D01*
X010365Y002993D01*
X010252Y002880D01*
X010875Y002937D02*
X010931Y002880D01*
X011045Y002880D01*
X011102Y002937D01*
X010875Y003164D01*
X010875Y002937D01*
X011102Y002937D02*
X011102Y003164D01*
X011045Y003220D01*
X010931Y003220D01*
X010875Y003164D01*
X011229Y002937D02*
X011229Y002880D01*
X011286Y002880D01*
X011286Y002937D01*
X011229Y002937D01*
X011427Y002937D02*
X011484Y002880D01*
X011597Y002880D01*
X011654Y002937D01*
X011654Y003050D01*
X011484Y003050D01*
X011427Y002993D01*
X011427Y002937D01*
X011654Y003050D02*
X011541Y003164D01*
X011427Y003220D01*
X012164Y003107D02*
X012277Y002880D01*
X012391Y003107D01*
X012532Y003050D02*
X012532Y002993D01*
X012759Y002993D01*
X012759Y002937D02*
X012759Y003050D01*
X012702Y003107D01*
X012589Y003107D01*
X012532Y003050D01*
X012702Y002880D02*
X012759Y002937D01*
X012702Y002880D02*
X012589Y002880D01*
X012900Y002880D02*
X013014Y002993D01*
X012957Y002993D02*
X013127Y002993D01*
X012957Y002993D02*
X012900Y003050D01*
X012900Y003164D01*
X012957Y003220D01*
X013127Y003220D01*
X013127Y002880D01*
X012927Y002120D02*
X012587Y002120D01*
X012587Y001950D01*
X012644Y001893D01*
X012871Y001893D01*
X012927Y001950D01*
X012927Y002120D01*
X012927Y001752D02*
X012927Y001525D01*
X012927Y001638D02*
X012587Y001638D01*
X012700Y001752D01*
X012644Y001383D02*
X012587Y001327D01*
X012587Y001213D01*
X012644Y001157D01*
X012700Y001157D01*
X012757Y001213D01*
X012814Y001157D01*
X012871Y001157D01*
X012927Y001213D01*
X012927Y001327D01*
X012871Y001383D01*
X012757Y001270D02*
X012757Y001213D01*
X013587Y001213D02*
X013587Y001327D01*
X013644Y001383D01*
X013700Y001157D02*
X013927Y001383D01*
X013927Y001157D01*
X013700Y001157D02*
X013644Y001157D01*
X013587Y001213D01*
X013927Y001525D02*
X013927Y001752D01*
X013871Y001893D02*
X013644Y001893D01*
X013587Y001950D01*
X013587Y002120D01*
X013927Y002120D01*
X013927Y001950D01*
X013871Y001893D01*
X013700Y001752D02*
X013587Y001638D01*
X013927Y001638D01*
X014587Y001638D02*
X014927Y001638D01*
X014927Y001525D02*
X014927Y001752D01*
X014871Y001893D02*
X014644Y001893D01*
X014587Y001950D01*
X014587Y002120D01*
X014927Y002120D01*
X014927Y001950D01*
X014871Y001893D01*
X014700Y001752D02*
X014587Y001638D01*
X014700Y001383D02*
X014587Y001270D01*
X014927Y001270D01*
X014927Y001383D02*
X014927Y001157D01*
X015587Y001213D02*
X015644Y001157D01*
X015700Y001157D01*
X015757Y001213D01*
X015814Y001157D01*
X015871Y001157D01*
X015927Y001213D01*
X015927Y001327D01*
X015871Y001383D01*
X015814Y001525D02*
X015587Y001525D01*
X015644Y001383D02*
X015587Y001327D01*
X015587Y001213D01*
X015757Y001213D02*
X015757Y001270D01*
X015814Y001525D02*
X015927Y001638D01*
X015814Y001752D01*
X015587Y001752D01*
X015644Y001893D02*
X015700Y001893D01*
X015757Y001950D01*
X015814Y001893D01*
X015871Y001893D01*
X015927Y001950D01*
X015927Y002063D01*
X015871Y002120D01*
X015757Y002007D02*
X015757Y001950D01*
X015644Y001893D02*
X015587Y001950D01*
X015587Y002063D01*
X015644Y002120D01*
X016152Y002040D02*
X017257Y002040D01*
X017227Y001920D02*
X017057Y001920D01*
X017000Y001864D01*
X017000Y001637D01*
X017057Y001580D01*
X017227Y001580D01*
X017227Y001920D01*
X016859Y001920D02*
X016689Y001920D01*
X016632Y001864D01*
X016632Y001807D01*
X016689Y001750D01*
X016859Y001750D01*
X016859Y001580D02*
X016689Y001580D01*
X016632Y001637D01*
X016632Y001693D01*
X016689Y001750D01*
X016491Y001637D02*
X016434Y001580D01*
X016321Y001580D01*
X016264Y001637D01*
X016264Y001750D01*
X016377Y001750D01*
X016491Y001637D02*
X016491Y001864D01*
X016434Y001920D01*
X016321Y001920D01*
X016264Y001864D01*
X016859Y001920D02*
X016859Y001580D01*
X016859Y001420D02*
X016632Y001080D01*
X016632Y001420D01*
X016491Y001420D02*
X016321Y001420D01*
X016264Y001364D01*
X016264Y001137D01*
X016321Y001080D01*
X016491Y001080D01*
X016491Y001420D01*
X016859Y001420D02*
X016859Y001080D01*
X017000Y001137D02*
X017000Y001250D01*
X017114Y001250D01*
X017227Y001137D02*
X017171Y001080D01*
X017057Y001080D01*
X017000Y001137D01*
X017227Y001137D02*
X017227Y001364D01*
X017171Y001420D01*
X017057Y001420D01*
X017000Y001364D01*
X017000Y002380D02*
X017114Y002493D01*
X017057Y002493D02*
X017227Y002493D01*
X017227Y002380D02*
X017227Y002720D01*
X017057Y002720D01*
X017000Y002664D01*
X017000Y002550D01*
X017057Y002493D01*
X016859Y002437D02*
X016802Y002380D01*
X016689Y002380D01*
X016632Y002437D01*
X016632Y002493D01*
X016689Y002550D01*
X016802Y002550D01*
X016859Y002607D01*
X016859Y002664D01*
X016802Y002720D01*
X016689Y002720D01*
X016632Y002664D01*
X016491Y002720D02*
X016264Y002720D01*
X016377Y002720D02*
X016377Y002380D01*
X016152Y002840D02*
X017257Y002840D01*
X017227Y003380D02*
X017057Y003380D01*
X017000Y003437D01*
X017000Y003664D01*
X017057Y003720D01*
X017227Y003720D01*
X017227Y003380D01*
X016746Y003380D02*
X016746Y003720D01*
X016859Y003720D02*
X016632Y003720D01*
X016491Y003720D02*
X016321Y003720D01*
X016264Y003664D01*
X016264Y003550D01*
X016321Y003493D01*
X016491Y003493D01*
X016491Y003380D02*
X016491Y003720D01*
X016152Y003840D02*
X017257Y003840D01*
X017227Y004380D02*
X017057Y004380D01*
X017000Y004437D01*
X017000Y004664D01*
X017057Y004720D01*
X017227Y004720D01*
X017227Y004380D01*
X016859Y004380D02*
X016632Y004380D01*
X016746Y004380D02*
X016746Y004720D01*
X016859Y004607D01*
X016491Y004380D02*
X016264Y004720D01*
X016122Y004720D02*
X015896Y004720D01*
X016009Y004720D02*
X016009Y004380D01*
X015754Y004380D02*
X015527Y004720D01*
X015386Y004720D02*
X015216Y004720D01*
X015159Y004664D01*
X015159Y004437D01*
X015216Y004380D01*
X015386Y004380D01*
X015386Y004720D01*
X015754Y004720D02*
X015527Y004380D01*
X016377Y003493D02*
X016264Y003380D01*
X012927Y004920D02*
X012700Y004920D01*
X012814Y004920D02*
X012814Y004580D01*
X012559Y004637D02*
X012502Y004580D01*
X012389Y004580D01*
X012332Y004637D01*
X012332Y004693D01*
X012389Y004750D01*
X012502Y004750D01*
X012559Y004807D01*
X012559Y004864D01*
X012502Y004920D01*
X012389Y004920D01*
X012332Y004864D01*
X012191Y004864D02*
X012191Y004637D01*
X012134Y004580D01*
X012021Y004580D01*
X011964Y004637D01*
X011964Y004864D01*
X012021Y004920D01*
X012134Y004920D01*
X012191Y004864D01*
X011822Y004864D02*
X011822Y004637D01*
X011766Y004580D01*
X011652Y004580D01*
X011596Y004637D01*
X011454Y004523D02*
X011227Y004523D01*
X011086Y004580D02*
X011086Y004920D01*
X010916Y004920D01*
X010859Y004864D01*
X010859Y004750D01*
X010916Y004693D01*
X011086Y004693D01*
X010972Y004693D02*
X010859Y004580D01*
X010717Y004637D02*
X010661Y004580D01*
X010547Y004580D01*
X010491Y004637D01*
X010491Y004693D01*
X010547Y004750D01*
X010661Y004750D01*
X010717Y004807D01*
X010717Y004864D01*
X010661Y004920D01*
X010547Y004920D01*
X010491Y004864D01*
X010349Y004750D02*
X010122Y004750D01*
X009981Y004693D02*
X009924Y004750D01*
X009811Y004750D01*
X009754Y004693D01*
X009754Y004637D01*
X009811Y004580D01*
X009924Y004580D01*
X009981Y004637D01*
X009981Y004693D01*
X009924Y004750D02*
X009981Y004807D01*
X009981Y004864D01*
X009924Y004920D01*
X009811Y004920D01*
X009754Y004864D01*
X009754Y004807D01*
X009811Y004750D01*
X009612Y004750D02*
X009612Y004920D01*
X009386Y004920D01*
X009442Y004807D02*
X009386Y004750D01*
X009386Y004637D01*
X009442Y004580D01*
X009556Y004580D01*
X009612Y004637D01*
X009612Y004750D02*
X009499Y004807D01*
X009442Y004807D01*
X009244Y004523D02*
X009017Y004523D01*
X008876Y004580D02*
X008649Y004580D01*
X008508Y004580D02*
X008508Y004920D01*
X008394Y004807D01*
X008281Y004920D01*
X008281Y004580D01*
X008649Y004920D02*
X008876Y004920D01*
X008876Y004580D01*
X008876Y004750D02*
X008762Y004750D01*
X010179Y004580D02*
X010179Y004920D01*
X010349Y004750D01*
X011596Y004864D02*
X011652Y004920D01*
X011766Y004920D01*
X011822Y004864D01*
X015159Y005437D02*
X015159Y005664D01*
X015216Y005720D01*
X015386Y005720D01*
X015386Y005380D01*
X015216Y005380D01*
X015159Y005437D01*
X015527Y005380D02*
X015754Y005720D01*
X015896Y005664D02*
X015896Y005550D01*
X015952Y005493D01*
X016122Y005493D01*
X016122Y005380D02*
X016122Y005720D01*
X015952Y005720D01*
X015896Y005664D01*
X016009Y005493D02*
X015896Y005380D01*
X015754Y005380D02*
X015527Y005720D01*
X016264Y005720D02*
X016491Y005380D01*
X016632Y005437D02*
X016632Y005664D01*
X016689Y005720D01*
X016802Y005720D01*
X016859Y005664D01*
X016859Y005437D01*
X016802Y005380D01*
X016689Y005380D01*
X016632Y005437D01*
X017000Y005437D02*
X017000Y005664D01*
X017057Y005720D01*
X017227Y005720D01*
X017227Y005380D01*
X017057Y005380D01*
X017000Y005437D01*
X017114Y006380D02*
X017000Y006493D01*
X017000Y006720D01*
X016859Y006664D02*
X016859Y006437D01*
X016802Y006380D01*
X016689Y006380D01*
X016632Y006437D01*
X016491Y006437D02*
X016434Y006380D01*
X016321Y006380D01*
X016264Y006437D01*
X016491Y006437D02*
X016491Y006664D01*
X016434Y006720D01*
X016321Y006720D01*
X016264Y006664D01*
X016632Y006664D02*
X016689Y006720D01*
X016802Y006720D01*
X016859Y006664D01*
X017227Y006720D02*
X017227Y006493D01*
X017114Y006380D01*
X017171Y007580D02*
X017057Y007580D01*
X017000Y007637D01*
X017000Y007750D01*
X017114Y007750D01*
X017227Y007637D02*
X017171Y007580D01*
X017227Y007637D02*
X017227Y007864D01*
X017171Y007920D01*
X017057Y007920D01*
X017000Y007864D01*
X016859Y007920D02*
X016632Y007580D01*
X016632Y007920D01*
X016491Y007920D02*
X016321Y007920D01*
X016264Y007864D01*
X016264Y007637D01*
X016321Y007580D01*
X016491Y007580D01*
X016491Y007920D01*
X016859Y007920D02*
X016859Y007580D01*
X016859Y008180D02*
X016859Y008520D01*
X016632Y008180D01*
X016632Y008520D01*
X016491Y008520D02*
X016321Y008520D01*
X016264Y008464D01*
X016264Y008237D01*
X016321Y008180D01*
X016491Y008180D01*
X016491Y008520D01*
X016491Y008780D02*
X016321Y008780D01*
X016264Y008837D01*
X016264Y009064D01*
X016321Y009120D01*
X016491Y009120D01*
X016491Y008780D01*
X016632Y008780D02*
X016632Y009120D01*
X016859Y009120D02*
X016632Y008780D01*
X016859Y008780D02*
X016859Y009120D01*
X017000Y009064D02*
X017057Y009120D01*
X017171Y009120D01*
X017227Y009064D01*
X017227Y008837D01*
X017171Y008780D01*
X017057Y008780D01*
X017000Y008837D01*
X017000Y008950D01*
X017114Y008950D01*
X017057Y008520D02*
X017171Y008520D01*
X017227Y008464D01*
X017227Y008237D01*
X017171Y008180D01*
X017057Y008180D01*
X017000Y008237D01*
X017000Y008350D01*
X017114Y008350D01*
X017000Y008464D02*
X017057Y008520D01*
X015927Y008638D02*
X015814Y008525D01*
X015587Y008525D01*
X015587Y008752D02*
X015814Y008752D01*
X015927Y008638D01*
X015871Y008893D02*
X015757Y008893D01*
X015700Y008950D01*
X015700Y009007D01*
X015757Y009120D01*
X015587Y009120D01*
X015587Y008893D01*
X015871Y008893D02*
X015927Y008950D01*
X015927Y009063D01*
X015871Y009120D01*
X014927Y009120D02*
X014700Y009120D01*
X014587Y009007D01*
X014700Y008893D01*
X014927Y008893D01*
X014757Y008893D02*
X014757Y009120D01*
X014757Y008752D02*
X014757Y008525D01*
X014587Y008582D02*
X014757Y008752D01*
X014927Y008582D02*
X014587Y008582D01*
X013827Y008582D02*
X013827Y008695D01*
X013771Y008752D01*
X013657Y008752D02*
X013600Y008638D01*
X013600Y008582D01*
X013657Y008525D01*
X013771Y008525D01*
X013827Y008582D01*
X013657Y008752D02*
X013487Y008752D01*
X013487Y008525D01*
X012927Y008582D02*
X012927Y008695D01*
X012871Y008752D01*
X012644Y008525D01*
X012871Y008525D01*
X012927Y008582D01*
X012871Y008752D02*
X012644Y008752D01*
X012587Y008695D01*
X012587Y008582D01*
X012644Y008525D01*
X012644Y008893D02*
X012587Y008950D01*
X012587Y009120D01*
X012927Y009120D01*
X012927Y008950D01*
X012871Y008893D01*
X012644Y008893D01*
X011927Y008950D02*
X011871Y008893D01*
X011644Y008893D01*
X011587Y008950D01*
X011587Y009120D01*
X011927Y009120D01*
X011927Y008950D01*
X011927Y008752D02*
X011927Y008525D01*
X011927Y008638D02*
X011587Y008638D01*
X011700Y008752D01*
X010927Y008752D02*
X010927Y008525D01*
X010700Y008525D02*
X010644Y008525D01*
X010587Y008582D01*
X010587Y008695D01*
X010644Y008752D01*
X010644Y008893D02*
X010587Y008950D01*
X010587Y009120D01*
X010927Y009120D01*
X010927Y008950D01*
X010871Y008893D01*
X010644Y008893D01*
X010927Y008752D02*
X010700Y008525D01*
X009927Y008582D02*
X009871Y008525D01*
X009814Y008525D01*
X009757Y008582D01*
X009757Y008638D01*
X009757Y008582D02*
X009700Y008525D01*
X009644Y008525D01*
X009587Y008582D01*
X009587Y008695D01*
X009644Y008752D01*
X009871Y008752D02*
X009927Y008695D01*
X009927Y008582D01*
X009871Y008893D02*
X009644Y008893D01*
X009587Y008950D01*
X009587Y009120D01*
X009927Y009120D01*
X009927Y008950D01*
X009871Y008893D01*
X008927Y008950D02*
X008871Y008893D01*
X008644Y008893D01*
X008587Y008950D01*
X008587Y009120D01*
X008927Y009120D01*
X008927Y008950D01*
X008757Y008752D02*
X008757Y008525D01*
X008587Y008582D02*
X008757Y008752D01*
X008927Y008582D02*
X008587Y008582D01*
X007827Y008638D02*
X007487Y008638D01*
X007600Y008752D01*
X007827Y008752D02*
X007827Y008525D01*
X007827Y008893D02*
X007600Y008893D01*
X007487Y009007D01*
X007600Y009120D01*
X007827Y009120D01*
X007657Y009120D02*
X007657Y008893D01*
X006927Y008893D02*
X006700Y008893D01*
X006587Y009007D01*
X006700Y009120D01*
X006927Y009120D01*
X006757Y009120D02*
X006757Y008893D01*
X006644Y008752D02*
X006587Y008695D01*
X006587Y008582D01*
X006644Y008525D01*
X006700Y008525D01*
X006927Y008752D01*
X006927Y008525D01*
X005927Y008582D02*
X005927Y008695D01*
X005871Y008752D01*
X005757Y008638D02*
X005757Y008582D01*
X005814Y008525D01*
X005871Y008525D01*
X005927Y008582D01*
X005757Y008582D02*
X005700Y008525D01*
X005644Y008525D01*
X005587Y008582D01*
X005587Y008695D01*
X005644Y008752D01*
X005700Y008893D02*
X005927Y008893D01*
X005757Y008893D02*
X005757Y009120D01*
X005700Y009120D02*
X005587Y009007D01*
X005700Y008893D01*
X005700Y009120D02*
X005927Y009120D01*
X005527Y008020D02*
X005414Y007907D01*
X005300Y008020D01*
X005300Y007680D01*
X005159Y007680D02*
X005159Y007907D01*
X005046Y008020D01*
X004932Y007907D01*
X004932Y007680D01*
X004791Y007680D02*
X004564Y008020D01*
X004791Y008020D02*
X004564Y007680D01*
X004466Y007420D02*
X004352Y007420D01*
X004296Y007364D01*
X004466Y007420D02*
X004522Y007364D01*
X004522Y007137D01*
X004466Y007080D01*
X004352Y007080D01*
X004296Y007137D01*
X004154Y007023D02*
X003927Y007023D01*
X003786Y007080D02*
X003672Y007080D01*
X003729Y007080D02*
X003729Y007420D01*
X003786Y007420D02*
X003672Y007420D01*
X003540Y007420D02*
X003313Y007080D01*
X003313Y007420D01*
X003540Y007420D02*
X003540Y007080D01*
X003586Y006520D02*
X003359Y006520D01*
X003416Y006407D02*
X003359Y006350D01*
X003359Y006237D01*
X003416Y006180D01*
X003529Y006180D01*
X003586Y006237D01*
X003586Y006350D02*
X003472Y006407D01*
X003416Y006407D01*
X003586Y006350D02*
X003586Y006520D01*
X003727Y006464D02*
X003727Y006407D01*
X003784Y006350D01*
X003897Y006350D01*
X003954Y006407D01*
X003954Y006464D01*
X003897Y006520D01*
X003784Y006520D01*
X003727Y006464D01*
X003784Y006350D02*
X003727Y006293D01*
X003727Y006237D01*
X003784Y006180D01*
X003897Y006180D01*
X003954Y006237D01*
X003954Y006293D01*
X003897Y006350D01*
X004096Y006350D02*
X004322Y006350D01*
X004152Y006520D01*
X004152Y006180D01*
X004464Y006350D02*
X004691Y006350D01*
X004832Y006293D02*
X004832Y006237D01*
X004889Y006180D01*
X005002Y006180D01*
X005059Y006237D01*
X005002Y006350D02*
X004889Y006350D01*
X004832Y006293D01*
X004832Y006464D02*
X004889Y006520D01*
X005002Y006520D01*
X005059Y006464D01*
X005059Y006407D01*
X005002Y006350D01*
X005200Y006350D02*
X005200Y006464D01*
X005257Y006520D01*
X005427Y006520D01*
X005427Y006180D01*
X005427Y006293D02*
X005257Y006293D01*
X005200Y006350D01*
X005314Y006293D02*
X005200Y006180D01*
X005146Y007080D02*
X005032Y007193D01*
X005032Y007420D01*
X004891Y007420D02*
X004721Y007420D01*
X004664Y007364D01*
X004664Y007137D01*
X004721Y007080D01*
X004891Y007080D01*
X004891Y007420D01*
X005259Y007420D02*
X005259Y007193D01*
X005146Y007080D01*
X005400Y007137D02*
X005400Y007250D01*
X005457Y007307D01*
X005514Y007307D01*
X005627Y007250D01*
X005627Y007420D01*
X005400Y007420D01*
X005527Y007680D02*
X005527Y008020D01*
X005159Y007850D02*
X004932Y007850D01*
X004054Y007850D02*
X004054Y007737D01*
X003997Y007680D01*
X003884Y007680D01*
X003827Y007737D01*
X003827Y007793D01*
X003884Y007850D01*
X004054Y007850D01*
X003941Y007964D01*
X003827Y008020D01*
X003686Y008020D02*
X003686Y007793D01*
X003572Y007680D01*
X003459Y007793D01*
X003459Y008020D01*
X003317Y007850D02*
X003261Y007907D01*
X003091Y007907D01*
X003091Y008020D02*
X003091Y007680D01*
X003261Y007680D01*
X003317Y007737D01*
X003317Y007850D01*
X002949Y007850D02*
X002949Y007737D01*
X002892Y007680D01*
X002722Y007680D01*
X002722Y007907D02*
X002892Y007907D01*
X002949Y007850D01*
X005400Y007137D02*
X005457Y007080D01*
X005571Y007080D01*
X005627Y007137D01*
X003527Y005907D02*
X003414Y006020D01*
X003300Y005907D01*
X003300Y005680D01*
X003300Y005850D02*
X003527Y005850D01*
X003527Y005907D02*
X003527Y005680D01*
X003491Y004620D02*
X003321Y004620D01*
X003264Y004564D01*
X003264Y004337D01*
X003321Y004280D01*
X003491Y004280D01*
X003491Y004620D01*
X003632Y004620D02*
X003632Y004280D01*
X003859Y004620D01*
X003859Y004280D01*
X004000Y004337D02*
X004000Y004450D01*
X004114Y004450D01*
X004227Y004337D02*
X004171Y004280D01*
X004057Y004280D01*
X004000Y004337D01*
X004227Y004337D02*
X004227Y004564D01*
X004171Y004620D01*
X004057Y004620D01*
X004000Y004564D01*
X005587Y001720D02*
X005587Y001550D01*
X005644Y001493D01*
X005871Y001493D01*
X005927Y001550D01*
X005927Y001720D01*
X005587Y001720D01*
X005644Y001352D02*
X005700Y001352D01*
X005757Y001295D01*
X005757Y001125D01*
X005644Y001125D02*
X005871Y001125D01*
X005927Y001182D01*
X005927Y001295D01*
X005871Y001352D01*
X005644Y001352D02*
X005587Y001295D01*
X005587Y001182D01*
X005644Y001125D01*
X006587Y001182D02*
X006644Y001125D01*
X006700Y001125D01*
X006757Y001182D01*
X006757Y001295D01*
X006700Y001352D01*
X006644Y001352D01*
X006587Y001295D01*
X006587Y001182D01*
X006757Y001182D02*
X006814Y001125D01*
X006871Y001125D01*
X006927Y001182D01*
X006927Y001295D01*
X006871Y001352D01*
X006814Y001352D01*
X006757Y001295D01*
X006644Y001493D02*
X006587Y001550D01*
X006587Y001720D01*
X006927Y001720D01*
X006927Y001550D01*
X006871Y001493D01*
X006644Y001493D01*
X007587Y001550D02*
X007644Y001493D01*
X007871Y001493D01*
X007927Y001550D01*
X007927Y001720D01*
X007587Y001720D01*
X007587Y001550D01*
X007587Y001352D02*
X007757Y001352D01*
X007700Y001238D01*
X007700Y001182D01*
X007757Y001125D01*
X007871Y001125D01*
X007927Y001182D01*
X007927Y001295D01*
X007871Y001352D01*
X007587Y001352D02*
X007587Y001125D01*
X008587Y001125D02*
X008644Y001238D01*
X008757Y001352D01*
X008757Y001182D01*
X008814Y001125D01*
X008871Y001125D01*
X008927Y001182D01*
X008927Y001295D01*
X008871Y001352D01*
X008757Y001352D01*
X008644Y001493D02*
X008587Y001550D01*
X008587Y001720D01*
X008927Y001720D01*
X008927Y001550D01*
X008871Y001493D01*
X008644Y001493D01*
X009587Y001607D02*
X009700Y001493D01*
X009927Y001493D01*
X009871Y001352D02*
X009644Y001352D01*
X009587Y001295D01*
X009587Y001182D01*
X009644Y001125D01*
X009871Y001352D01*
X009927Y001295D01*
X009927Y001182D01*
X009871Y001125D01*
X009644Y001125D01*
X009757Y001493D02*
X009757Y001720D01*
X009700Y001720D02*
X009927Y001720D01*
X009700Y001720D02*
X009587Y001607D01*
X010587Y001550D02*
X010644Y001493D01*
X010871Y001493D01*
X010927Y001550D01*
X010927Y001720D01*
X010587Y001720D01*
X010587Y001550D01*
X010587Y001352D02*
X010587Y001125D01*
X010644Y001125D01*
X010871Y001352D01*
X010927Y001352D01*
X011587Y001327D02*
X011587Y001213D01*
X011644Y001157D01*
X011871Y001383D01*
X011927Y001327D01*
X011927Y001213D01*
X011871Y001157D01*
X011644Y001157D01*
X011587Y001327D02*
X011644Y001383D01*
X011871Y001383D01*
X011927Y001525D02*
X011927Y001752D01*
X011871Y001893D02*
X011644Y001893D01*
X011587Y001950D01*
X011587Y002120D01*
X011927Y002120D01*
X011927Y001950D01*
X011871Y001893D01*
X011700Y001752D02*
X011587Y001638D01*
X011927Y001638D01*
X013600Y008893D02*
X013827Y008893D01*
X013657Y008893D02*
X013657Y009120D01*
X013600Y009120D02*
X013487Y009007D01*
X013600Y008893D01*
X013600Y009120D02*
X013827Y009120D01*
D11*
X013017Y007570D02*
X012777Y007570D01*
X012697Y007490D01*
X012697Y007330D01*
X012777Y007250D01*
X013017Y007250D01*
X013017Y007090D02*
X013017Y007570D01*
X012422Y007410D02*
X012261Y007410D01*
X012181Y007330D01*
X012181Y007090D01*
X012422Y007090D01*
X012502Y007170D01*
X012422Y007250D01*
X012181Y007250D01*
X011986Y007410D02*
X011826Y007410D01*
X011906Y007490D02*
X011906Y007170D01*
X011826Y007090D01*
X011562Y007170D02*
X011482Y007090D01*
X011562Y007170D02*
X011562Y007490D01*
X011642Y007410D02*
X011482Y007410D01*
X011299Y007330D02*
X011218Y007410D01*
X011058Y007410D01*
X010978Y007330D01*
X010978Y007250D01*
X011299Y007250D01*
X011299Y007170D02*
X011299Y007330D01*
X011299Y007170D02*
X011218Y007090D01*
X011058Y007090D01*
X010783Y007090D02*
X010783Y007410D01*
X010783Y007250D02*
X010623Y007410D01*
X010543Y007410D01*
X010353Y007410D02*
X010113Y007410D01*
X010033Y007330D01*
X010033Y007090D01*
X009838Y007090D02*
X009838Y007410D01*
X009677Y007570D01*
X009517Y007410D01*
X009517Y007090D01*
X009322Y007170D02*
X009242Y007090D01*
X009002Y007090D01*
X009002Y007010D02*
X009002Y007410D01*
X009242Y007410D01*
X009322Y007330D01*
X009322Y007170D01*
X009517Y007330D02*
X009838Y007330D01*
X010353Y007410D02*
X010353Y007090D01*
X009162Y006930D02*
X009082Y006930D01*
X009002Y007010D01*
X008806Y007170D02*
X008806Y007330D01*
X008726Y007410D01*
X008566Y007410D01*
X008486Y007330D01*
X008486Y007250D01*
X008806Y007250D01*
X008806Y007170D02*
X008726Y007090D01*
X008566Y007090D01*
X008291Y007090D02*
X008291Y007410D01*
X008050Y007410D01*
X007970Y007330D01*
X007970Y007090D01*
X007695Y007170D02*
X007615Y007090D01*
X007695Y007170D02*
X007695Y007490D01*
X007775Y007410D02*
X007615Y007410D01*
X007431Y007330D02*
X007351Y007410D01*
X007111Y007410D01*
X007191Y007250D02*
X007351Y007250D01*
X007431Y007330D01*
X007191Y007250D02*
X007111Y007170D01*
X007191Y007090D01*
X007431Y007090D01*
D12*
X010057Y003850D03*
D13*
X000757Y000350D02*
X000757Y009950D01*
X000957Y010150D01*
X018057Y010150D01*
X018257Y009950D01*
X018257Y000350D01*
X018057Y000150D01*
X000957Y000150D01*
X000757Y000350D01*
D14*
X013557Y004270D03*
X013807Y004520D03*
X014057Y004770D03*
X014397Y005630D03*
X013807Y005780D03*
X014147Y006640D03*
X014087Y006970D03*
X014637Y007130D03*
X014087Y007730D03*
D15*
X014087Y007720D03*
X014637Y007120D03*
X014087Y006980D03*
X014147Y006630D03*
X013807Y005770D03*
X014397Y005640D03*
X014057Y004780D03*
X013807Y004530D03*
X013557Y004280D03*
X010687Y006150D03*
X011447Y006560D03*
X012577Y006860D03*
D16*
X013037Y006660D03*
X013037Y006650D03*
X012337Y006560D03*
X011207Y006560D03*
X010697Y006130D03*
X010707Y006110D03*
X008147Y006150D03*
X008147Y006160D03*
X008147Y006170D03*
X008147Y006180D03*
X008147Y006190D03*
X008147Y006550D03*
X008147Y006560D03*
X008147Y006570D03*
X008147Y006580D03*
X013557Y004290D03*
X013807Y004540D03*
X014057Y004790D03*
X014437Y005000D03*
X014437Y005300D03*
X014397Y005650D03*
X013807Y005760D03*
X013757Y006100D03*
X014147Y006620D03*
X014087Y006990D03*
X014637Y007110D03*
X014477Y007500D03*
X014087Y007710D03*
D17*
X014087Y007700D03*
X014637Y007100D03*
X014087Y007000D03*
X014147Y006610D03*
X013047Y006610D03*
X013047Y006620D03*
X011847Y006540D03*
X010707Y006090D03*
X010127Y006090D03*
X010127Y006100D03*
X010127Y006110D03*
X010127Y006120D03*
X010127Y006130D03*
X010127Y006080D03*
X010127Y006070D03*
X010127Y006060D03*
X009697Y006620D03*
X009697Y006630D03*
X009697Y006640D03*
X009697Y006650D03*
X009697Y006660D03*
X009697Y006670D03*
X008157Y006670D03*
X008157Y006680D03*
X008157Y006660D03*
X008157Y006650D03*
X008157Y006090D03*
X008157Y006080D03*
X008157Y006070D03*
X008157Y006060D03*
X008157Y006050D03*
X012997Y005940D03*
X013807Y005750D03*
X014057Y005500D03*
X014397Y005660D03*
X014147Y005910D03*
X014057Y004800D03*
X013807Y004550D03*
X013557Y004300D03*
D18*
X013557Y004310D03*
X013807Y004560D03*
X014057Y004810D03*
X014437Y005010D03*
X014437Y005290D03*
X014057Y005490D03*
X013807Y005740D03*
X014147Y005920D03*
X014397Y005670D03*
X013057Y006570D03*
X013057Y006580D03*
X012607Y006840D03*
X011477Y006540D03*
X010767Y005950D03*
X010757Y005960D03*
X010417Y005780D03*
X009197Y005940D03*
X008167Y006030D03*
X009187Y006560D03*
X009707Y006690D03*
X014637Y007090D03*
D19*
X014637Y007080D03*
X013067Y006450D03*
X013067Y006440D03*
X013067Y006430D03*
X013067Y006420D03*
X013067Y006410D03*
X013067Y006400D03*
X013067Y006390D03*
X013067Y006380D03*
X013067Y006370D03*
X013067Y006360D03*
X013067Y006350D03*
X013067Y006340D03*
X013067Y006330D03*
X013067Y006320D03*
X013067Y006310D03*
X013067Y006300D03*
X013067Y006290D03*
X013067Y006280D03*
X013067Y006270D03*
X013067Y006260D03*
X013067Y006250D03*
X013067Y006240D03*
X013067Y006230D03*
X013067Y006220D03*
X013067Y006210D03*
X013067Y006200D03*
X013067Y006190D03*
X013067Y006180D03*
X013067Y006170D03*
X013067Y006160D03*
X013067Y006150D03*
X013067Y006140D03*
X013067Y006130D03*
X013067Y006120D03*
X013067Y006110D03*
X013067Y006100D03*
X013067Y006090D03*
X012617Y006090D03*
X012617Y006100D03*
X012617Y006110D03*
X012617Y006120D03*
X012617Y006130D03*
X012617Y006140D03*
X012617Y006150D03*
X012617Y006160D03*
X012617Y006170D03*
X012617Y006180D03*
X012617Y006190D03*
X012617Y006200D03*
X012617Y006210D03*
X012617Y006220D03*
X012617Y006230D03*
X012617Y006240D03*
X012617Y006250D03*
X012617Y006260D03*
X012617Y006270D03*
X012617Y006280D03*
X012617Y006290D03*
X012617Y006300D03*
X012617Y006310D03*
X012617Y006320D03*
X012617Y006330D03*
X012617Y006340D03*
X012617Y006350D03*
X012617Y006360D03*
X012617Y006370D03*
X012617Y006380D03*
X012617Y006390D03*
X012617Y006400D03*
X012617Y006410D03*
X012617Y006420D03*
X012617Y006430D03*
X012617Y006500D03*
X012617Y006510D03*
X012617Y006520D03*
X012617Y006530D03*
X012617Y006540D03*
X012617Y006550D03*
X012617Y006560D03*
X012617Y006570D03*
X012617Y006580D03*
X012617Y006590D03*
X012617Y006600D03*
X012617Y006610D03*
X012617Y006620D03*
X012617Y006630D03*
X012617Y006640D03*
X012617Y006650D03*
X012617Y006660D03*
X012617Y006670D03*
X012617Y006680D03*
X012617Y006690D03*
X012617Y006700D03*
X012617Y006710D03*
X012617Y006720D03*
X012617Y006730D03*
X012617Y006740D03*
X012617Y006750D03*
X012337Y006550D03*
X012247Y006370D03*
X012247Y006360D03*
X012247Y006350D03*
X012247Y006340D03*
X012247Y006330D03*
X012247Y006320D03*
X012247Y006310D03*
X012247Y006300D03*
X012247Y006290D03*
X012247Y006280D03*
X012247Y006270D03*
X012247Y006260D03*
X012247Y006250D03*
X012247Y006240D03*
X012247Y006230D03*
X012247Y006220D03*
X012247Y006210D03*
X012247Y006200D03*
X012247Y006190D03*
X012247Y006180D03*
X012247Y006170D03*
X012247Y006160D03*
X012247Y006150D03*
X012247Y006140D03*
X012247Y006130D03*
X012247Y006120D03*
X012247Y006110D03*
X012247Y006100D03*
X012247Y006090D03*
X012247Y006080D03*
X012247Y006070D03*
X012247Y006060D03*
X012247Y006050D03*
X012247Y006040D03*
X012247Y006030D03*
X012247Y006020D03*
X012617Y006020D03*
X012617Y006030D03*
X012617Y006040D03*
X012617Y006050D03*
X012617Y006060D03*
X012617Y006070D03*
X012617Y006080D03*
X011867Y006080D03*
X011867Y006090D03*
X011867Y006100D03*
X011867Y006110D03*
X011867Y006120D03*
X011867Y006130D03*
X011867Y006140D03*
X011867Y006150D03*
X011867Y006160D03*
X011867Y006170D03*
X011867Y006180D03*
X011867Y006190D03*
X011867Y006200D03*
X011867Y006210D03*
X011867Y006220D03*
X011867Y006230D03*
X011867Y006240D03*
X011867Y006250D03*
X011867Y006260D03*
X011867Y006270D03*
X011867Y006280D03*
X011867Y006290D03*
X011867Y006300D03*
X011867Y006310D03*
X011867Y006320D03*
X011867Y006330D03*
X011867Y006340D03*
X011867Y006350D03*
X011867Y006360D03*
X011867Y006370D03*
X011867Y006380D03*
X011867Y006390D03*
X011867Y006400D03*
X011867Y006410D03*
X011867Y006420D03*
X011867Y006430D03*
X011867Y006440D03*
X011867Y006450D03*
X011487Y006430D03*
X011487Y006420D03*
X011487Y006410D03*
X011487Y006400D03*
X011487Y006390D03*
X011487Y006380D03*
X011487Y006370D03*
X011487Y006360D03*
X011487Y006350D03*
X011487Y006340D03*
X011487Y006330D03*
X011487Y006320D03*
X011487Y006310D03*
X011487Y006300D03*
X011487Y006290D03*
X011487Y006280D03*
X011487Y006270D03*
X011487Y006260D03*
X011487Y006250D03*
X011487Y006240D03*
X011487Y006230D03*
X011487Y006220D03*
X011487Y006210D03*
X011487Y006200D03*
X011487Y006190D03*
X011487Y006180D03*
X011487Y006170D03*
X011487Y006160D03*
X011487Y006150D03*
X011487Y006140D03*
X011487Y006130D03*
X011487Y006120D03*
X011487Y006110D03*
X011487Y006100D03*
X011487Y006090D03*
X011487Y006080D03*
X011487Y006070D03*
X011487Y006060D03*
X011487Y006050D03*
X011487Y006040D03*
X011487Y006030D03*
X011487Y006020D03*
X011117Y006020D03*
X011117Y006030D03*
X011117Y006040D03*
X011117Y006050D03*
X011117Y006060D03*
X011117Y006070D03*
X011117Y006080D03*
X011117Y006090D03*
X011117Y006100D03*
X011117Y006110D03*
X011117Y006120D03*
X011117Y006130D03*
X011117Y006140D03*
X011117Y006150D03*
X011117Y006160D03*
X011117Y006170D03*
X011117Y006180D03*
X011117Y006190D03*
X011117Y006200D03*
X011117Y006210D03*
X011117Y006220D03*
X011117Y006230D03*
X011117Y006240D03*
X011117Y006250D03*
X011117Y006260D03*
X011117Y006270D03*
X011117Y006280D03*
X011117Y006290D03*
X011117Y006300D03*
X011117Y006310D03*
X011117Y006320D03*
X011117Y006330D03*
X011117Y006340D03*
X011117Y006350D03*
X011117Y006360D03*
X011117Y006370D03*
X011207Y006550D03*
X010777Y006410D03*
X010777Y006400D03*
X010767Y006430D03*
X010767Y006440D03*
X010757Y006460D03*
X010747Y006470D03*
X010457Y006450D03*
X010447Y006430D03*
X010447Y006420D03*
X010437Y006400D03*
X010437Y006390D03*
X010437Y006380D03*
X010437Y006370D03*
X010437Y006360D03*
X010437Y006350D03*
X010437Y006340D03*
X010437Y006330D03*
X010437Y006320D03*
X010447Y006310D03*
X010447Y006300D03*
X010447Y006290D03*
X010457Y006270D03*
X010467Y006250D03*
X010477Y006240D03*
X010487Y006230D03*
X010697Y006070D03*
X010797Y005910D03*
X010797Y005900D03*
X010807Y005880D03*
X010807Y005870D03*
X010807Y005860D03*
X010807Y005850D03*
X010807Y005840D03*
X010377Y005860D03*
X010377Y005870D03*
X010377Y005880D03*
X009947Y005940D03*
X009727Y006080D03*
X009367Y006440D03*
X010057Y006660D03*
X010067Y006650D03*
X010067Y006640D03*
X010077Y006620D03*
X010077Y006610D03*
X010077Y006600D03*
X008347Y006790D03*
X008347Y005940D03*
X011867Y006020D03*
X011867Y006030D03*
X011867Y006040D03*
X011867Y006050D03*
X011867Y006060D03*
X011867Y006070D03*
X014147Y005930D03*
X013557Y004320D03*
D20*
X013557Y004330D03*
X014437Y005020D03*
X014437Y005280D03*
X014147Y005940D03*
X013757Y006120D03*
X013057Y006060D03*
X013057Y006050D03*
X012617Y006010D03*
X012247Y006010D03*
X011867Y006010D03*
X011487Y006010D03*
X011117Y006010D03*
X010787Y005790D03*
X010387Y005910D03*
X010737Y006230D03*
X010777Y006310D03*
X010717Y006500D03*
X011127Y006420D03*
X011127Y006410D03*
X011137Y006430D03*
X011477Y006440D03*
X011877Y006520D03*
X012257Y006410D03*
X012267Y006430D03*
X012607Y006440D03*
X013847Y006790D03*
X014387Y006820D03*
X014637Y007070D03*
X014477Y007480D03*
X010077Y006550D03*
X010077Y006540D03*
X010017Y006700D03*
X009727Y006710D03*
X009397Y006380D03*
X009407Y006350D03*
X009407Y006340D03*
X009407Y006330D03*
X009417Y006310D03*
X009417Y006300D03*
X009417Y006290D03*
X009417Y006280D03*
X009417Y006270D03*
X009417Y006260D03*
X009417Y006250D03*
X009417Y006240D03*
X009417Y006230D03*
X009417Y006220D03*
X009417Y006210D03*
X009417Y006200D03*
X009417Y006190D03*
X009407Y006170D03*
X009407Y006160D03*
X009407Y006150D03*
X009397Y006120D03*
X009387Y006090D03*
X009337Y006020D03*
X008987Y006120D03*
X008977Y006150D03*
X008977Y006160D03*
X008977Y006170D03*
X008967Y006190D03*
X008967Y006200D03*
X008967Y006210D03*
X008967Y006220D03*
X008967Y006230D03*
X008967Y006240D03*
X008967Y006250D03*
X008967Y006260D03*
X008967Y006270D03*
X008967Y006280D03*
X008967Y006290D03*
X008967Y006300D03*
X008967Y006310D03*
X008977Y006330D03*
X008977Y006340D03*
X008977Y006350D03*
X008987Y006380D03*
X008687Y006440D03*
X008677Y006490D03*
X008667Y006520D03*
X008657Y006550D03*
X008647Y006570D03*
X008637Y006590D03*
X008687Y006290D03*
X008677Y006240D03*
X008667Y006210D03*
X008657Y006180D03*
X008647Y006160D03*
X009707Y006160D03*
X009707Y006150D03*
X009707Y006140D03*
X009747Y006050D03*
X009757Y006040D03*
D21*
X009717Y006200D03*
X010057Y006500D03*
X010067Y006510D03*
X010067Y006520D03*
X010397Y005920D03*
X011147Y006440D03*
X011507Y006520D03*
X012277Y006440D03*
X012637Y006820D03*
X013847Y006800D03*
X014137Y006560D03*
X014387Y006810D03*
X014637Y007060D03*
X013847Y007900D03*
X012987Y005950D03*
X013557Y004340D03*
X008607Y006100D03*
X008587Y006080D03*
X008577Y006070D03*
X008567Y006060D03*
X008567Y006670D03*
X008557Y006680D03*
D22*
X008527Y006700D03*
X009187Y006550D03*
X009727Y006220D03*
X009737Y006230D03*
X009797Y006020D03*
X010407Y005930D03*
X010617Y006170D03*
X011157Y006450D03*
X011457Y006450D03*
X011517Y006510D03*
X012287Y006450D03*
X013037Y006030D03*
X013757Y006130D03*
X014137Y005970D03*
X014207Y006150D03*
X014207Y006160D03*
X014207Y006170D03*
X014217Y006190D03*
X014217Y006200D03*
X014217Y006210D03*
X014217Y006220D03*
X014227Y006240D03*
X014227Y006270D03*
X014227Y006280D03*
X014217Y006290D03*
X014217Y006300D03*
X014217Y006310D03*
X014217Y006320D03*
X014207Y006340D03*
X014207Y006350D03*
X014207Y006360D03*
X014207Y006370D03*
X014137Y006550D03*
X014387Y006800D03*
X014637Y007050D03*
X014477Y007230D03*
X014477Y007470D03*
X014097Y007640D03*
X014027Y007460D03*
X014027Y007450D03*
X014027Y007440D03*
X014027Y007430D03*
X014027Y007420D03*
X014017Y007400D03*
X014017Y007390D03*
X014017Y007380D03*
X014017Y007370D03*
X014017Y007360D03*
X014017Y007350D03*
X014017Y007340D03*
X014017Y007330D03*
X014017Y007320D03*
X014017Y007310D03*
X014017Y007300D03*
X014027Y007280D03*
X014027Y007270D03*
X014027Y007260D03*
X014027Y007250D03*
X014027Y007240D03*
X014097Y007060D03*
X013847Y006810D03*
X013697Y007140D03*
X013687Y007160D03*
X013687Y007170D03*
X013687Y007180D03*
X013687Y007190D03*
X013677Y007210D03*
X013677Y007220D03*
X013677Y007230D03*
X013677Y007240D03*
X013677Y007250D03*
X013667Y007270D03*
X013667Y007280D03*
X013667Y007290D03*
X013667Y007300D03*
X013667Y007310D03*
X013667Y007320D03*
X013667Y007330D03*
X013667Y007340D03*
X013667Y007350D03*
X013667Y007360D03*
X013667Y007370D03*
X013667Y007380D03*
X013667Y007390D03*
X013667Y007400D03*
X013667Y007410D03*
X013667Y007420D03*
X013667Y007430D03*
X013677Y007450D03*
X013677Y007460D03*
X013677Y007470D03*
X013677Y007480D03*
X013677Y007490D03*
X013687Y007520D03*
X013687Y007530D03*
X013687Y007540D03*
X013697Y007560D03*
X013337Y007540D03*
X013337Y007530D03*
X013337Y007520D03*
X013337Y007510D03*
X013337Y007500D03*
X013337Y007490D03*
X013337Y007480D03*
X013327Y007450D03*
X013327Y007440D03*
X013327Y007430D03*
X013327Y007420D03*
X013327Y007410D03*
X013327Y007400D03*
X013327Y007390D03*
X013327Y007380D03*
X013327Y007370D03*
X013327Y007360D03*
X013327Y007350D03*
X013327Y007340D03*
X013327Y007330D03*
X013327Y007320D03*
X013327Y007310D03*
X013327Y007300D03*
X013327Y007290D03*
X013327Y007280D03*
X013327Y007270D03*
X013327Y007260D03*
X013327Y007250D03*
X013327Y007240D03*
X013337Y007180D03*
X013337Y007170D03*
X013337Y007160D03*
X013337Y007150D03*
X013847Y007890D03*
X014887Y006520D03*
X014897Y006470D03*
X014897Y006460D03*
X014907Y006440D03*
X014907Y006430D03*
X014907Y006420D03*
X014907Y006410D03*
X014907Y006400D03*
X014907Y006390D03*
X014917Y006360D03*
X014917Y006350D03*
X014917Y006340D03*
X014917Y006330D03*
X014917Y006320D03*
X014917Y006310D03*
X014917Y006300D03*
X014917Y006290D03*
X014917Y006280D03*
X014917Y006270D03*
X014917Y006260D03*
X014917Y006250D03*
X014917Y006240D03*
X014917Y006230D03*
X014917Y006220D03*
X014917Y006210D03*
X014917Y006200D03*
X014917Y006190D03*
X014917Y006180D03*
X014917Y006170D03*
X014917Y006160D03*
X014917Y006150D03*
X014907Y006090D03*
X014907Y006080D03*
X014907Y006070D03*
X014897Y006050D03*
X014897Y006040D03*
X014887Y005990D03*
X014547Y006060D03*
X014547Y006070D03*
X014557Y006110D03*
X014557Y006120D03*
X014567Y006170D03*
X014567Y006180D03*
X014567Y006190D03*
X014567Y006200D03*
X014567Y006210D03*
X014567Y006220D03*
X014567Y006230D03*
X014567Y006240D03*
X014567Y006250D03*
X014567Y006260D03*
X014567Y006270D03*
X014567Y006280D03*
X014567Y006290D03*
X014567Y006300D03*
X014567Y006310D03*
X014567Y006320D03*
X014567Y006330D03*
X014567Y006340D03*
X014557Y006390D03*
X014557Y006400D03*
X014547Y006440D03*
X014547Y006450D03*
X014437Y005270D03*
X013997Y005270D03*
X013997Y005260D03*
X013987Y005230D03*
X013987Y005220D03*
X013977Y005190D03*
X013977Y005180D03*
X013977Y005170D03*
X013977Y005160D03*
X013977Y005150D03*
X013977Y005140D03*
X013977Y005130D03*
X013977Y005120D03*
X013977Y005110D03*
X013987Y005090D03*
X013987Y005080D03*
X013987Y005070D03*
X013997Y005040D03*
X013997Y005030D03*
X013657Y004960D03*
X013657Y004950D03*
X013647Y004990D03*
X013647Y005000D03*
X013647Y005010D03*
X013647Y005020D03*
X013647Y005030D03*
X013637Y005060D03*
X013637Y005070D03*
X013637Y005230D03*
X013637Y005240D03*
X013637Y005250D03*
X013647Y005290D03*
X013647Y005300D03*
X013647Y005310D03*
X013657Y005350D03*
X013297Y005350D03*
X013297Y005340D03*
X013297Y004950D03*
X013557Y004350D03*
X014437Y005030D03*
X010607Y006550D03*
X010047Y006490D03*
X009197Y005950D03*
X008537Y006040D03*
D23*
X009747Y006250D03*
X010427Y005940D03*
X011217Y006530D03*
X011527Y006500D03*
X011907Y006500D03*
X011907Y006490D03*
X011907Y006480D03*
X011907Y006470D03*
X011907Y006460D03*
X012347Y006530D03*
X013387Y006960D03*
X013387Y006970D03*
X013387Y006980D03*
X013377Y006990D03*
X013377Y007000D03*
X013377Y007010D03*
X013367Y007040D03*
X013347Y007110D03*
X013347Y007120D03*
X013397Y006950D03*
X013397Y006940D03*
X013407Y006930D03*
X013407Y006920D03*
X013407Y006910D03*
X013417Y006900D03*
X013417Y006890D03*
X013427Y006870D03*
X013737Y007020D03*
X013737Y007030D03*
X013727Y007050D03*
X013717Y007070D03*
X013747Y007010D03*
X013747Y007000D03*
X013757Y006990D03*
X013767Y006970D03*
X013847Y006820D03*
X014067Y007150D03*
X014057Y007170D03*
X014047Y007190D03*
X014477Y007240D03*
X014477Y007460D03*
X014077Y007570D03*
X014067Y007550D03*
X014057Y007530D03*
X014047Y007510D03*
X013727Y007640D03*
X013727Y007650D03*
X013737Y007670D03*
X013737Y007680D03*
X013747Y007690D03*
X013747Y007700D03*
X013757Y007710D03*
X013767Y007730D03*
X013847Y007880D03*
X013417Y007800D03*
X013407Y007780D03*
X013397Y007750D03*
X013397Y007740D03*
X013387Y007720D03*
X013387Y007710D03*
X013377Y007700D03*
X013377Y007690D03*
X013377Y007680D03*
X013367Y007670D03*
X013367Y007660D03*
X013367Y007650D03*
X013357Y007620D03*
X013347Y007590D03*
X013347Y007580D03*
X013347Y007570D03*
X014637Y007040D03*
X014777Y006800D03*
X014807Y006740D03*
X014817Y006730D03*
X014817Y006720D03*
X014827Y006710D03*
X014827Y006700D03*
X014837Y006680D03*
X014837Y006670D03*
X014847Y006660D03*
X014847Y006650D03*
X014857Y006620D03*
X014877Y006560D03*
X014537Y006480D03*
X014527Y006510D03*
X014517Y006530D03*
X014517Y006540D03*
X014507Y006550D03*
X014507Y006560D03*
X014507Y006570D03*
X014497Y006580D03*
X014487Y006600D03*
X014467Y006640D03*
X014387Y006790D03*
X014137Y006530D03*
X014167Y006460D03*
X014177Y006450D03*
X014177Y006440D03*
X014187Y006420D03*
X014187Y006090D03*
X014177Y006070D03*
X014137Y005980D03*
X014477Y005880D03*
X014487Y005910D03*
X014497Y005930D03*
X014507Y005950D03*
X014507Y005960D03*
X014517Y005970D03*
X014517Y005980D03*
X014527Y006000D03*
X014857Y005890D03*
X014857Y005880D03*
X014847Y005860D03*
X014847Y005850D03*
X014837Y005840D03*
X014837Y005830D03*
X014827Y005810D03*
X014827Y005800D03*
X014817Y005790D03*
X014817Y005780D03*
X014807Y005770D03*
X014777Y005710D03*
X014637Y005480D03*
X014437Y005260D03*
X014067Y005430D03*
X014047Y005380D03*
X014037Y005360D03*
X014027Y005340D03*
X014017Y005320D03*
X013707Y005480D03*
X013707Y005490D03*
X013717Y005500D03*
X013717Y005510D03*
X013727Y005520D03*
X013727Y005530D03*
X013737Y005540D03*
X013697Y005470D03*
X013697Y005460D03*
X013687Y005440D03*
X013677Y005410D03*
X013337Y005500D03*
X013337Y005510D03*
X013347Y005540D03*
X013357Y005560D03*
X013367Y005580D03*
X013367Y005590D03*
X013367Y005600D03*
X013377Y005610D03*
X013387Y005630D03*
X013327Y005470D03*
X013317Y005450D03*
X013317Y005440D03*
X013817Y005680D03*
X014387Y005730D03*
X013757Y006140D03*
X014017Y004980D03*
X014027Y004960D03*
X014047Y004920D03*
X014067Y004870D03*
X013737Y004760D03*
X013727Y004780D03*
X013717Y004800D03*
X013707Y004810D03*
X013707Y004820D03*
X013697Y004830D03*
X013697Y004840D03*
X013687Y004860D03*
X013687Y004870D03*
X013337Y004800D03*
X013337Y004790D03*
X013337Y004780D03*
X013347Y004760D03*
X013367Y004710D03*
X013327Y004820D03*
X013327Y004830D03*
X013327Y004840D03*
X013317Y004850D03*
X013317Y004860D03*
X013307Y004890D03*
X013307Y004900D03*
X013287Y004990D03*
X013287Y005000D03*
X013287Y005010D03*
X013287Y005020D03*
X013817Y004620D03*
X013557Y004360D03*
X014437Y005040D03*
D24*
X014062Y004900D03*
X014062Y004890D03*
X014062Y004880D03*
X014052Y004910D03*
X014042Y004930D03*
X014042Y004940D03*
X014032Y004950D03*
X013722Y004790D03*
X013732Y004770D03*
X013742Y004750D03*
X013752Y004740D03*
X013752Y004730D03*
X013762Y004720D03*
X013422Y004600D03*
X013392Y004650D03*
X013392Y004660D03*
X013382Y004670D03*
X013382Y004680D03*
X013372Y004690D03*
X013372Y004700D03*
X013362Y004720D03*
X013362Y004730D03*
X013352Y004740D03*
X013352Y004750D03*
X013342Y004770D03*
X013562Y004370D03*
X014032Y005350D03*
X014042Y005370D03*
X014052Y005390D03*
X013742Y005550D03*
X013752Y005570D03*
X013422Y005690D03*
X013422Y005700D03*
X013412Y005680D03*
X013402Y005670D03*
X013402Y005660D03*
X013392Y005650D03*
X013392Y005640D03*
X013382Y005620D03*
X013362Y005570D03*
X013352Y005550D03*
X013562Y005930D03*
X014132Y005990D03*
X014152Y006020D03*
X014162Y006040D03*
X014162Y006050D03*
X014172Y006060D03*
X014482Y005900D03*
X014482Y005890D03*
X014472Y005870D03*
X014462Y005860D03*
X014452Y005840D03*
X014492Y005920D03*
X014502Y005940D03*
X014802Y005760D03*
X014802Y005750D03*
X014792Y005740D03*
X014792Y005730D03*
X014782Y005720D03*
X014772Y005700D03*
X014762Y005690D03*
X013762Y006360D03*
X013602Y006570D03*
X013472Y006790D03*
X013462Y006800D03*
X013462Y006810D03*
X013452Y006820D03*
X013452Y006830D03*
X013442Y006840D03*
X013442Y006850D03*
X013432Y006860D03*
X013422Y006880D03*
X013762Y006980D03*
X013772Y006960D03*
X013782Y006950D03*
X013782Y006940D03*
X013792Y006930D03*
X013792Y006920D03*
X013802Y006910D03*
X013852Y006830D03*
X014102Y007080D03*
X014102Y007090D03*
X014082Y007120D03*
X014072Y007130D03*
X014072Y007140D03*
X014632Y007030D03*
X014762Y006830D03*
X014772Y006810D03*
X014782Y006790D03*
X014792Y006780D03*
X014792Y006770D03*
X014802Y006760D03*
X014802Y006750D03*
X014482Y006620D03*
X014482Y006610D03*
X014472Y006630D03*
X014462Y006650D03*
X014452Y006670D03*
X014492Y006590D03*
X014162Y006470D03*
X014152Y006490D03*
X012972Y005960D03*
X012662Y006760D03*
X012662Y006770D03*
X012662Y006780D03*
X012662Y006790D03*
X012662Y006800D03*
X013762Y007720D03*
X013772Y007740D03*
X013782Y007750D03*
X013782Y007760D03*
X013792Y007770D03*
X013792Y007780D03*
X013852Y007870D03*
X013602Y008130D03*
X013462Y007890D03*
X013452Y007870D03*
X013442Y007850D03*
X013432Y007830D03*
X013422Y007820D03*
X013422Y007810D03*
X013412Y007790D03*
X013402Y007770D03*
X013402Y007760D03*
X014072Y007560D03*
X014082Y007580D03*
X014102Y007610D03*
X014102Y007620D03*
X010632Y005690D03*
X009752Y006260D03*
X010022Y006460D03*
X009862Y006780D03*
X008502Y006710D03*
D25*
X008342Y006780D03*
X010012Y006450D03*
X010602Y006540D03*
X011222Y006520D03*
X009952Y005950D03*
X012352Y006520D03*
X013502Y006740D03*
X013512Y006720D03*
X013532Y006690D03*
X013542Y006680D03*
X013562Y006650D03*
X013572Y006640D03*
X013602Y006590D03*
X013762Y006350D03*
X013762Y006160D03*
X013562Y005910D03*
X013522Y005850D03*
X013502Y005820D03*
X013492Y005810D03*
X013482Y005800D03*
X013482Y005790D03*
X013472Y005780D03*
X013462Y005770D03*
X013452Y005750D03*
X013772Y005600D03*
X013782Y005610D03*
X013792Y005620D03*
X013802Y005640D03*
X013812Y005650D03*
X013812Y005660D03*
X014392Y005750D03*
X014392Y005760D03*
X014412Y005790D03*
X014422Y005800D03*
X014432Y005810D03*
X014692Y005580D03*
X014702Y005590D03*
X014712Y005600D03*
X014682Y005560D03*
X014672Y005550D03*
X014642Y005500D03*
X014742Y005650D03*
X014432Y005240D03*
X014442Y005060D03*
X013812Y004650D03*
X013812Y004640D03*
X013802Y004660D03*
X013792Y004680D03*
X013782Y004690D03*
X013452Y004550D03*
X013452Y004540D03*
X013462Y004530D03*
X013472Y004520D03*
X013482Y004500D03*
X013442Y004560D03*
X013562Y004380D03*
X014432Y006700D03*
X014422Y006710D03*
X014412Y006720D03*
X014392Y006760D03*
X014672Y006960D03*
X014682Y006950D03*
X014692Y006930D03*
X014702Y006920D03*
X014712Y006910D03*
X014732Y006880D03*
X014642Y007010D03*
X014472Y007440D03*
X013822Y007820D03*
X013832Y007830D03*
X013842Y007840D03*
X013842Y007850D03*
X013522Y007990D03*
X013512Y007980D03*
X013512Y007970D03*
X013502Y007960D03*
X013492Y007940D03*
X013602Y008110D03*
X013822Y006880D03*
X013832Y006870D03*
X013842Y006860D03*
X013842Y006850D03*
D26*
X013557Y006660D03*
X013547Y006670D03*
X013577Y006630D03*
X013587Y006620D03*
X013597Y006600D03*
X013757Y006170D03*
X013557Y005900D03*
X013547Y005880D03*
X013537Y005870D03*
X013527Y005860D03*
X013517Y005840D03*
X013507Y005830D03*
X013797Y005630D03*
X014397Y005770D03*
X014407Y005780D03*
X014687Y005570D03*
X014667Y005540D03*
X014657Y005530D03*
X014647Y005520D03*
X014647Y005510D03*
X014437Y005230D03*
X014437Y005070D03*
X013797Y004670D03*
X013507Y004470D03*
X013497Y004480D03*
X013487Y004490D03*
X013477Y004510D03*
X013517Y004450D03*
X013527Y004440D03*
X013557Y004390D03*
X010617Y006180D03*
X009997Y006440D03*
X009777Y006280D03*
X009187Y006540D03*
X009197Y005960D03*
X008347Y005950D03*
X013527Y008000D03*
X013537Y008010D03*
X013547Y008020D03*
X013557Y008040D03*
X013567Y008050D03*
X013597Y008100D03*
X014477Y007430D03*
X014477Y007270D03*
X014477Y007260D03*
X014647Y007000D03*
X014647Y006990D03*
X014657Y006980D03*
X014667Y006970D03*
X014687Y006940D03*
X014397Y006750D03*
X014397Y006740D03*
X014407Y006730D03*
D27*
X013762Y006340D03*
X013762Y006330D03*
X013592Y006610D03*
X013552Y005890D03*
X013512Y004460D03*
X013532Y004430D03*
X013542Y004420D03*
X013552Y004410D03*
X013552Y004400D03*
X010632Y006050D03*
X010452Y005950D03*
X009792Y006290D03*
X009982Y006430D03*
X010392Y006460D03*
X013552Y008030D03*
X013572Y008060D03*
X013582Y008070D03*
X013592Y008080D03*
X013592Y008090D03*
D28*
X013602Y008180D03*
X013842Y007930D03*
X014092Y007680D03*
X014472Y007490D03*
X014472Y007210D03*
X014092Y007020D03*
X014392Y006840D03*
X014142Y006590D03*
X013842Y006770D03*
X013602Y006520D03*
X013062Y006550D03*
X013062Y006560D03*
X013752Y006110D03*
X013562Y005980D03*
X013812Y005730D03*
X014062Y005480D03*
X014392Y005680D03*
X014642Y005430D03*
X014062Y004820D03*
X013812Y004570D03*
X010802Y005890D03*
X010792Y005920D03*
X010782Y005930D03*
X010772Y005940D03*
X010632Y005680D03*
X010442Y005760D03*
X010432Y005770D03*
X010412Y005790D03*
X010402Y005800D03*
X010392Y005810D03*
X010392Y005820D03*
X010382Y005830D03*
X010382Y005840D03*
X010382Y005850D03*
X010112Y006030D03*
X010462Y006260D03*
X010452Y006280D03*
X010442Y006410D03*
X010452Y006440D03*
X009872Y006790D03*
X009712Y006700D03*
X008172Y006700D03*
X011862Y006690D03*
X011862Y006530D03*
X011862Y006800D03*
D29*
X013477Y006780D03*
X013487Y006770D03*
X013487Y006760D03*
X013497Y006750D03*
X013507Y006730D03*
X013517Y006710D03*
X013527Y006700D03*
X013607Y006580D03*
X013847Y006840D03*
X013817Y006890D03*
X013807Y006900D03*
X014097Y007100D03*
X014087Y007110D03*
X014477Y007250D03*
X014477Y007450D03*
X014097Y007600D03*
X014087Y007590D03*
X013807Y007790D03*
X013807Y007800D03*
X013817Y007810D03*
X013847Y007860D03*
X013607Y008120D03*
X013497Y007950D03*
X013487Y007930D03*
X013477Y007920D03*
X013477Y007910D03*
X013467Y007900D03*
X013457Y007880D03*
X013447Y007860D03*
X013437Y007840D03*
X014637Y007020D03*
X014717Y006900D03*
X014727Y006890D03*
X014737Y006870D03*
X014747Y006860D03*
X014747Y006850D03*
X014757Y006840D03*
X014767Y006820D03*
X014457Y006660D03*
X014447Y006680D03*
X014437Y006690D03*
X014387Y006770D03*
X014387Y006780D03*
X014137Y006520D03*
X014137Y006510D03*
X014147Y006500D03*
X014157Y006480D03*
X013757Y006150D03*
X013567Y005920D03*
X013457Y005760D03*
X013447Y005740D03*
X013437Y005730D03*
X013437Y005720D03*
X013427Y005710D03*
X013747Y005560D03*
X013757Y005580D03*
X013767Y005590D03*
X013817Y005670D03*
X014067Y005420D03*
X014067Y005410D03*
X014057Y005400D03*
X014437Y005250D03*
X014437Y005050D03*
X014637Y005490D03*
X014717Y005610D03*
X014727Y005620D03*
X014727Y005630D03*
X014737Y005640D03*
X014747Y005660D03*
X014757Y005670D03*
X014757Y005680D03*
X014447Y005830D03*
X014437Y005820D03*
X014457Y005850D03*
X014387Y005740D03*
X014137Y006000D03*
X014147Y006010D03*
X014157Y006030D03*
X013767Y004710D03*
X013777Y004700D03*
X013817Y004630D03*
X013437Y004580D03*
X013437Y004570D03*
X013427Y004590D03*
X013417Y004610D03*
X013407Y004620D03*
X013407Y004630D03*
X013397Y004640D03*
X009767Y006270D03*
X008497Y006020D03*
D30*
X008182Y006020D03*
X008972Y006180D03*
X008982Y006140D03*
X008982Y006130D03*
X008992Y006110D03*
X008992Y006100D03*
X009002Y006090D03*
X009002Y006080D03*
X009012Y006070D03*
X009012Y006060D03*
X009022Y006050D03*
X009032Y006040D03*
X009042Y006030D03*
X009052Y006020D03*
X009342Y006030D03*
X009352Y006040D03*
X009362Y006050D03*
X009372Y006060D03*
X009372Y006070D03*
X009382Y006080D03*
X009392Y006100D03*
X009392Y006110D03*
X009402Y006130D03*
X009402Y006140D03*
X009412Y006180D03*
X009412Y006320D03*
X009402Y006360D03*
X009402Y006370D03*
X009392Y006390D03*
X009392Y006400D03*
X009382Y006410D03*
X009382Y006420D03*
X009372Y006430D03*
X009362Y006450D03*
X009352Y006460D03*
X009342Y006470D03*
X009332Y006480D03*
X009042Y006470D03*
X009032Y006460D03*
X009022Y006450D03*
X009012Y006440D03*
X009012Y006430D03*
X009002Y006420D03*
X009002Y006410D03*
X008992Y006400D03*
X008992Y006390D03*
X008982Y006370D03*
X008982Y006360D03*
X008972Y006320D03*
X009712Y006130D03*
X009712Y006120D03*
X009712Y006110D03*
X009722Y006100D03*
X009722Y006090D03*
X009732Y006070D03*
X009742Y006060D03*
X010382Y005900D03*
X010382Y005890D03*
X010462Y005750D03*
X010792Y005800D03*
X010802Y005810D03*
X010802Y005820D03*
X010802Y005830D03*
X010632Y006160D03*
X010742Y006240D03*
X010752Y006250D03*
X010762Y006260D03*
X010762Y006270D03*
X010772Y006280D03*
X010772Y006290D03*
X010772Y006300D03*
X010782Y006320D03*
X010782Y006330D03*
X010782Y006340D03*
X010782Y006350D03*
X010782Y006360D03*
X010782Y006370D03*
X010782Y006380D03*
X010782Y006390D03*
X010772Y006420D03*
X010762Y006450D03*
X010742Y006480D03*
X010732Y006490D03*
X011122Y006400D03*
X011122Y006390D03*
X011122Y006380D03*
X011492Y006530D03*
X011862Y006700D03*
X011862Y006710D03*
X011862Y006780D03*
X011862Y006790D03*
X012262Y006420D03*
X012252Y006400D03*
X012252Y006390D03*
X012252Y006380D03*
X013062Y006080D03*
X013062Y006070D03*
X013562Y005970D03*
X013812Y005720D03*
X014062Y005470D03*
X014392Y005690D03*
X014642Y005440D03*
X014062Y004830D03*
X013812Y004580D03*
X013762Y006390D03*
X013602Y006530D03*
X013842Y006780D03*
X014142Y006580D03*
X014392Y006830D03*
X014092Y007030D03*
X013072Y006540D03*
X012622Y006830D03*
X014092Y007670D03*
X013842Y007920D03*
X013602Y008170D03*
X010502Y006220D03*
X010082Y006560D03*
X010082Y006570D03*
X010082Y006580D03*
X010082Y006590D03*
X010072Y006630D03*
X010052Y006670D03*
X010042Y006680D03*
X010032Y006690D03*
D31*
X010072Y006530D03*
X009712Y006190D03*
X009712Y006180D03*
X009712Y006170D03*
X009772Y006030D03*
X010092Y006020D03*
X010722Y006220D03*
X010782Y005780D03*
X010772Y005770D03*
X010762Y005760D03*
X009312Y006010D03*
X009072Y006010D03*
X008662Y006190D03*
X008662Y006200D03*
X008672Y006220D03*
X008672Y006230D03*
X008682Y006250D03*
X008682Y006260D03*
X008682Y006270D03*
X008682Y006280D03*
X008692Y006300D03*
X008692Y006310D03*
X008692Y006320D03*
X008692Y006330D03*
X008692Y006340D03*
X008692Y006350D03*
X008692Y006360D03*
X008692Y006370D03*
X008692Y006380D03*
X008692Y006390D03*
X008692Y006400D03*
X008692Y006410D03*
X008692Y006420D03*
X008692Y006430D03*
X008682Y006450D03*
X008682Y006460D03*
X008682Y006470D03*
X008682Y006480D03*
X008672Y006500D03*
X008672Y006510D03*
X008662Y006530D03*
X008662Y006540D03*
X008652Y006560D03*
X008642Y006580D03*
X008632Y006600D03*
X008622Y006610D03*
X008622Y006620D03*
X008612Y006630D03*
X008602Y006640D03*
X008592Y006650D03*
X008582Y006660D03*
X008192Y006710D03*
X009052Y006480D03*
X009072Y006490D03*
X009312Y006490D03*
X008652Y006170D03*
X008642Y006150D03*
X008632Y006140D03*
X008632Y006130D03*
X008622Y006120D03*
X008612Y006110D03*
X008602Y006090D03*
X011862Y006720D03*
X011862Y006730D03*
X011862Y006740D03*
X011862Y006750D03*
X011862Y006760D03*
X011862Y006770D03*
X013082Y006530D03*
X013602Y006540D03*
X014142Y006570D03*
X014092Y007040D03*
X014472Y007220D03*
X014092Y007660D03*
X013842Y007910D03*
X013602Y008160D03*
X013052Y006040D03*
X013562Y005960D03*
X013812Y005710D03*
X014062Y005460D03*
X014392Y005700D03*
X014142Y005950D03*
X014642Y005450D03*
X014062Y004840D03*
X013812Y004590D03*
D32*
X013812Y004600D03*
X014062Y004850D03*
X013992Y005050D03*
X013992Y005060D03*
X013992Y005240D03*
X013992Y005250D03*
X014062Y005450D03*
X013632Y005220D03*
X013632Y005210D03*
X013632Y005200D03*
X013632Y005190D03*
X013632Y005180D03*
X013632Y005170D03*
X013632Y005160D03*
X013632Y005150D03*
X013632Y005140D03*
X013632Y005130D03*
X013632Y005120D03*
X013632Y005110D03*
X013632Y005100D03*
X013632Y005090D03*
X013632Y005080D03*
X014642Y005460D03*
X014392Y005710D03*
X014142Y005960D03*
X013812Y005700D03*
X013562Y005950D03*
X013762Y006380D03*
X013602Y006550D03*
X014212Y006330D03*
X014222Y006260D03*
X014222Y006250D03*
X014222Y006230D03*
X014212Y006180D03*
X014902Y006060D03*
X014902Y006450D03*
X014092Y007050D03*
X014092Y007650D03*
X013602Y008150D03*
X012342Y006540D03*
X011892Y006510D03*
X011212Y006540D03*
X010002Y006710D03*
X009722Y006210D03*
X010752Y005750D03*
X008552Y006050D03*
X008542Y006690D03*
D33*
X008522Y006030D03*
X009742Y006240D03*
X010032Y006470D03*
X010042Y006480D03*
X010662Y006060D03*
X012582Y006450D03*
X012652Y006810D03*
X013362Y007050D03*
X013362Y007060D03*
X013362Y007070D03*
X013352Y007080D03*
X013352Y007090D03*
X013352Y007100D03*
X013342Y007130D03*
X013342Y007140D03*
X013332Y007190D03*
X013332Y007200D03*
X013332Y007210D03*
X013332Y007220D03*
X013332Y007230D03*
X013372Y007030D03*
X013372Y007020D03*
X013702Y007110D03*
X013702Y007120D03*
X013702Y007130D03*
X013692Y007150D03*
X013682Y007200D03*
X013672Y007260D03*
X013712Y007100D03*
X013712Y007090D03*
X013712Y007080D03*
X013722Y007060D03*
X013732Y007040D03*
X014042Y007200D03*
X014042Y007210D03*
X014032Y007220D03*
X014032Y007230D03*
X014052Y007180D03*
X014062Y007160D03*
X014102Y007070D03*
X014022Y007290D03*
X014022Y007410D03*
X014032Y007470D03*
X014032Y007480D03*
X014042Y007490D03*
X014042Y007500D03*
X014052Y007520D03*
X014062Y007540D03*
X014102Y007630D03*
X013732Y007660D03*
X013722Y007630D03*
X013712Y007620D03*
X013712Y007610D03*
X013712Y007600D03*
X013702Y007590D03*
X013702Y007580D03*
X013702Y007570D03*
X013692Y007550D03*
X013682Y007510D03*
X013682Y007500D03*
X013672Y007440D03*
X013332Y007460D03*
X013332Y007470D03*
X013342Y007550D03*
X013342Y007560D03*
X013352Y007600D03*
X013352Y007610D03*
X013362Y007630D03*
X013362Y007640D03*
X013392Y007730D03*
X013602Y008140D03*
X014832Y006690D03*
X014852Y006640D03*
X014852Y006630D03*
X014862Y006610D03*
X014862Y006600D03*
X014862Y006590D03*
X014872Y006580D03*
X014872Y006570D03*
X014882Y006550D03*
X014882Y006540D03*
X014882Y006530D03*
X014892Y006510D03*
X014892Y006500D03*
X014892Y006490D03*
X014892Y006480D03*
X014912Y006380D03*
X014912Y006370D03*
X014912Y006140D03*
X014912Y006130D03*
X014912Y006120D03*
X014912Y006110D03*
X014912Y006100D03*
X014892Y006030D03*
X014892Y006020D03*
X014892Y006010D03*
X014892Y006000D03*
X014882Y005980D03*
X014882Y005970D03*
X014882Y005960D03*
X014872Y005950D03*
X014872Y005940D03*
X014872Y005930D03*
X014862Y005920D03*
X014862Y005910D03*
X014862Y005900D03*
X014852Y005870D03*
X014832Y005820D03*
X014522Y005990D03*
X014532Y006010D03*
X014532Y006020D03*
X014532Y006030D03*
X014542Y006040D03*
X014542Y006050D03*
X014552Y006080D03*
X014552Y006090D03*
X014552Y006100D03*
X014562Y006130D03*
X014562Y006140D03*
X014562Y006150D03*
X014562Y006160D03*
X014562Y006350D03*
X014562Y006360D03*
X014562Y006370D03*
X014562Y006380D03*
X014552Y006410D03*
X014552Y006420D03*
X014552Y006430D03*
X014542Y006460D03*
X014542Y006470D03*
X014532Y006490D03*
X014532Y006500D03*
X014522Y006520D03*
X014202Y006390D03*
X014202Y006380D03*
X014192Y006400D03*
X014192Y006410D03*
X014182Y006430D03*
X014132Y006540D03*
X013762Y006370D03*
X013602Y006560D03*
X014202Y006140D03*
X014202Y006130D03*
X014202Y006120D03*
X014192Y006110D03*
X014192Y006100D03*
X014182Y006080D03*
X014392Y005720D03*
X014642Y005470D03*
X014062Y005440D03*
X014022Y005330D03*
X014012Y005310D03*
X014012Y005300D03*
X014002Y005290D03*
X014002Y005280D03*
X013982Y005210D03*
X013982Y005200D03*
X013982Y005100D03*
X014002Y005020D03*
X014002Y005010D03*
X014012Y005000D03*
X014012Y004990D03*
X014022Y004970D03*
X014062Y004860D03*
X013692Y004850D03*
X013682Y004880D03*
X013682Y004890D03*
X013672Y004900D03*
X013672Y004910D03*
X013662Y004920D03*
X013662Y004930D03*
X013662Y004940D03*
X013652Y004970D03*
X013652Y004980D03*
X013642Y005040D03*
X013642Y005050D03*
X013642Y005260D03*
X013642Y005270D03*
X013642Y005280D03*
X013652Y005320D03*
X013652Y005330D03*
X013652Y005340D03*
X013662Y005360D03*
X013662Y005370D03*
X013662Y005380D03*
X013672Y005390D03*
X013672Y005400D03*
X013682Y005420D03*
X013682Y005430D03*
X013692Y005450D03*
X013342Y005520D03*
X013342Y005530D03*
X013332Y005490D03*
X013332Y005480D03*
X013322Y005460D03*
X013312Y005430D03*
X013312Y005420D03*
X013312Y005410D03*
X013302Y005400D03*
X013302Y005390D03*
X013302Y005380D03*
X013302Y005370D03*
X013302Y005360D03*
X013292Y005330D03*
X013292Y005320D03*
X013292Y005310D03*
X013292Y005300D03*
X013292Y005290D03*
X013292Y005280D03*
X013282Y005270D03*
X013282Y005260D03*
X013282Y005250D03*
X013282Y005240D03*
X013282Y005230D03*
X013282Y005220D03*
X013282Y005210D03*
X013282Y005200D03*
X013282Y005190D03*
X013282Y005180D03*
X013282Y005170D03*
X013282Y005160D03*
X013282Y005150D03*
X013282Y005140D03*
X013282Y005130D03*
X013282Y005120D03*
X013282Y005110D03*
X013282Y005100D03*
X013282Y005090D03*
X013282Y005080D03*
X013282Y005070D03*
X013282Y005060D03*
X013282Y005050D03*
X013282Y005040D03*
X013282Y005030D03*
X013292Y004980D03*
X013292Y004970D03*
X013292Y004960D03*
X013302Y004940D03*
X013302Y004930D03*
X013302Y004920D03*
X013302Y004910D03*
X013312Y004880D03*
X013312Y004870D03*
X013332Y004810D03*
X013812Y004610D03*
X013812Y005690D03*
X013562Y005940D03*
D34*
X013812Y005790D03*
X012822Y006030D03*
X014052Y004760D03*
D35*
X014437Y005080D03*
X014437Y005090D03*
X014437Y005100D03*
X014437Y005200D03*
X014437Y005210D03*
X014437Y005220D03*
X012967Y005970D03*
X012237Y006000D03*
X012357Y006510D03*
X011227Y006510D03*
X010397Y006470D03*
X009807Y006300D03*
X011107Y006000D03*
X013757Y006180D03*
X014477Y007280D03*
X014477Y007290D03*
X014477Y007420D03*
D36*
X014472Y007410D03*
X014472Y007400D03*
X014472Y007300D03*
X013762Y006320D03*
X013762Y006310D03*
X013762Y006300D03*
X013762Y006290D03*
X013762Y006220D03*
X013762Y006210D03*
X013762Y006200D03*
X013762Y006190D03*
X012622Y006000D03*
X012622Y005990D03*
X012622Y005980D03*
X012622Y005970D03*
X012622Y005960D03*
X012622Y005950D03*
X012242Y005950D03*
X012242Y005960D03*
X012242Y005970D03*
X012242Y005980D03*
X012242Y005990D03*
X011492Y005990D03*
X011492Y006000D03*
X011492Y005980D03*
X011492Y005970D03*
X011492Y005960D03*
X011492Y005950D03*
X011112Y005950D03*
X011112Y005960D03*
X011112Y005970D03*
X011112Y005980D03*
X011112Y005990D03*
X010632Y005700D03*
X010402Y006480D03*
X009972Y006420D03*
X014442Y005190D03*
X014442Y005120D03*
X014442Y005110D03*
D37*
X014437Y005130D03*
X014437Y005170D03*
X014437Y005180D03*
X012967Y005980D03*
X012967Y005990D03*
X011867Y006000D03*
X010617Y006190D03*
X010597Y006530D03*
X010407Y006490D03*
X009957Y006410D03*
X009817Y006310D03*
X009857Y006770D03*
X009187Y006530D03*
X009197Y005970D03*
X014477Y007310D03*
X014477Y007320D03*
X014477Y007330D03*
X014477Y007380D03*
X014477Y007390D03*
D38*
X014472Y007370D03*
X014472Y007360D03*
X013762Y006280D03*
X013762Y006270D03*
X013762Y006240D03*
X013762Y006230D03*
X012972Y006010D03*
X012972Y006000D03*
X012362Y006500D03*
X011862Y005990D03*
X011862Y005980D03*
X011862Y005970D03*
X011862Y005960D03*
X011862Y005950D03*
X011232Y006500D03*
X010612Y006040D03*
X009942Y006400D03*
X009832Y006320D03*
X014432Y005160D03*
X014442Y005140D03*
D39*
X014437Y005150D03*
X012977Y006020D03*
X013757Y006250D03*
X013757Y006260D03*
X014477Y007340D03*
X014477Y007350D03*
X010617Y006200D03*
X010487Y005960D03*
X009857Y006340D03*
X009847Y006330D03*
X009927Y006390D03*
X010417Y006500D03*
D40*
X013562Y006030D03*
X014152Y005870D03*
X014642Y005380D03*
X013602Y006470D03*
X013842Y006720D03*
X014392Y006890D03*
X013842Y007980D03*
X013602Y008230D03*
D41*
X013602Y008220D03*
X013842Y007970D03*
X014392Y006880D03*
X013842Y006730D03*
X013602Y006480D03*
X013562Y006020D03*
X014152Y005880D03*
X014052Y005530D03*
X014642Y005390D03*
X011862Y006660D03*
X011862Y006830D03*
D42*
X011832Y006550D03*
X013032Y006670D03*
X013032Y006680D03*
X013602Y006490D03*
X013762Y006410D03*
X013842Y006740D03*
X014392Y006870D03*
X013562Y006010D03*
X014152Y005890D03*
X014052Y005520D03*
X014642Y005400D03*
X010702Y006120D03*
X010692Y006140D03*
X009692Y006550D03*
X013602Y008210D03*
X013842Y007960D03*
D43*
X013842Y007950D03*
X013602Y008200D03*
X014472Y007200D03*
X014392Y006860D03*
X013842Y006750D03*
X013602Y006500D03*
X013042Y006630D03*
X013042Y006640D03*
X012592Y006850D03*
X011862Y006820D03*
X011862Y006670D03*
X011462Y006550D03*
X010712Y006100D03*
X010132Y006140D03*
X010132Y006150D03*
X010132Y006160D03*
X010132Y006170D03*
X010132Y006180D03*
X010132Y006190D03*
X009692Y006560D03*
X009692Y006570D03*
X009692Y006580D03*
X009692Y006590D03*
X009692Y006600D03*
X009692Y006610D03*
X008152Y006610D03*
X008152Y006620D03*
X008152Y006630D03*
X008152Y006640D03*
X008152Y006600D03*
X008152Y006590D03*
X008152Y006140D03*
X008152Y006130D03*
X008152Y006120D03*
X008152Y006110D03*
X008152Y006100D03*
X013562Y006000D03*
X014152Y005900D03*
X014052Y005510D03*
X014642Y005410D03*
D44*
X014642Y005420D03*
X013562Y005990D03*
X013762Y006400D03*
X013602Y006510D03*
X013842Y006760D03*
X014142Y006600D03*
X014392Y006850D03*
X014092Y007010D03*
X014092Y007690D03*
X013842Y007940D03*
X013602Y008190D03*
X011862Y006810D03*
X011862Y006680D03*
X013052Y006600D03*
X013052Y006590D03*
X010712Y006080D03*
X010602Y006560D03*
X010122Y006050D03*
X010122Y006040D03*
X009702Y006680D03*
X008162Y006690D03*
X008162Y006040D03*
D45*
X014057Y005540D03*
X014397Y005620D03*
X014087Y006960D03*
X014637Y007140D03*
X014087Y007740D03*
D46*
X010597Y006030D03*
X010627Y005710D03*
X009187Y006520D03*
X008337Y006770D03*
X008337Y005960D03*
D47*
X009192Y005990D03*
X009192Y006510D03*
X010582Y006020D03*
X010622Y005720D03*
D48*
X010622Y005730D03*
X010552Y005990D03*
X009852Y006740D03*
D49*
X009867Y006720D03*
X009957Y005990D03*
X010617Y005740D03*
D50*
X009962Y005960D03*
X009872Y006350D03*
X009882Y006360D03*
X009902Y006370D03*
X009912Y006380D03*
X009192Y005980D03*
D51*
X008342Y005990D03*
X009942Y006010D03*
X010562Y005970D03*
D52*
X009967Y005970D03*
X013007Y006510D03*
D53*
X013017Y006500D03*
X013017Y006490D03*
X013017Y006480D03*
X013017Y006470D03*
X013017Y006460D03*
X010567Y006000D03*
X008337Y005970D03*
D54*
X009857Y006730D03*
X009967Y005980D03*
X010547Y005980D03*
D55*
X008332Y005980D03*
X008332Y006750D03*
D56*
X008337Y006740D03*
X009947Y006000D03*
D57*
X010572Y006010D03*
X009852Y006750D03*
X009192Y006500D03*
X008332Y006760D03*
X009192Y006000D03*
D58*
X008347Y006000D03*
X008347Y006730D03*
X012447Y006490D03*
D59*
X012437Y006460D03*
X008357Y006720D03*
X008357Y006010D03*
D60*
X010617Y006210D03*
X012997Y006520D03*
D61*
X011347Y006460D03*
D62*
X012442Y006470D03*
X012442Y006480D03*
D63*
X011352Y006480D03*
X011352Y006470D03*
D64*
X011357Y006490D03*
D65*
X010517Y006510D03*
D66*
X010512Y006520D03*
D67*
X009852Y006760D03*
D68*
X013847Y007990D03*
M02*
