G75*
%MOIN*%
%OFA0B0*%
%FSLAX24Y24*%
%IPPOS*%
%LPD*%
%AMOC8*
5,1,8,0,0,1.08239X$1,22.5*
%
%ADD10R,0.0800X0.0800*%
%ADD11C,0.0800*%
%ADD12OC8,0.0700*%
%ADD13R,0.0740X0.0740*%
%ADD14C,0.0740*%
%ADD15C,0.0100*%
%ADD16C,0.0160*%
%ADD17C,0.0320*%
%ADD18C,0.0340*%
%ADD19C,0.0240*%
%ADD20C,0.0070*%
D10*
X001557Y007250D03*
D11*
X001557Y005872D03*
X001557Y004494D03*
X001557Y003116D03*
D12*
X005757Y000650D03*
X006757Y000650D03*
X007757Y000650D03*
X008757Y000650D03*
X009757Y000650D03*
X010757Y000650D03*
X011757Y000650D03*
X012757Y000650D03*
X013757Y000650D03*
X014757Y000650D03*
X015757Y000650D03*
X016757Y000650D03*
X017757Y001650D03*
X017757Y002650D03*
X017757Y003650D03*
X017757Y004650D03*
X017757Y005650D03*
X017757Y006650D03*
X017757Y007650D03*
X017757Y008650D03*
X016757Y009650D03*
X015757Y009650D03*
X014757Y009650D03*
X013757Y009650D03*
X012757Y009650D03*
X011757Y009650D03*
X010757Y009650D03*
X009757Y009650D03*
X008757Y009650D03*
X007757Y009650D03*
X006757Y009650D03*
X005757Y009650D03*
D13*
X002557Y006750D03*
D14*
X002557Y005750D03*
X002557Y004750D03*
X002557Y003750D03*
D15*
X004657Y003750D02*
X007174Y003750D01*
X007257Y003667D01*
X007257Y001550D01*
X005562Y001550D01*
X005529Y001631D01*
X005439Y001721D01*
X005321Y001770D01*
X005194Y001770D01*
X005076Y001721D01*
X004986Y001631D01*
X004937Y001514D01*
X004937Y001386D01*
X004986Y001269D01*
X005076Y001179D01*
X005194Y001130D01*
X005321Y001130D01*
X005369Y001150D01*
X007440Y001150D01*
X008145Y001150D01*
X008157Y001145D02*
X008157Y000957D01*
X008164Y000950D02*
X008350Y000950D01*
X008357Y000957D02*
X008357Y001145D01*
X008369Y001150D02*
X009674Y001150D01*
X009550Y001150D01*
X009257Y000857D01*
X008964Y001150D01*
X008550Y001150D01*
X008257Y000857D01*
X007964Y001150D01*
X007550Y001150D01*
X007257Y000857D01*
X006964Y001150D01*
X006550Y001150D01*
X006257Y000857D01*
X005964Y001150D01*
X005550Y001150D01*
X005257Y000857D01*
X005257Y001130D01*
X005157Y001145D02*
X005157Y000300D01*
X005057Y000300D02*
X005057Y001197D01*
X005005Y001250D02*
X004657Y001250D01*
X004657Y001150D02*
X005145Y001150D01*
X004957Y001338D02*
X004957Y000300D01*
X004857Y000300D02*
X004857Y006380D01*
X004757Y006380D02*
X004757Y000300D01*
X004657Y000300D02*
X004657Y006380D01*
X007165Y006380D01*
X007137Y006314D01*
X007137Y006186D01*
X007186Y006069D01*
X007276Y005979D01*
X007394Y005930D01*
X007521Y005930D01*
X007639Y005979D01*
X007640Y005980D01*
X008165Y005980D01*
X008137Y005914D01*
X008137Y005786D01*
X008186Y005669D01*
X008276Y005579D01*
X008351Y005548D01*
X008337Y005514D01*
X008337Y005386D01*
X008386Y005269D01*
X008476Y005179D01*
X008594Y005130D01*
X008616Y005130D01*
X008681Y005065D01*
X010072Y005065D01*
X010072Y004773D01*
X010181Y004665D01*
X010281Y004565D01*
X011781Y004565D01*
X011837Y004508D01*
X011837Y004486D01*
X011886Y004369D01*
X011976Y004279D01*
X012094Y004230D01*
X012221Y004230D01*
X012305Y004265D01*
X012434Y004265D01*
X012542Y004373D01*
X012572Y004403D01*
X012586Y004369D01*
X012676Y004279D01*
X012794Y004230D01*
X012921Y004230D01*
X013039Y004279D01*
X013125Y004365D01*
X015590Y004365D01*
X015676Y004279D01*
X015794Y004230D01*
X015921Y004230D01*
X015987Y004257D01*
X015987Y003543D01*
X015921Y003570D01*
X015794Y003570D01*
X015676Y003521D01*
X015586Y003431D01*
X015537Y003314D01*
X015537Y003186D01*
X015586Y003069D01*
X015676Y002979D01*
X015794Y002930D01*
X015921Y002930D01*
X016039Y002979D01*
X016040Y002980D01*
X016311Y002980D01*
X016387Y003012D01*
X016387Y002233D01*
X016386Y002231D01*
X016337Y002114D01*
X016337Y001986D01*
X016386Y001869D01*
X016476Y001779D01*
X016594Y001730D01*
X016721Y001730D01*
X016839Y001779D01*
X016929Y001869D01*
X016977Y001986D01*
X016977Y002114D01*
X016929Y002231D01*
X016927Y002233D01*
X016927Y005767D01*
X016929Y005769D01*
X016977Y005886D01*
X016977Y006014D01*
X016929Y006131D01*
X016839Y006221D01*
X016721Y006270D01*
X016594Y006270D01*
X016527Y006243D01*
X016527Y006604D01*
X016486Y006703D01*
X016386Y006803D01*
X016310Y006879D01*
X016211Y006920D01*
X015840Y006920D01*
X015839Y006921D01*
X015721Y006970D01*
X015594Y006970D01*
X015476Y006921D01*
X015475Y006920D01*
X015050Y006920D01*
X015077Y006986D01*
X015077Y007114D01*
X015029Y007231D01*
X014942Y007318D01*
X014942Y007527D01*
X014834Y007635D01*
X014695Y007635D01*
X014725Y007665D01*
X015390Y007665D01*
X015476Y007579D01*
X015594Y007530D01*
X015721Y007530D01*
X015839Y007579D01*
X015929Y007669D01*
X015977Y007786D01*
X015977Y007914D01*
X015929Y008031D01*
X015839Y008121D01*
X015721Y008170D01*
X015594Y008170D01*
X015476Y008121D01*
X015390Y008035D01*
X014725Y008035D01*
X014639Y008121D01*
X014521Y008170D01*
X014394Y008170D01*
X014276Y008121D01*
X014186Y008031D01*
X014143Y007926D01*
X014042Y008027D01*
X013934Y008135D01*
X013825Y008135D01*
X013739Y008221D01*
X013621Y008270D01*
X013494Y008270D01*
X013376Y008221D01*
X013286Y008131D01*
X013237Y008014D01*
X013237Y007886D01*
X013259Y007835D01*
X012881Y007835D01*
X012772Y007727D01*
X012581Y007535D01*
X011556Y007535D01*
X011577Y007586D01*
X011577Y007714D01*
X011529Y007831D01*
X011485Y007875D01*
X011594Y007830D01*
X011721Y007830D01*
X011839Y007879D01*
X011925Y007965D01*
X012190Y007965D01*
X012276Y007879D01*
X012394Y007830D01*
X012521Y007830D01*
X012639Y007879D01*
X012729Y007969D01*
X012777Y008086D01*
X012777Y008214D01*
X012729Y008331D01*
X012680Y008380D01*
X016165Y008380D01*
X016137Y008314D01*
X016137Y008186D01*
X016186Y008069D01*
X016276Y007979D01*
X016394Y007930D01*
X016521Y007930D01*
X016639Y007979D01*
X016729Y008069D01*
X016777Y008186D01*
X016777Y008314D01*
X016729Y008431D01*
X016727Y008433D01*
X016727Y008704D01*
X016686Y008803D01*
X016610Y008879D01*
X016511Y008920D01*
X015996Y008920D01*
X016027Y008996D01*
X016027Y009213D01*
X016257Y009443D01*
X016257Y009857D01*
X016114Y010000D01*
X016443Y010000D01*
X016287Y009845D01*
X016287Y009700D01*
X016707Y009700D01*
X016707Y009600D01*
X016287Y009600D01*
X016287Y009455D01*
X016563Y009180D01*
X016707Y009180D01*
X016707Y009600D01*
X016807Y009600D01*
X016807Y009180D01*
X016952Y009180D01*
X017227Y009455D01*
X017227Y009600D01*
X016807Y009600D01*
X016807Y009700D01*
X017227Y009700D01*
X017227Y009845D01*
X017072Y010000D01*
X017995Y010000D01*
X018107Y009888D01*
X018107Y008965D01*
X017952Y009120D01*
X017807Y009120D01*
X017807Y008700D01*
X017707Y008700D01*
X017707Y008600D01*
X017287Y008600D01*
X017287Y008455D01*
X017563Y008180D01*
X017707Y008180D01*
X017707Y008600D01*
X017807Y008600D01*
X017807Y008180D01*
X017952Y008180D01*
X018107Y008335D01*
X018107Y007965D01*
X017952Y008120D01*
X017807Y008120D01*
X017807Y007700D01*
X017707Y007700D01*
X017707Y007600D01*
X017287Y007600D01*
X017287Y007455D01*
X017563Y007180D01*
X017707Y007180D01*
X017707Y007600D01*
X017807Y007600D01*
X017807Y007180D01*
X017952Y007180D01*
X018107Y007335D01*
X018107Y007007D01*
X017964Y007150D01*
X017550Y007150D01*
X017257Y006857D01*
X017257Y010000D01*
X017157Y010000D02*
X017157Y009915D01*
X017122Y009950D02*
X018045Y009950D01*
X018057Y009938D02*
X018057Y009015D01*
X018022Y009050D02*
X018107Y009050D01*
X018107Y009150D02*
X016027Y009150D01*
X016057Y009243D02*
X016057Y008920D01*
X016008Y008950D02*
X017393Y008950D01*
X017357Y008915D02*
X017357Y010000D01*
X017457Y010000D02*
X017457Y009015D01*
X017493Y009050D02*
X016027Y009050D01*
X016157Y008920D02*
X016157Y009343D01*
X016164Y009350D02*
X016393Y009350D01*
X016357Y009385D02*
X016357Y008920D01*
X016257Y008920D02*
X016257Y010000D01*
X016157Y010000D02*
X016157Y009957D01*
X016164Y009950D02*
X016393Y009950D01*
X016357Y009915D02*
X016357Y010000D01*
X016293Y009850D02*
X016257Y009850D01*
X016257Y009750D02*
X016287Y009750D01*
X016357Y009700D02*
X016357Y009600D01*
X016287Y009550D02*
X016257Y009550D01*
X016257Y009450D02*
X016293Y009450D01*
X016457Y009285D02*
X016457Y008920D01*
X016557Y008901D02*
X016557Y009185D01*
X016493Y009250D02*
X016064Y009250D01*
X016657Y009180D02*
X016657Y008832D01*
X016639Y008850D02*
X017293Y008850D01*
X017287Y008845D02*
X017287Y008700D01*
X017707Y008700D01*
X017707Y009120D01*
X017563Y009120D01*
X017287Y008845D01*
X017287Y008750D02*
X016708Y008750D01*
X016727Y008650D02*
X017707Y008650D01*
X017657Y008600D02*
X017657Y008700D01*
X017707Y008750D02*
X017807Y008750D01*
X017757Y008700D02*
X017757Y010000D01*
X017657Y010000D02*
X017657Y009120D01*
X017707Y009050D02*
X017807Y009050D01*
X017857Y009120D02*
X017857Y010000D01*
X017957Y010000D02*
X017957Y009115D01*
X018107Y009250D02*
X017022Y009250D01*
X017057Y009285D02*
X017057Y001015D01*
X017022Y001050D02*
X018107Y001050D01*
X018107Y001150D02*
X017964Y001150D01*
X018107Y001293D01*
X018107Y000412D01*
X017995Y000300D01*
X017072Y000300D01*
X017227Y000455D01*
X017227Y000600D01*
X016807Y000600D01*
X016807Y000700D01*
X016707Y000700D01*
X016707Y000600D01*
X016287Y000600D01*
X016287Y000455D01*
X016443Y000300D01*
X016114Y000300D01*
X016257Y000443D01*
X016257Y000857D01*
X015964Y001150D01*
X015550Y001150D01*
X015257Y000857D01*
X014964Y001150D01*
X014550Y001150D01*
X014257Y000857D01*
X014184Y000930D01*
X014221Y000930D01*
X014339Y000979D01*
X014429Y001069D01*
X014477Y001186D01*
X014477Y001314D01*
X014429Y001431D01*
X014357Y001503D01*
X014357Y003133D01*
X014240Y003250D01*
X015537Y003250D01*
X015552Y003150D02*
X014340Y003150D01*
X014357Y003050D02*
X015605Y003050D01*
X015657Y002997D02*
X015657Y001150D01*
X015557Y001150D02*
X015557Y003138D01*
X015552Y003350D02*
X013477Y003350D01*
X013477Y003414D01*
X013466Y003442D01*
X013494Y003430D01*
X013621Y003430D01*
X013739Y003479D01*
X013829Y003569D01*
X013877Y003686D01*
X013877Y003814D01*
X013829Y003931D01*
X013739Y004021D01*
X013621Y004070D01*
X013494Y004070D01*
X013376Y004021D01*
X013375Y004020D01*
X010733Y004020D01*
X010729Y004031D01*
X010639Y004121D01*
X010521Y004170D01*
X010394Y004170D01*
X010276Y004121D01*
X010186Y004031D01*
X010137Y003914D01*
X010137Y003786D01*
X010186Y003669D01*
X010276Y003579D01*
X010394Y003530D01*
X010395Y003530D01*
X010404Y003521D01*
X010504Y003480D01*
X012865Y003480D01*
X012837Y003414D01*
X012837Y003313D01*
X012742Y003218D01*
X012739Y003221D01*
X012621Y003270D01*
X012494Y003270D01*
X012376Y003221D01*
X012286Y003131D01*
X012237Y003014D01*
X012237Y002886D01*
X012286Y002769D01*
X012372Y002682D01*
X012372Y002335D01*
X009642Y002335D01*
X009642Y003652D01*
X009657Y003667D01*
X009657Y003833D01*
X009540Y003950D01*
X009169Y003950D01*
X009239Y003979D01*
X009329Y004069D01*
X009377Y004186D01*
X009377Y004314D01*
X009329Y004431D01*
X009239Y004521D01*
X009121Y004570D01*
X008994Y004570D01*
X008963Y004557D01*
X008939Y004614D01*
X008849Y004704D01*
X008732Y004753D01*
X008604Y004753D01*
X008487Y004704D01*
X008433Y004650D01*
X004657Y004650D01*
X004657Y004550D02*
X007174Y004550D01*
X007157Y004533D02*
X007157Y006138D01*
X007152Y006150D02*
X004657Y006150D01*
X004657Y006050D02*
X007205Y006050D01*
X007257Y005997D02*
X007257Y004633D01*
X007274Y004650D02*
X007157Y004533D01*
X007057Y004433D01*
X007057Y006380D01*
X006957Y006380D02*
X006957Y001550D01*
X006857Y001550D02*
X006857Y006380D01*
X006757Y006380D02*
X006757Y001550D01*
X006657Y001550D02*
X006657Y006380D01*
X006557Y006380D02*
X006557Y001550D01*
X006457Y001550D02*
X006457Y006380D01*
X006357Y006380D02*
X006357Y001550D01*
X006257Y001550D02*
X006257Y006380D01*
X006157Y006380D02*
X006157Y001550D01*
X006057Y001550D02*
X006057Y006380D01*
X005957Y006380D02*
X005957Y001550D01*
X005857Y001550D02*
X005857Y006380D01*
X005757Y006380D02*
X005757Y001550D01*
X005657Y001550D02*
X005657Y006380D01*
X005557Y006380D02*
X005557Y001562D01*
X005562Y001550D02*
X007257Y001550D01*
X007157Y001550D02*
X007157Y003767D01*
X007174Y003750D02*
X007057Y003867D01*
X007057Y001550D01*
X007257Y001650D02*
X005510Y001650D01*
X005457Y001703D02*
X005457Y006380D01*
X005357Y006380D02*
X005357Y001755D01*
X005369Y001750D02*
X007257Y001750D01*
X007257Y001850D02*
X004657Y001850D01*
X004657Y001750D02*
X005145Y001750D01*
X005157Y001755D02*
X005157Y006380D01*
X005057Y006380D02*
X005057Y001703D01*
X005005Y001650D02*
X004657Y001650D01*
X004657Y001550D02*
X004952Y001550D01*
X004957Y001562D02*
X004957Y006380D01*
X004657Y006380D02*
X004657Y000300D01*
X005400Y000300D01*
X005257Y000443D01*
X005257Y000300D01*
X005357Y000300D02*
X005357Y000343D01*
X005350Y000350D02*
X004657Y000350D01*
X004657Y000450D02*
X005257Y000450D01*
X005257Y000443D02*
X005257Y000857D01*
X005257Y000850D02*
X004657Y000850D01*
X004657Y000750D02*
X005257Y000750D01*
X005257Y000650D02*
X004657Y000650D01*
X004657Y000550D02*
X005257Y000550D01*
X005350Y000950D02*
X004657Y000950D01*
X004657Y001050D02*
X005450Y001050D01*
X005457Y001057D02*
X005457Y001150D01*
X005357Y001145D02*
X005357Y000957D01*
X005557Y001150D02*
X005557Y001150D01*
X005657Y001150D02*
X005657Y001150D01*
X005757Y001150D02*
X005757Y001150D01*
X005857Y001150D02*
X005857Y001150D01*
X005957Y001150D02*
X005957Y001150D01*
X006057Y001150D02*
X006057Y001057D01*
X006064Y001050D02*
X006450Y001050D01*
X006457Y001057D02*
X006457Y001150D01*
X006357Y001150D02*
X006357Y000957D01*
X006350Y000950D02*
X006164Y000950D01*
X006157Y000957D02*
X006157Y001150D01*
X006257Y001150D02*
X006257Y000857D01*
X006257Y000443D01*
X006114Y000300D01*
X006400Y000300D01*
X006257Y000443D01*
X006257Y000300D01*
X006157Y000300D02*
X006157Y000343D01*
X006164Y000350D02*
X006350Y000350D01*
X006357Y000343D02*
X006357Y000300D01*
X006257Y000443D02*
X006257Y000857D01*
X006257Y000850D02*
X006257Y000850D01*
X006257Y000750D02*
X006257Y000750D01*
X006257Y000650D02*
X006257Y000650D01*
X006257Y000550D02*
X006257Y000550D01*
X006257Y000450D02*
X006257Y000450D01*
X007114Y000300D02*
X007257Y000443D01*
X007257Y000857D01*
X007257Y001150D01*
X007157Y001150D02*
X007157Y000957D01*
X007164Y000950D02*
X007350Y000950D01*
X007357Y000957D02*
X007357Y001150D01*
X007440Y001150D02*
X007557Y001267D01*
X007639Y001348D01*
X007674Y001312D01*
X007968Y001312D01*
X007986Y001269D01*
X008076Y001179D01*
X008194Y001130D01*
X008321Y001130D01*
X008439Y001179D01*
X008529Y001269D01*
X008577Y001386D01*
X008577Y001514D01*
X008529Y001631D01*
X008439Y001721D01*
X008321Y001770D01*
X008194Y001770D01*
X008076Y001721D01*
X008067Y001712D01*
X007957Y001712D01*
X007957Y002747D01*
X008240Y003030D01*
X008505Y003030D01*
X008576Y002959D01*
X008694Y002910D01*
X008821Y002910D01*
X008939Y002959D01*
X008957Y002977D01*
X008957Y002283D01*
X008939Y002301D01*
X008821Y002350D01*
X008694Y002350D01*
X008576Y002301D01*
X008486Y002211D01*
X008437Y002094D01*
X008437Y001966D01*
X008486Y001849D01*
X008557Y001777D01*
X008557Y001567D01*
X008557Y001562D01*
X008557Y001567D02*
X008757Y001367D01*
X008757Y001150D01*
X008657Y001150D02*
X008657Y001467D01*
X008674Y001450D02*
X008577Y001450D01*
X008574Y001550D02*
X008562Y001550D01*
X008557Y001650D02*
X008510Y001650D01*
X008457Y001703D02*
X008457Y001918D01*
X008444Y001950D02*
X007957Y001950D01*
X007957Y001850D02*
X008486Y001850D01*
X008557Y001750D02*
X008369Y001750D01*
X008357Y001755D02*
X008357Y003030D01*
X008257Y003030D02*
X008257Y001770D01*
X008157Y001755D02*
X008157Y002947D01*
X008160Y002950D02*
X008597Y002950D01*
X008557Y002977D02*
X008557Y002283D01*
X008525Y002250D02*
X007957Y002250D01*
X007957Y002150D02*
X008461Y002150D01*
X008457Y002142D02*
X008457Y003030D01*
X008657Y002925D02*
X008657Y002335D01*
X008757Y002350D02*
X008757Y002910D01*
X008857Y002925D02*
X008857Y002335D01*
X008957Y002350D02*
X007957Y002350D01*
X007957Y002450D02*
X008957Y002450D01*
X008957Y002550D02*
X007957Y002550D01*
X007957Y002650D02*
X008957Y002650D01*
X008957Y002750D02*
X007960Y002750D01*
X007957Y002747D02*
X007957Y001712D01*
X007957Y001750D02*
X008145Y001750D01*
X008057Y001712D02*
X008057Y002847D01*
X008060Y002850D02*
X008957Y002850D01*
X008957Y002950D02*
X008918Y002950D01*
X009157Y003130D02*
X009057Y003230D01*
X008757Y003230D01*
X008157Y003230D01*
X007757Y002830D01*
X007757Y001512D01*
X008195Y001512D01*
X008257Y001450D01*
X008557Y001338D02*
X008557Y001150D01*
X008457Y001197D02*
X008457Y001057D01*
X008450Y001050D02*
X008064Y001050D01*
X008057Y001057D02*
X008057Y001197D01*
X008005Y001250D02*
X007540Y001250D01*
X007557Y001267D02*
X007557Y001150D01*
X007657Y001150D02*
X007657Y001330D01*
X007757Y001312D02*
X007757Y001150D01*
X007857Y001150D02*
X007857Y001312D01*
X007957Y001312D02*
X007957Y001150D01*
X008257Y001130D02*
X008257Y000857D01*
X008257Y000443D01*
X008114Y000300D01*
X008400Y000300D01*
X008257Y000443D01*
X008257Y000300D01*
X008157Y000300D02*
X008157Y000343D01*
X008164Y000350D02*
X008350Y000350D01*
X008357Y000343D02*
X008357Y000300D01*
X008257Y000443D02*
X008257Y000857D01*
X008257Y000850D02*
X008257Y000850D01*
X008257Y000750D02*
X008257Y000750D01*
X008257Y000650D02*
X008257Y000650D01*
X008257Y000550D02*
X008257Y000550D01*
X008257Y000450D02*
X008257Y000450D01*
X007400Y000300D02*
X007114Y000300D01*
X007157Y000300D02*
X007157Y000343D01*
X007164Y000350D02*
X007350Y000350D01*
X007357Y000343D02*
X007357Y000300D01*
X007400Y000300D02*
X007257Y000443D01*
X007257Y000300D01*
X007257Y000443D02*
X007257Y000857D01*
X007257Y000850D02*
X007257Y000850D01*
X007257Y000750D02*
X007257Y000750D01*
X007257Y000650D02*
X007257Y000650D01*
X007257Y000550D02*
X007257Y000550D01*
X007257Y000450D02*
X007257Y000450D01*
X007064Y001050D02*
X007450Y001050D01*
X007457Y001057D02*
X007457Y001167D01*
X007357Y001350D02*
X005357Y001350D01*
X005257Y001450D01*
X004937Y001450D02*
X004657Y001450D01*
X004657Y001350D02*
X004952Y001350D01*
X005257Y001770D02*
X005257Y006380D01*
X004657Y006350D02*
X007152Y006350D01*
X007157Y006362D02*
X007157Y006380D01*
X007137Y006250D02*
X004657Y006250D01*
X004657Y005950D02*
X007345Y005950D01*
X007357Y005945D02*
X007357Y004650D01*
X007274Y004650D02*
X008433Y004650D01*
X008457Y004675D02*
X008457Y005197D01*
X008405Y005250D02*
X004657Y005250D01*
X004657Y005150D02*
X008545Y005150D01*
X008557Y005145D02*
X008557Y004733D01*
X008598Y004750D02*
X004657Y004750D01*
X004657Y004850D02*
X010072Y004850D01*
X010072Y004950D02*
X004657Y004950D01*
X004657Y005050D02*
X010072Y005050D01*
X010057Y005065D02*
X010057Y002335D01*
X009957Y002335D02*
X009957Y005065D01*
X009857Y005065D02*
X009857Y002335D01*
X009757Y002335D02*
X009757Y005065D01*
X009657Y005065D02*
X009657Y002335D01*
X009642Y002350D02*
X012372Y002350D01*
X012357Y002335D02*
X012357Y002697D01*
X012372Y002650D02*
X009642Y002650D01*
X009642Y002550D02*
X012372Y002550D01*
X012372Y002450D02*
X009642Y002450D01*
X009642Y002750D02*
X012305Y002750D01*
X012257Y002838D02*
X012257Y002335D01*
X012157Y002335D02*
X012157Y003480D01*
X012057Y003480D02*
X012057Y002335D01*
X011957Y002335D02*
X011957Y003480D01*
X011857Y003480D02*
X011857Y002335D01*
X011757Y002335D02*
X011757Y003480D01*
X011657Y003480D02*
X011657Y002335D01*
X011557Y002335D02*
X011557Y003480D01*
X011457Y003480D02*
X011457Y002335D01*
X011357Y002335D02*
X011357Y003480D01*
X011257Y003480D02*
X011257Y002335D01*
X011157Y002335D02*
X011157Y003480D01*
X011057Y003480D02*
X011057Y002335D01*
X010957Y002335D02*
X010957Y003480D01*
X010857Y003480D02*
X010857Y002335D01*
X010757Y002335D02*
X010757Y003480D01*
X010657Y003480D02*
X010657Y002335D01*
X010557Y002335D02*
X010557Y003480D01*
X010457Y003499D02*
X010457Y002335D01*
X010357Y002335D02*
X010357Y003545D01*
X010345Y003550D02*
X009642Y003550D01*
X009642Y003450D02*
X012852Y003450D01*
X012857Y003462D02*
X012857Y003480D01*
X012757Y003480D02*
X012757Y003233D01*
X012774Y003250D02*
X012669Y003250D01*
X012657Y003255D02*
X012657Y003480D01*
X012557Y003480D02*
X012557Y003270D01*
X012457Y003255D02*
X012457Y003480D01*
X012357Y003480D02*
X012357Y003203D01*
X012305Y003150D02*
X009642Y003150D01*
X009642Y003050D02*
X012252Y003050D01*
X012257Y003062D02*
X012257Y003480D01*
X012445Y003250D02*
X009642Y003250D01*
X009642Y003350D02*
X012837Y003350D01*
X012857Y003050D02*
X013157Y003350D01*
X013477Y003350D02*
X014140Y003350D01*
X014240Y003250D01*
X014257Y003233D02*
X014257Y004365D01*
X014157Y004365D02*
X014157Y003333D01*
X014057Y003350D02*
X014057Y004365D01*
X013957Y004365D02*
X013957Y003350D01*
X013857Y003350D02*
X013857Y003638D01*
X013862Y003650D02*
X015987Y003650D01*
X015957Y003555D02*
X015957Y004245D01*
X015969Y004250D02*
X015987Y004250D01*
X015987Y004150D02*
X010569Y004150D01*
X010557Y004155D02*
X010557Y004565D01*
X010457Y004565D02*
X010457Y004170D01*
X010357Y004155D02*
X010357Y004565D01*
X010257Y004588D02*
X010257Y004103D01*
X010205Y004050D02*
X009310Y004050D01*
X009257Y003997D02*
X009257Y003950D01*
X009169Y003950D02*
X010152Y003950D01*
X010157Y003962D02*
X010157Y004688D01*
X010181Y004665D02*
X010181Y004665D01*
X010196Y004650D02*
X008903Y004650D01*
X008857Y004696D02*
X008857Y005065D01*
X008757Y005065D02*
X008757Y004742D01*
X008738Y004750D02*
X010096Y004750D01*
X010657Y004565D02*
X010657Y004103D01*
X010710Y004050D02*
X013445Y004050D01*
X013457Y004055D02*
X013457Y004365D01*
X013357Y004365D02*
X013357Y004020D01*
X013257Y004020D02*
X013257Y004365D01*
X013157Y004365D02*
X013157Y004020D01*
X013057Y004020D02*
X013057Y004297D01*
X013110Y004350D02*
X015605Y004350D01*
X015557Y004365D02*
X015557Y003362D01*
X015605Y003450D02*
X013669Y003450D01*
X013657Y003445D02*
X013657Y003350D01*
X013557Y003350D02*
X013557Y003430D01*
X013757Y003497D02*
X013757Y003350D01*
X013810Y003550D02*
X015745Y003550D01*
X015757Y003555D02*
X015757Y004245D01*
X015745Y004250D02*
X012969Y004250D01*
X012957Y004245D02*
X012957Y004020D01*
X012857Y004020D02*
X012857Y004230D01*
X012757Y004245D02*
X012757Y004020D01*
X012657Y004020D02*
X012657Y004297D01*
X012605Y004350D02*
X012519Y004350D01*
X012557Y004388D02*
X012557Y004020D01*
X012457Y004020D02*
X012457Y004288D01*
X012357Y004265D02*
X012357Y004020D01*
X012257Y004020D02*
X012257Y004245D01*
X012269Y004250D02*
X012745Y004250D01*
X012157Y004230D02*
X012157Y004020D01*
X012057Y004020D02*
X012057Y004245D01*
X012045Y004250D02*
X009377Y004250D01*
X009362Y004150D02*
X010345Y004150D01*
X010757Y004020D02*
X010757Y004565D01*
X010857Y004565D02*
X010857Y004020D01*
X010957Y004020D02*
X010957Y004565D01*
X011057Y004565D02*
X011057Y004020D01*
X011157Y004020D02*
X011157Y004565D01*
X011257Y004565D02*
X011257Y004020D01*
X011357Y004020D02*
X011357Y004565D01*
X011457Y004565D02*
X011457Y004020D01*
X011557Y004020D02*
X011557Y004565D01*
X011657Y004565D02*
X011657Y004020D01*
X011757Y004020D02*
X011757Y004565D01*
X011796Y004550D02*
X009169Y004550D01*
X009157Y004555D02*
X009157Y005065D01*
X009057Y005065D02*
X009057Y004570D01*
X008957Y004570D02*
X008957Y005065D01*
X008657Y005088D02*
X008657Y004753D01*
X008357Y004650D02*
X008357Y005338D01*
X008352Y005350D02*
X004657Y005350D01*
X004657Y005450D02*
X008337Y005450D01*
X008345Y005550D02*
X004657Y005550D01*
X004657Y005650D02*
X008205Y005650D01*
X008257Y005597D02*
X008257Y004650D01*
X008157Y004650D02*
X008157Y005738D01*
X008152Y005750D02*
X004657Y005750D01*
X004657Y005850D02*
X008137Y005850D01*
X008152Y005950D02*
X007569Y005950D01*
X007557Y005945D02*
X007557Y004650D01*
X007457Y004650D02*
X007457Y005930D01*
X007657Y005980D02*
X007657Y004650D01*
X007757Y004650D02*
X007757Y005980D01*
X007857Y005980D02*
X007857Y004650D01*
X007957Y004650D02*
X007957Y005980D01*
X008057Y005980D02*
X008057Y004650D01*
X008651Y004450D02*
X008668Y004433D01*
X008685Y004450D01*
X008651Y004450D02*
X007357Y004450D01*
X007257Y004350D01*
X007257Y003950D01*
X007457Y003750D01*
X009457Y003750D01*
X009657Y003750D02*
X010152Y003750D01*
X010157Y003738D02*
X010157Y002335D01*
X010257Y002335D02*
X010257Y003597D01*
X010205Y003650D02*
X009642Y003650D01*
X009640Y003850D02*
X010137Y003850D01*
X009557Y003933D02*
X009557Y005065D01*
X009457Y005065D02*
X009457Y003950D01*
X009357Y003950D02*
X009357Y004138D01*
X009362Y004350D02*
X011905Y004350D01*
X011957Y004297D02*
X011957Y004020D01*
X011857Y004020D02*
X011857Y004438D01*
X011852Y004450D02*
X009310Y004450D01*
X009257Y004503D02*
X009257Y005065D01*
X009357Y005065D02*
X009357Y004362D01*
X008945Y003950D02*
X007910Y003950D01*
X008945Y003950D01*
X008909Y003965D01*
X007925Y003965D01*
X007910Y003950D01*
X007957Y003950D02*
X007957Y003965D01*
X008057Y003965D02*
X008057Y003950D01*
X008157Y003950D02*
X008157Y003965D01*
X008257Y003965D02*
X008257Y003950D01*
X008357Y003950D02*
X008357Y003965D01*
X008457Y003965D02*
X008457Y003950D01*
X008557Y003950D02*
X008557Y003965D01*
X008657Y003965D02*
X008657Y003950D01*
X008757Y003950D02*
X008757Y003965D01*
X008857Y003965D02*
X008857Y003950D01*
X008857Y003550D02*
X008857Y003535D01*
X008821Y003550D02*
X008939Y003501D01*
X009010Y003430D01*
X009140Y003430D01*
X009257Y003313D01*
X009272Y003298D01*
X009272Y003550D01*
X007657Y003550D01*
X007657Y003013D01*
X007657Y003550D01*
X007657Y003450D02*
X008525Y003450D01*
X008505Y003430D02*
X008074Y003430D01*
X007957Y003313D01*
X007957Y003550D01*
X007857Y003550D02*
X007857Y003213D01*
X007894Y003250D02*
X007657Y003250D01*
X007657Y003150D02*
X007794Y003150D01*
X007757Y003113D02*
X007757Y003550D01*
X008057Y003550D02*
X008057Y003413D01*
X007994Y003350D02*
X007657Y003350D01*
X007957Y003313D02*
X007674Y003030D01*
X007657Y003013D01*
X007657Y003050D02*
X007694Y003050D01*
X007257Y003050D02*
X004657Y003050D01*
X004657Y002950D02*
X007257Y002950D01*
X007257Y002850D02*
X004657Y002850D01*
X004657Y002750D02*
X007257Y002750D01*
X007257Y002650D02*
X004657Y002650D01*
X004657Y002550D02*
X007257Y002550D01*
X007257Y002450D02*
X004657Y002450D01*
X004657Y002350D02*
X007257Y002350D01*
X007257Y002250D02*
X004657Y002250D01*
X004657Y002150D02*
X007257Y002150D01*
X007257Y002050D02*
X004657Y002050D01*
X004657Y001950D02*
X007257Y001950D01*
X007457Y001450D02*
X007357Y001350D01*
X007457Y001450D02*
X007457Y003750D01*
X007257Y003650D02*
X004657Y003650D01*
X004657Y003550D02*
X007257Y003550D01*
X007257Y003450D02*
X004657Y003450D01*
X004657Y003350D02*
X007257Y003350D01*
X007257Y003250D02*
X004657Y003250D01*
X004657Y003150D02*
X007257Y003150D01*
X008157Y003430D02*
X008157Y003550D01*
X008257Y003550D02*
X008257Y003430D01*
X008357Y003430D02*
X008357Y003550D01*
X008457Y003550D02*
X008457Y003430D01*
X008505Y003430D02*
X008576Y003501D01*
X008694Y003550D01*
X008821Y003550D01*
X008757Y003550D02*
X008757Y003550D01*
X008657Y003550D02*
X008657Y003535D01*
X008557Y003550D02*
X008557Y003483D01*
X008777Y003250D02*
X008757Y003230D01*
X008990Y003450D02*
X009272Y003450D01*
X009272Y003350D02*
X009220Y003350D01*
X009257Y003313D02*
X009257Y003550D01*
X009157Y003550D02*
X009157Y003413D01*
X009057Y003430D02*
X009057Y003550D01*
X008957Y003550D02*
X008957Y003483D01*
X009157Y003130D02*
X009157Y001950D01*
X009357Y001750D01*
X011357Y001750D01*
X011120Y001965D02*
X011105Y001950D01*
X009440Y001950D01*
X009425Y001965D01*
X011120Y001965D01*
X011105Y001950D02*
X009440Y001950D01*
X009457Y001950D02*
X009457Y001965D01*
X009557Y001965D02*
X009557Y001950D01*
X009657Y001950D02*
X009657Y001965D01*
X009757Y001965D02*
X009757Y001950D01*
X009857Y001950D02*
X009857Y001965D01*
X009957Y001965D02*
X009957Y001950D01*
X010057Y001950D02*
X010057Y001965D01*
X010157Y001965D02*
X010157Y001950D01*
X010257Y001950D02*
X010257Y001965D01*
X010357Y001965D02*
X010357Y001950D01*
X010457Y001950D02*
X010457Y001965D01*
X010557Y001965D02*
X010557Y001950D01*
X010657Y001950D02*
X010657Y001965D01*
X010757Y001965D02*
X010757Y001950D01*
X010857Y001950D02*
X010857Y001965D01*
X010957Y001965D02*
X010957Y001950D01*
X011057Y001950D02*
X011057Y001965D01*
X011595Y001965D02*
X012534Y001965D01*
X012642Y002073D01*
X012657Y002088D01*
X012657Y001803D01*
X012639Y001821D01*
X012521Y001870D01*
X012394Y001870D01*
X012276Y001821D01*
X012186Y001731D01*
X012137Y001614D01*
X012137Y001550D01*
X011610Y001550D01*
X011629Y001569D01*
X011677Y001686D01*
X011677Y001814D01*
X011629Y001931D01*
X011595Y001965D01*
X011610Y001950D02*
X012657Y001950D01*
X012657Y001850D02*
X012569Y001850D01*
X012557Y001855D02*
X012557Y001988D01*
X012619Y002050D02*
X012657Y002050D01*
X012457Y001965D02*
X012457Y001870D01*
X012357Y001855D02*
X012357Y001965D01*
X012257Y001965D02*
X012257Y001803D01*
X012205Y001750D02*
X011677Y001750D01*
X011662Y001650D02*
X012152Y001650D01*
X012157Y001662D02*
X012157Y001965D01*
X012057Y001965D02*
X012057Y001550D01*
X012137Y001550D02*
X011610Y001550D01*
X011657Y001550D02*
X011657Y001638D01*
X011757Y001550D02*
X011757Y001965D01*
X011657Y001965D02*
X011657Y001862D01*
X011662Y001850D02*
X012345Y001850D01*
X012457Y001550D02*
X012257Y001350D01*
X011157Y001350D01*
X011057Y001450D01*
X008957Y001450D01*
X008757Y001650D01*
X008757Y002030D01*
X008437Y002050D02*
X007957Y002050D01*
X008957Y001777D02*
X008957Y001733D01*
X009040Y001650D01*
X009174Y001650D01*
X009040Y001650D01*
X009057Y001650D02*
X009057Y001767D01*
X009074Y001750D02*
X008957Y001750D01*
X008957Y001733D02*
X008957Y001777D01*
X009002Y001822D01*
X009074Y001750D01*
X009174Y001650D01*
X009157Y001650D02*
X009157Y001667D01*
X008774Y001350D02*
X008562Y001350D01*
X008510Y001250D02*
X008874Y001250D01*
X009774Y001250D01*
X009757Y001233D01*
X009757Y001250D01*
X009757Y001233D02*
X009674Y001150D01*
X009657Y001150D02*
X009657Y001250D01*
X009557Y001250D02*
X009557Y001150D01*
X009457Y001057D02*
X009457Y001250D01*
X009357Y001250D02*
X009357Y000957D01*
X009350Y000950D02*
X009164Y000950D01*
X009157Y000957D02*
X009157Y001250D01*
X009057Y001250D02*
X009057Y001057D01*
X009064Y001050D02*
X009450Y001050D01*
X009257Y000857D02*
X009257Y001250D01*
X008957Y001250D02*
X008957Y001150D01*
X008857Y001150D02*
X008857Y001267D01*
X008874Y001250D02*
X008757Y001367D01*
X009257Y000857D02*
X009257Y000443D01*
X009114Y000300D01*
X009400Y000300D01*
X009257Y000443D01*
X009257Y000300D01*
X009157Y000300D02*
X009157Y000343D01*
X009164Y000350D02*
X009350Y000350D01*
X009357Y000343D02*
X009357Y000300D01*
X009257Y000443D02*
X009257Y000857D01*
X009257Y000850D02*
X009257Y000850D01*
X009257Y000750D02*
X009257Y000750D01*
X009257Y000650D02*
X009257Y000650D01*
X009257Y000550D02*
X009257Y000550D01*
X009257Y000450D02*
X009257Y000450D01*
X009757Y000650D02*
X009757Y000950D01*
X009957Y001150D01*
X012557Y001150D01*
X012857Y001450D01*
X012857Y003050D01*
X013257Y002950D02*
X013257Y002850D01*
X013257Y002950D02*
X013457Y003150D01*
X014057Y003150D01*
X014157Y003050D01*
X014157Y001250D01*
X013837Y001250D02*
X013777Y001250D01*
X013777Y001314D02*
X013729Y001431D01*
X013657Y001503D01*
X013657Y002467D01*
X013720Y002530D01*
X013821Y002530D01*
X013939Y002579D01*
X013957Y002597D01*
X013957Y001503D01*
X013886Y001431D01*
X013837Y001314D01*
X013837Y001186D01*
X013852Y001150D01*
X013762Y001150D01*
X013852Y001150D01*
X013777Y001186D02*
X013777Y001314D01*
X013762Y001350D02*
X013852Y001350D01*
X013857Y001362D02*
X013857Y002545D01*
X013869Y002550D02*
X013957Y002550D01*
X013957Y002450D02*
X013657Y002450D01*
X013657Y002467D02*
X013657Y001503D01*
X013657Y001550D02*
X013957Y001550D01*
X013957Y001650D02*
X013657Y001650D01*
X013657Y001750D02*
X013957Y001750D01*
X013957Y001850D02*
X013657Y001850D01*
X013657Y001950D02*
X013957Y001950D01*
X013957Y002050D02*
X013657Y002050D01*
X013657Y002150D02*
X013957Y002150D01*
X013957Y002250D02*
X013657Y002250D01*
X013657Y002350D02*
X013957Y002350D01*
X013757Y002530D02*
X013757Y001362D01*
X013710Y001450D02*
X013905Y001450D01*
X014357Y001503D02*
X014357Y004365D01*
X014457Y004365D02*
X014457Y001362D01*
X014462Y001350D02*
X017350Y001350D01*
X017357Y001343D02*
X017357Y000300D01*
X017257Y000300D02*
X017257Y001443D01*
X017550Y001150D01*
X014462Y001150D01*
X014457Y001138D02*
X014457Y001057D01*
X014450Y001050D02*
X014410Y001050D01*
X014357Y000997D02*
X014357Y000957D01*
X014350Y000950D02*
X014269Y000950D01*
X014257Y000945D02*
X014257Y000857D01*
X014257Y000443D01*
X014114Y000300D01*
X014400Y000300D01*
X014257Y000443D01*
X014257Y000300D01*
X014157Y000300D02*
X014157Y000343D01*
X014164Y000350D02*
X014350Y000350D01*
X014357Y000343D02*
X014357Y000300D01*
X014257Y000443D02*
X014257Y000857D01*
X014257Y000850D02*
X014257Y000850D01*
X014257Y000750D02*
X014257Y000750D01*
X014257Y000650D02*
X014257Y000650D01*
X014257Y000550D02*
X014257Y000550D01*
X014257Y000450D02*
X014257Y000450D01*
X013400Y000300D02*
X013114Y000300D01*
X013257Y000443D01*
X013257Y000857D01*
X012964Y001150D01*
X012840Y001150D01*
X012940Y001250D01*
X013137Y001250D01*
X013137Y001314D02*
X013137Y001186D01*
X013186Y001069D01*
X013276Y000979D01*
X013349Y000949D01*
X013257Y000857D01*
X013257Y000997D01*
X013205Y001050D02*
X013064Y001050D01*
X013057Y001057D02*
X013057Y002597D01*
X013076Y002579D01*
X013194Y002530D01*
X013257Y002530D01*
X013257Y001503D01*
X013186Y001431D01*
X013137Y001314D01*
X013152Y001350D02*
X013040Y001350D01*
X013057Y001367D02*
X013057Y002597D01*
X013057Y002550D02*
X013145Y002550D01*
X013157Y002545D02*
X013157Y001362D01*
X013057Y001367D02*
X012940Y001250D01*
X012957Y001267D02*
X012957Y001150D01*
X012857Y001150D02*
X012857Y001167D01*
X012840Y001150D02*
X013152Y001150D01*
X013157Y001138D02*
X013157Y000957D01*
X013164Y000950D02*
X013345Y000950D01*
X013257Y000857D02*
X013257Y000443D01*
X013257Y000300D01*
X013157Y000300D02*
X013157Y000343D01*
X013164Y000350D02*
X013350Y000350D01*
X013357Y000343D02*
X013357Y000300D01*
X013400Y000300D02*
X013257Y000443D01*
X013257Y000450D02*
X013257Y000450D01*
X013257Y000550D02*
X013257Y000550D01*
X013257Y000650D02*
X013257Y000650D01*
X013257Y000750D02*
X013257Y000750D01*
X013257Y000850D02*
X013257Y000850D01*
X013762Y001150D02*
X013777Y001186D01*
X013457Y001250D02*
X013457Y002550D01*
X013757Y002850D01*
X014357Y002850D02*
X016387Y002850D01*
X016387Y002750D02*
X014357Y002750D01*
X014357Y002650D02*
X016387Y002650D01*
X016387Y002550D02*
X014357Y002550D01*
X014357Y002450D02*
X016387Y002450D01*
X016387Y002350D02*
X014357Y002350D01*
X014357Y002250D02*
X016387Y002250D01*
X016357Y002162D02*
X016357Y002999D01*
X016387Y002950D02*
X015969Y002950D01*
X015957Y002945D02*
X015957Y001150D01*
X015857Y001150D02*
X015857Y002930D01*
X015757Y002945D02*
X015757Y001150D01*
X015457Y001057D02*
X015457Y004365D01*
X015357Y004365D02*
X015357Y000957D01*
X015350Y000950D02*
X015164Y000950D01*
X015157Y000957D02*
X015157Y004365D01*
X015057Y004365D02*
X015057Y001057D01*
X015064Y001050D02*
X015450Y001050D01*
X015257Y000857D02*
X015257Y004365D01*
X014957Y004365D02*
X014957Y001150D01*
X014857Y001150D02*
X014857Y004365D01*
X014757Y004365D02*
X014757Y001150D01*
X014657Y001150D02*
X014657Y004365D01*
X014557Y004365D02*
X014557Y001150D01*
X014477Y001250D02*
X017450Y001250D01*
X017457Y001243D02*
X017457Y000300D01*
X017557Y000300D02*
X017557Y001150D01*
X017550Y001150D02*
X017964Y001150D01*
X017957Y001150D02*
X017957Y000300D01*
X017857Y000300D02*
X017857Y001150D01*
X017757Y001150D02*
X017757Y000300D01*
X017657Y000300D02*
X017657Y001150D01*
X018107Y000950D02*
X017122Y000950D01*
X017157Y000915D02*
X017157Y009385D01*
X017122Y009350D02*
X018107Y009350D01*
X018107Y009450D02*
X017222Y009450D01*
X017227Y009550D02*
X018107Y009550D01*
X018107Y009650D02*
X016807Y009650D01*
X016757Y009600D02*
X016757Y008362D01*
X016762Y008350D02*
X017393Y008350D01*
X017357Y008385D02*
X017357Y007915D01*
X017393Y007950D02*
X016569Y007950D01*
X016557Y007945D02*
X016557Y006255D01*
X016545Y006250D02*
X016527Y006250D01*
X016527Y006350D02*
X017350Y006350D01*
X017357Y006343D02*
X017357Y005957D01*
X017350Y005950D02*
X016977Y005950D01*
X016962Y005850D02*
X017257Y005850D01*
X017257Y005857D02*
X017257Y006443D01*
X017550Y006150D01*
X016910Y006150D01*
X016857Y006203D02*
X016857Y009180D01*
X016807Y009250D02*
X016707Y009250D01*
X016707Y009350D02*
X016807Y009350D01*
X016807Y009450D02*
X016707Y009450D01*
X016707Y009550D02*
X016807Y009550D01*
X016857Y009600D02*
X016857Y009700D01*
X016957Y009700D02*
X016957Y009600D01*
X017057Y009600D02*
X017057Y009700D01*
X017157Y009700D02*
X017157Y009600D01*
X017227Y009750D02*
X018107Y009750D01*
X018107Y009850D02*
X017222Y009850D01*
X017557Y010000D02*
X017557Y009115D01*
X017707Y008950D02*
X017807Y008950D01*
X017807Y008850D02*
X017707Y008850D01*
X017557Y008700D02*
X017557Y008600D01*
X017457Y008600D02*
X017457Y008700D01*
X017357Y008700D02*
X017357Y008600D01*
X017287Y008550D02*
X016727Y008550D01*
X016727Y008450D02*
X017293Y008450D01*
X017457Y008285D02*
X017457Y008015D01*
X017493Y008050D02*
X016710Y008050D01*
X016657Y007997D02*
X016657Y006270D01*
X016757Y006255D02*
X016757Y008138D01*
X016762Y008150D02*
X018107Y008150D01*
X018107Y008050D02*
X018022Y008050D01*
X018057Y008015D02*
X018057Y008285D01*
X018022Y008250D02*
X018107Y008250D01*
X017957Y008185D02*
X017957Y008115D01*
X017857Y008120D02*
X017857Y008180D01*
X017807Y008250D02*
X017707Y008250D01*
X017657Y008180D02*
X017657Y008120D01*
X017707Y008120D02*
X017563Y008120D01*
X017287Y007845D01*
X017287Y007700D01*
X017707Y007700D01*
X017707Y008120D01*
X017707Y008050D02*
X017807Y008050D01*
X017807Y007950D02*
X017707Y007950D01*
X017707Y007850D02*
X017807Y007850D01*
X017807Y007750D02*
X017707Y007750D01*
X017657Y007700D02*
X017657Y007600D01*
X017707Y007650D02*
X015910Y007650D01*
X015857Y007597D02*
X015857Y006920D01*
X015769Y006950D02*
X017350Y006950D01*
X017357Y006957D02*
X017357Y007385D01*
X017393Y007350D02*
X014942Y007350D01*
X014957Y007303D02*
X014957Y007665D01*
X014857Y007665D02*
X014857Y007612D01*
X014919Y007550D02*
X015545Y007550D01*
X015557Y007545D02*
X015557Y006955D01*
X015545Y006950D02*
X015062Y006950D01*
X015057Y006938D02*
X015057Y006920D01*
X015157Y006920D02*
X015157Y007665D01*
X015057Y007665D02*
X015057Y007162D01*
X015062Y007150D02*
X018107Y007150D01*
X018107Y007250D02*
X018022Y007250D01*
X018057Y007285D02*
X018057Y007057D01*
X018064Y007050D02*
X018107Y007050D01*
X017957Y007150D02*
X017957Y007185D01*
X017857Y007180D02*
X017857Y007150D01*
X017757Y007150D02*
X017757Y007600D01*
X017707Y007550D02*
X017807Y007550D01*
X017807Y007450D02*
X017707Y007450D01*
X017707Y007350D02*
X017807Y007350D01*
X017807Y007250D02*
X017707Y007250D01*
X017657Y007180D02*
X017657Y007150D01*
X017557Y007150D02*
X017557Y007185D01*
X017493Y007250D02*
X015010Y007250D01*
X015077Y007050D02*
X017450Y007050D01*
X017457Y007057D02*
X017457Y007285D01*
X017293Y007450D02*
X014942Y007450D01*
X014757Y007635D02*
X014757Y007665D01*
X014710Y007650D02*
X015405Y007650D01*
X015357Y007665D02*
X015357Y006920D01*
X015257Y006920D02*
X015257Y007665D01*
X015457Y007597D02*
X015457Y006920D01*
X015657Y006970D02*
X015657Y007530D01*
X015757Y007545D02*
X015757Y006955D01*
X015957Y006920D02*
X015957Y007738D01*
X015962Y007750D02*
X017287Y007750D01*
X017357Y007700D02*
X017357Y007600D01*
X017287Y007550D02*
X015769Y007550D01*
X015977Y007850D02*
X017293Y007850D01*
X017457Y007700D02*
X017457Y007600D01*
X017557Y007600D02*
X017557Y007700D01*
X017757Y007700D02*
X017757Y008600D01*
X017707Y008550D02*
X017807Y008550D01*
X017807Y008450D02*
X017707Y008450D01*
X017707Y008350D02*
X017807Y008350D01*
X017493Y008250D02*
X016777Y008250D01*
X016357Y007945D02*
X016357Y006832D01*
X016339Y006850D02*
X017257Y006850D01*
X017257Y006857D02*
X017257Y006443D01*
X017257Y006450D02*
X016527Y006450D01*
X016527Y006550D02*
X017257Y006550D01*
X017257Y006650D02*
X016508Y006650D01*
X016457Y006732D02*
X016457Y007930D01*
X016345Y007950D02*
X015962Y007950D01*
X015957Y007962D02*
X015957Y008380D01*
X015857Y008380D02*
X015857Y008103D01*
X015910Y008050D02*
X016205Y008050D01*
X016257Y007997D02*
X016257Y006901D01*
X016157Y006920D02*
X016157Y008138D01*
X016152Y008150D02*
X015769Y008150D01*
X015757Y008155D02*
X015757Y008380D01*
X015657Y008380D02*
X015657Y008170D01*
X015557Y008155D02*
X015557Y008380D01*
X015457Y008380D02*
X015457Y008103D01*
X015405Y008050D02*
X014710Y008050D01*
X014757Y008035D02*
X014757Y008380D01*
X014657Y008380D02*
X014657Y008103D01*
X014569Y008150D02*
X015545Y008150D01*
X015357Y008035D02*
X015357Y008380D01*
X015257Y008380D02*
X015257Y008035D01*
X015157Y008035D02*
X015157Y008380D01*
X015057Y008380D02*
X015057Y008035D01*
X014957Y008035D02*
X014957Y008380D01*
X014857Y008380D02*
X014857Y008035D01*
X014557Y008155D02*
X014557Y008380D01*
X014457Y008380D02*
X014457Y008170D01*
X014357Y008155D02*
X014357Y008380D01*
X014257Y008380D02*
X014257Y008103D01*
X014205Y008050D02*
X014019Y008050D01*
X014042Y008027D02*
X014042Y008027D01*
X014057Y008012D02*
X014057Y008380D01*
X013957Y008380D02*
X013957Y008112D01*
X013857Y008135D02*
X013857Y008380D01*
X013757Y008380D02*
X013757Y008203D01*
X013810Y008150D02*
X014345Y008150D01*
X014157Y007962D02*
X014157Y008380D01*
X013657Y008380D02*
X013657Y008255D01*
X013669Y008250D02*
X016137Y008250D01*
X016152Y008350D02*
X012710Y008350D01*
X012757Y008380D02*
X012757Y008262D01*
X012762Y008250D02*
X013445Y008250D01*
X013457Y008255D02*
X013457Y008380D01*
X013357Y008380D02*
X013357Y008203D01*
X013305Y008150D02*
X012777Y008150D01*
X012762Y008050D02*
X013252Y008050D01*
X013257Y008062D02*
X013257Y008380D01*
X013157Y008380D02*
X013157Y007835D01*
X013252Y007850D02*
X012569Y007850D01*
X012557Y007845D02*
X012557Y007535D01*
X012596Y007550D02*
X011562Y007550D01*
X011557Y007538D02*
X011557Y007535D01*
X011657Y007535D02*
X011657Y007830D01*
X011557Y007845D02*
X011557Y007762D01*
X011562Y007750D02*
X012796Y007750D01*
X012757Y007712D02*
X012757Y008038D01*
X012710Y007950D02*
X013237Y007950D01*
X013257Y007838D02*
X013257Y007835D01*
X013057Y007835D02*
X013057Y008380D01*
X012957Y008380D02*
X012957Y007835D01*
X012857Y007812D02*
X012857Y008380D01*
X012235Y008380D02*
X012190Y008335D01*
X011925Y008335D01*
X011880Y008380D01*
X012235Y008380D01*
X012205Y008350D02*
X011910Y008350D01*
X011957Y008335D02*
X011957Y008380D01*
X012057Y008380D02*
X012057Y008335D01*
X012157Y008335D02*
X012157Y008380D01*
X012157Y007965D02*
X012157Y007535D01*
X012057Y007535D02*
X012057Y007965D01*
X011957Y007965D02*
X011957Y007535D01*
X011857Y007535D02*
X011857Y007897D01*
X011910Y007950D02*
X012205Y007950D01*
X012257Y007897D02*
X012257Y007535D01*
X012357Y007535D02*
X012357Y007845D01*
X012345Y007850D02*
X011769Y007850D01*
X011757Y007845D02*
X011757Y007535D01*
X011577Y007650D02*
X012696Y007650D01*
X012657Y007612D02*
X012657Y007897D01*
X012457Y007830D02*
X012457Y007535D01*
X013004Y007135D02*
X013076Y007207D01*
X013049Y007142D01*
X013027Y007135D01*
X013004Y007135D01*
X013019Y007150D02*
X013052Y007150D01*
X013057Y007162D02*
X013057Y007188D01*
X014119Y007950D02*
X014152Y007950D01*
X013557Y008270D02*
X013557Y008380D01*
X013380Y009320D02*
X013134Y009320D01*
X013257Y009443D01*
X013257Y009857D01*
X013114Y010000D01*
X013400Y010000D01*
X013257Y009857D01*
X013257Y010000D01*
X013157Y010000D02*
X013157Y009957D01*
X013164Y009950D02*
X013350Y009950D01*
X013357Y009957D02*
X013357Y010000D01*
X013257Y009857D02*
X013257Y009443D01*
X013257Y009320D01*
X013164Y009350D02*
X013350Y009350D01*
X013357Y009343D02*
X013357Y009320D01*
X013380Y009320D02*
X013257Y009443D01*
X013257Y009450D02*
X013257Y009450D01*
X013257Y009550D02*
X013257Y009550D01*
X013257Y009650D02*
X013257Y009650D01*
X013257Y009750D02*
X013257Y009750D01*
X013257Y009850D02*
X013257Y009850D01*
X014114Y010000D02*
X014400Y010000D01*
X014257Y009857D01*
X014114Y010000D01*
X014157Y010000D02*
X014157Y009957D01*
X014164Y009950D02*
X014350Y009950D01*
X014357Y009957D02*
X014357Y010000D01*
X014257Y010000D02*
X014257Y009857D01*
X014257Y009443D01*
X014134Y009320D01*
X014380Y009320D01*
X014257Y009443D01*
X014257Y009320D01*
X014164Y009350D02*
X014350Y009350D01*
X014357Y009343D02*
X014357Y009320D01*
X014257Y009443D02*
X014257Y009857D01*
X014257Y009850D02*
X014257Y009850D01*
X014257Y009750D02*
X014257Y009750D01*
X014257Y009650D02*
X014257Y009650D01*
X014257Y009550D02*
X014257Y009550D01*
X014257Y009450D02*
X014257Y009450D01*
X014157Y009343D02*
X014157Y009320D01*
X013157Y009320D02*
X013157Y009343D01*
X012380Y009320D02*
X012134Y009320D01*
X012257Y009443D01*
X012257Y009857D01*
X012114Y010000D01*
X012400Y010000D01*
X012257Y009857D01*
X012257Y010000D01*
X012157Y010000D02*
X012157Y009957D01*
X012164Y009950D02*
X012350Y009950D01*
X012357Y009957D02*
X012357Y010000D01*
X012257Y009857D02*
X012257Y009443D01*
X012257Y009320D01*
X012164Y009350D02*
X012350Y009350D01*
X012357Y009343D02*
X012357Y009320D01*
X012380Y009320D02*
X012257Y009443D01*
X012257Y009450D02*
X012257Y009450D01*
X012257Y009550D02*
X012257Y009550D01*
X012257Y009650D02*
X012257Y009650D01*
X012257Y009750D02*
X012257Y009750D01*
X012257Y009850D02*
X012257Y009850D01*
X012157Y009343D02*
X012157Y009320D01*
X011380Y009320D02*
X011134Y009320D01*
X011257Y009443D01*
X011257Y009857D01*
X011114Y010000D01*
X011400Y010000D01*
X011257Y009857D01*
X011257Y010000D01*
X011157Y010000D02*
X011157Y009957D01*
X011164Y009950D02*
X011350Y009950D01*
X011357Y009957D02*
X011357Y010000D01*
X011257Y009857D02*
X011257Y009443D01*
X011257Y009320D01*
X011164Y009350D02*
X011350Y009350D01*
X011357Y009343D02*
X011357Y009320D01*
X011380Y009320D02*
X011257Y009443D01*
X011257Y009450D02*
X011257Y009450D01*
X011257Y009550D02*
X011257Y009550D01*
X011257Y009650D02*
X011257Y009650D01*
X011257Y009750D02*
X011257Y009750D01*
X011257Y009850D02*
X011257Y009850D01*
X011157Y009343D02*
X011157Y009320D01*
X010380Y009320D02*
X010134Y009320D01*
X010257Y009443D01*
X010257Y009857D01*
X010114Y010000D01*
X010400Y010000D01*
X010257Y009857D01*
X010257Y010000D01*
X010157Y010000D02*
X010157Y009957D01*
X010164Y009950D02*
X010350Y009950D01*
X010357Y009957D02*
X010357Y010000D01*
X010257Y009857D02*
X010257Y009443D01*
X010257Y009320D01*
X010164Y009350D02*
X010350Y009350D01*
X010357Y009343D02*
X010357Y009320D01*
X010380Y009320D02*
X010257Y009443D01*
X010257Y009450D02*
X010257Y009450D01*
X010257Y009550D02*
X010257Y009550D01*
X010257Y009650D02*
X010257Y009650D01*
X010257Y009750D02*
X010257Y009750D01*
X010257Y009850D02*
X010257Y009850D01*
X009400Y010000D02*
X009257Y009857D01*
X009114Y010000D01*
X009400Y010000D01*
X009357Y010000D02*
X009357Y009957D01*
X009350Y009950D02*
X009164Y009950D01*
X009157Y009957D02*
X009157Y010000D01*
X009257Y010000D02*
X009257Y009857D01*
X009257Y009443D01*
X009134Y009320D01*
X009380Y009320D01*
X009257Y009443D01*
X009257Y009320D01*
X009164Y009350D02*
X009350Y009350D01*
X009357Y009343D02*
X009357Y009320D01*
X009257Y009443D02*
X009257Y009857D01*
X009257Y009850D02*
X009257Y009850D01*
X009257Y009750D02*
X009257Y009750D01*
X009257Y009650D02*
X009257Y009650D01*
X009257Y009550D02*
X009257Y009550D01*
X009257Y009450D02*
X009257Y009450D01*
X009157Y009343D02*
X009157Y009320D01*
X008380Y009320D02*
X008240Y009320D01*
X008239Y009321D01*
X008166Y009351D01*
X008257Y009443D01*
X008257Y009857D01*
X008114Y010000D01*
X008400Y010000D01*
X008257Y009857D01*
X008257Y010000D01*
X008157Y010000D02*
X008157Y009957D01*
X008164Y009950D02*
X008350Y009950D01*
X008357Y009957D02*
X008357Y010000D01*
X008257Y009857D02*
X008257Y009443D01*
X008257Y009320D01*
X008169Y009350D02*
X008350Y009350D01*
X008357Y009343D02*
X008357Y009320D01*
X008380Y009320D02*
X008257Y009443D01*
X008257Y009450D02*
X008257Y009450D01*
X008257Y009550D02*
X008257Y009550D01*
X008257Y009650D02*
X008257Y009650D01*
X008257Y009750D02*
X008257Y009750D01*
X008257Y009850D02*
X008257Y009850D01*
X007400Y010000D02*
X007257Y009857D01*
X007114Y010000D01*
X007400Y010000D01*
X007357Y010000D02*
X007357Y009957D01*
X007350Y009950D02*
X007164Y009950D01*
X007157Y009957D02*
X007157Y010000D01*
X007257Y010000D02*
X007257Y009857D01*
X007257Y009443D01*
X007242Y009427D01*
X007257Y009412D01*
X007257Y009443D01*
X007273Y009427D01*
X007257Y009412D01*
X007257Y009443D02*
X007257Y009857D01*
X007257Y009850D02*
X007257Y009850D01*
X007257Y009750D02*
X007257Y009750D01*
X007257Y009650D02*
X007257Y009650D01*
X007257Y009550D02*
X007257Y009550D01*
X007257Y009450D02*
X007257Y009450D01*
X006972Y009158D02*
X006972Y009097D01*
X006942Y009127D01*
X006919Y009150D01*
X006964Y009150D01*
X006972Y009150D01*
X006964Y009150D02*
X006972Y009158D01*
X006957Y009150D02*
X006957Y009112D01*
X006681Y008865D02*
X006772Y008773D01*
X006772Y007288D01*
X006739Y007321D01*
X006621Y007370D01*
X006494Y007370D01*
X006376Y007321D01*
X006375Y007320D01*
X005440Y007320D01*
X005439Y007321D01*
X005321Y007370D01*
X005194Y007370D01*
X005076Y007321D01*
X005075Y007320D01*
X004657Y007320D01*
X004657Y010000D01*
X004657Y007320D01*
X004657Y007350D02*
X005145Y007350D01*
X005157Y007355D02*
X005157Y010000D01*
X005057Y010000D02*
X005057Y007320D01*
X004957Y007320D02*
X004957Y010000D01*
X004857Y010000D02*
X004857Y007320D01*
X004757Y007320D02*
X004757Y010000D01*
X004657Y010000D02*
X005400Y010000D01*
X005257Y009857D01*
X005257Y010000D01*
X005357Y010000D02*
X005357Y009957D01*
X005350Y009950D02*
X004657Y009950D01*
X004657Y009850D02*
X005257Y009850D01*
X005257Y009857D02*
X005257Y009443D01*
X005257Y007370D01*
X005357Y007355D02*
X005357Y009343D01*
X005350Y009350D02*
X004657Y009350D01*
X004657Y009250D02*
X005450Y009250D01*
X005457Y009243D02*
X005457Y007320D01*
X005369Y007350D02*
X006445Y007350D01*
X006457Y007355D02*
X006457Y008865D01*
X006357Y008865D02*
X006357Y007320D01*
X006257Y007320D02*
X006257Y008865D01*
X006157Y008865D02*
X006157Y007320D01*
X006057Y007320D02*
X006057Y008888D01*
X006081Y008865D02*
X006681Y008865D01*
X006696Y008850D02*
X004657Y008850D01*
X004657Y008750D02*
X006772Y008750D01*
X006757Y008788D02*
X006757Y007303D01*
X006772Y007350D02*
X006669Y007350D01*
X006657Y007355D02*
X006657Y008865D01*
X006557Y008865D02*
X006557Y007370D01*
X006772Y007450D02*
X004657Y007450D01*
X004657Y007550D02*
X006772Y007550D01*
X006772Y007650D02*
X004657Y007650D01*
X004657Y007750D02*
X006772Y007750D01*
X006772Y007850D02*
X004657Y007850D01*
X004657Y007950D02*
X006772Y007950D01*
X006772Y008050D02*
X004657Y008050D01*
X004657Y008150D02*
X006772Y008150D01*
X006772Y008250D02*
X004657Y008250D01*
X004657Y008350D02*
X006772Y008350D01*
X006772Y008450D02*
X004657Y008450D01*
X004657Y008550D02*
X006772Y008550D01*
X006772Y008650D02*
X004657Y008650D01*
X004657Y008950D02*
X005996Y008950D01*
X005957Y008988D02*
X005957Y007320D01*
X005857Y007320D02*
X005857Y009088D01*
X005896Y009050D02*
X004657Y009050D01*
X004657Y009150D02*
X005550Y009150D01*
X005796Y009150D01*
X006081Y008865D01*
X005757Y009150D02*
X005757Y007320D01*
X005657Y007320D02*
X005657Y009150D01*
X005557Y009150D02*
X005557Y007320D01*
X006850Y006920D02*
X006872Y006974D01*
X006881Y006965D01*
X006926Y006920D01*
X006850Y006920D01*
X006857Y006920D02*
X006857Y006938D01*
X006862Y006950D02*
X006896Y006950D01*
X007557Y007612D02*
X007557Y009150D01*
X007550Y009150D02*
X007542Y009150D01*
X007542Y009158D02*
X007550Y009150D01*
X007752Y009150D01*
X007737Y009114D01*
X007737Y008986D01*
X007786Y008869D01*
X007790Y008865D01*
X007728Y008803D01*
X007687Y008704D01*
X007687Y008433D01*
X007686Y008431D01*
X007637Y008314D01*
X007637Y008186D01*
X007686Y008069D01*
X007776Y007979D01*
X007894Y007930D01*
X008021Y007930D01*
X008139Y007979D01*
X008229Y008069D01*
X008257Y008138D01*
X008286Y008069D01*
X008376Y007979D01*
X008494Y007930D01*
X008497Y007930D01*
X008476Y007921D01*
X008386Y007831D01*
X008337Y007714D01*
X008337Y007586D01*
X008359Y007535D01*
X007634Y007535D01*
X007542Y007627D01*
X007542Y009158D01*
X007542Y009050D02*
X007737Y009050D01*
X007752Y008950D02*
X007542Y008950D01*
X007542Y008850D02*
X007775Y008850D01*
X007757Y008832D02*
X007757Y008938D01*
X007706Y008750D02*
X007542Y008750D01*
X007542Y008650D02*
X007687Y008650D01*
X007687Y008550D02*
X007542Y008550D01*
X007542Y008450D02*
X007687Y008450D01*
X007657Y008362D02*
X007657Y009150D01*
X006465Y009235D02*
X006234Y009235D01*
X006142Y009327D01*
X006257Y009443D01*
X006257Y009857D01*
X006114Y010000D01*
X006400Y010000D01*
X006257Y009857D01*
X006257Y010000D01*
X006157Y010000D02*
X006157Y009957D01*
X006164Y009950D02*
X006350Y009950D01*
X006357Y009957D02*
X006357Y010000D01*
X006257Y009857D02*
X006257Y009443D01*
X006257Y009235D01*
X006219Y009250D02*
X006450Y009250D01*
X006457Y009243D02*
X006457Y009235D01*
X006465Y009235D02*
X006257Y009443D01*
X006257Y009450D02*
X006257Y009450D01*
X006257Y009550D02*
X006257Y009550D01*
X006257Y009650D02*
X006257Y009650D01*
X006257Y009750D02*
X006257Y009750D01*
X006257Y009850D02*
X006257Y009850D01*
X006164Y009350D02*
X006350Y009350D01*
X006357Y009343D02*
X006357Y009235D01*
X006157Y009312D02*
X006157Y009343D01*
X005550Y009150D02*
X005257Y009443D01*
X005257Y009450D02*
X004657Y009450D01*
X004657Y009550D02*
X005257Y009550D01*
X005257Y009650D02*
X004657Y009650D01*
X004657Y009750D02*
X005257Y009750D01*
X007542Y008350D02*
X007652Y008350D01*
X007637Y008250D02*
X007542Y008250D01*
X007542Y008150D02*
X007652Y008150D01*
X007657Y008138D02*
X007657Y007535D01*
X007619Y007550D02*
X008352Y007550D01*
X008357Y007538D02*
X008357Y007535D01*
X008257Y007535D02*
X008257Y008138D01*
X008210Y008050D02*
X008305Y008050D01*
X008357Y007997D02*
X008357Y007762D01*
X008352Y007750D02*
X007542Y007750D01*
X007542Y007650D02*
X008337Y007650D01*
X008157Y007535D02*
X008157Y007997D01*
X008069Y007950D02*
X008445Y007950D01*
X008457Y007945D02*
X008457Y007903D01*
X008405Y007850D02*
X007542Y007850D01*
X007542Y007950D02*
X007845Y007950D01*
X007857Y007945D02*
X007857Y007535D01*
X007757Y007535D02*
X007757Y007997D01*
X007705Y008050D02*
X007542Y008050D01*
X007957Y007930D02*
X007957Y007535D01*
X008057Y007535D02*
X008057Y007945D01*
X008257Y008362D02*
X008265Y008380D01*
X008250Y008380D01*
X008257Y008362D01*
X008257Y008380D01*
X008718Y007970D02*
X008739Y007979D01*
X008753Y007993D01*
X008814Y007931D01*
X008721Y007970D01*
X008718Y007970D01*
X008757Y007955D02*
X008757Y007988D01*
X008769Y007950D02*
X008796Y007950D01*
X009037Y008232D02*
X008889Y008380D01*
X009065Y008380D01*
X009037Y008314D01*
X009037Y008232D01*
X009037Y008250D02*
X009019Y008250D01*
X008957Y008312D02*
X008957Y008380D01*
X008919Y008350D02*
X009052Y008350D01*
X009057Y008362D02*
X009057Y008380D01*
X010095Y008165D02*
X010537Y008165D01*
X010537Y008086D01*
X010586Y007969D01*
X010676Y007879D01*
X010782Y007835D01*
X010156Y007835D01*
X010177Y007886D01*
X010177Y008014D01*
X010129Y008131D01*
X010095Y008165D01*
X010110Y008150D02*
X010537Y008150D01*
X010457Y008165D02*
X010457Y007835D01*
X010357Y007835D02*
X010357Y008165D01*
X010257Y008165D02*
X010257Y007835D01*
X010162Y007850D02*
X010745Y007850D01*
X010757Y007845D02*
X010757Y007835D01*
X010657Y007835D02*
X010657Y007897D01*
X010605Y007950D02*
X010177Y007950D01*
X010162Y008050D02*
X010552Y008050D01*
X010557Y008038D02*
X010557Y007835D01*
X010933Y007835D02*
X011030Y007875D01*
X010990Y007835D01*
X010933Y007835D01*
X010957Y007835D02*
X010957Y007845D01*
X010969Y007850D02*
X011005Y007850D01*
X011085Y007925D02*
X011129Y007969D01*
X011177Y008086D01*
X011177Y008214D01*
X011129Y008331D01*
X011080Y008380D01*
X011435Y008380D01*
X011386Y008331D01*
X011337Y008214D01*
X011337Y008086D01*
X011386Y007969D01*
X011430Y007925D01*
X011321Y007970D01*
X011194Y007970D01*
X011085Y007925D01*
X011110Y007950D02*
X011145Y007950D01*
X011157Y007955D02*
X011157Y008038D01*
X011162Y008050D02*
X011352Y008050D01*
X011357Y008038D02*
X011357Y007955D01*
X011369Y007950D02*
X011405Y007950D01*
X011510Y007850D02*
X011545Y007850D01*
X011257Y007970D02*
X011257Y008380D01*
X011157Y008380D02*
X011157Y008262D01*
X011162Y008250D02*
X011352Y008250D01*
X011357Y008262D02*
X011357Y008380D01*
X011405Y008350D02*
X011110Y008350D01*
X011177Y008150D02*
X011337Y008150D01*
X010157Y008165D02*
X010157Y008062D01*
X010157Y007838D02*
X010157Y007835D01*
X010157Y009320D02*
X010157Y009343D01*
X015134Y009320D02*
X015257Y009443D01*
X015257Y009857D01*
X015114Y010000D01*
X015400Y010000D01*
X015257Y009857D01*
X015257Y010000D01*
X015157Y010000D02*
X015157Y009957D01*
X015164Y009950D02*
X015350Y009950D01*
X015357Y009957D02*
X015357Y010000D01*
X015257Y009857D02*
X015257Y009443D01*
X015257Y009320D01*
X015164Y009350D02*
X015350Y009350D01*
X015357Y009343D02*
X015357Y009320D01*
X015380Y009320D02*
X015134Y009320D01*
X015157Y009320D02*
X015157Y009343D01*
X015257Y009443D02*
X015380Y009320D01*
X015257Y009450D02*
X015257Y009450D01*
X015257Y009550D02*
X015257Y009550D01*
X015257Y009650D02*
X015257Y009650D01*
X015257Y009750D02*
X015257Y009750D01*
X015257Y009850D02*
X015257Y009850D01*
X016257Y009650D02*
X016707Y009650D01*
X016657Y009600D02*
X016657Y009700D01*
X016557Y009700D02*
X016557Y009600D01*
X016457Y009600D02*
X016457Y009700D01*
X016957Y009185D02*
X016957Y006062D01*
X016962Y006050D02*
X017450Y006050D01*
X017457Y006057D02*
X017457Y006243D01*
X017450Y006250D02*
X016769Y006250D01*
X016957Y005838D02*
X016957Y002162D01*
X016962Y002150D02*
X017550Y002150D01*
X017257Y001857D01*
X017257Y002443D01*
X017550Y002150D01*
X017964Y002150D01*
X018107Y002150D01*
X018107Y002050D02*
X018064Y002050D01*
X018057Y002057D02*
X018057Y002243D01*
X018064Y002250D02*
X018107Y002250D01*
X018107Y002293D02*
X017964Y002150D01*
X018107Y002007D01*
X018107Y002293D01*
X017964Y002150D02*
X017550Y002150D01*
X017557Y002150D02*
X017557Y002150D01*
X017657Y002150D02*
X017657Y002150D01*
X017757Y002150D02*
X017757Y002150D01*
X017857Y002150D02*
X017857Y002150D01*
X017957Y002150D02*
X017957Y002150D01*
X017457Y002057D02*
X017457Y002243D01*
X017450Y002250D02*
X016927Y002250D01*
X016927Y002350D02*
X017350Y002350D01*
X017357Y002343D02*
X017357Y001957D01*
X017350Y001950D02*
X016962Y001950D01*
X016957Y001938D02*
X016957Y001115D01*
X016952Y001120D02*
X016807Y001120D01*
X016807Y000700D01*
X017227Y000700D01*
X017227Y000845D01*
X016952Y001120D01*
X016857Y001120D02*
X016857Y001797D01*
X016910Y001850D02*
X017257Y001850D01*
X017257Y001857D02*
X017257Y001443D01*
X017257Y001450D02*
X014410Y001450D01*
X014357Y001550D02*
X017257Y001550D01*
X017257Y001650D02*
X014357Y001650D01*
X014357Y001750D02*
X016545Y001750D01*
X016557Y001745D02*
X016557Y001115D01*
X016563Y001120D02*
X016287Y000845D01*
X016287Y000700D01*
X016707Y000700D01*
X016707Y001120D01*
X016563Y001120D01*
X016657Y001120D02*
X016657Y001730D01*
X016757Y001745D02*
X016757Y000700D01*
X016707Y000750D02*
X016807Y000750D01*
X016857Y000700D02*
X016857Y000600D01*
X016807Y000650D02*
X018107Y000650D01*
X018107Y000550D02*
X017227Y000550D01*
X017157Y000600D02*
X017157Y000700D01*
X017227Y000750D02*
X018107Y000750D01*
X018107Y000850D02*
X017222Y000850D01*
X017057Y000700D02*
X017057Y000600D01*
X016957Y000600D02*
X016957Y000700D01*
X016807Y000850D02*
X016707Y000850D01*
X016707Y000950D02*
X016807Y000950D01*
X016807Y001050D02*
X016707Y001050D01*
X016493Y001050D02*
X016064Y001050D01*
X016057Y001057D02*
X016057Y002980D01*
X016157Y002980D02*
X016157Y000957D01*
X016164Y000950D02*
X016393Y000950D01*
X016357Y000915D02*
X016357Y001938D01*
X016352Y001950D02*
X014357Y001950D01*
X014357Y001850D02*
X016405Y001850D01*
X016457Y001797D02*
X016457Y001015D01*
X016293Y000850D02*
X016257Y000850D01*
X016257Y000750D02*
X016287Y000750D01*
X016357Y000700D02*
X016357Y000600D01*
X016287Y000550D02*
X016257Y000550D01*
X016257Y000450D02*
X016293Y000450D01*
X016357Y000385D02*
X016357Y000300D01*
X016393Y000350D02*
X016164Y000350D01*
X016157Y000343D02*
X016157Y000300D01*
X016257Y000300D02*
X016257Y002980D01*
X015745Y002950D02*
X014357Y002950D01*
X013257Y002450D02*
X013057Y002450D01*
X013057Y002350D02*
X013257Y002350D01*
X013257Y002250D02*
X013057Y002250D01*
X013057Y002150D02*
X013257Y002150D01*
X013257Y002050D02*
X013057Y002050D01*
X013057Y001950D02*
X013257Y001950D01*
X013257Y001850D02*
X013057Y001850D01*
X013057Y001750D02*
X013257Y001750D01*
X013257Y001650D02*
X013057Y001650D01*
X013057Y001550D02*
X013257Y001550D01*
X013205Y001450D02*
X013057Y001450D01*
X012350Y000950D02*
X012164Y000950D01*
X012257Y000857D01*
X012257Y000443D01*
X012114Y000300D01*
X012400Y000300D01*
X012257Y000443D01*
X012257Y000300D01*
X012157Y000300D02*
X012157Y000343D01*
X012164Y000350D02*
X012350Y000350D01*
X012357Y000343D02*
X012357Y000300D01*
X012257Y000443D02*
X012257Y000857D01*
X012257Y000950D01*
X012350Y000950D02*
X012257Y000857D01*
X012257Y000850D02*
X012257Y000850D01*
X012257Y000750D02*
X012257Y000750D01*
X012257Y000650D02*
X012257Y000650D01*
X012257Y000550D02*
X012257Y000550D01*
X012257Y000450D02*
X012257Y000450D01*
X011400Y000300D02*
X011114Y000300D01*
X011257Y000443D01*
X011257Y000857D01*
X011164Y000950D01*
X011350Y000950D01*
X011257Y000857D01*
X011257Y000950D01*
X011257Y000857D02*
X011257Y000443D01*
X011257Y000300D01*
X011157Y000300D02*
X011157Y000343D01*
X011164Y000350D02*
X011350Y000350D01*
X011357Y000343D02*
X011357Y000300D01*
X011400Y000300D02*
X011257Y000443D01*
X011257Y000450D02*
X011257Y000450D01*
X011257Y000550D02*
X011257Y000550D01*
X011257Y000650D02*
X011257Y000650D01*
X011257Y000750D02*
X011257Y000750D01*
X011257Y000850D02*
X011257Y000850D01*
X010350Y000950D02*
X010257Y000857D01*
X010164Y000950D01*
X010350Y000950D01*
X010257Y000950D02*
X010257Y000857D01*
X010257Y000443D01*
X010114Y000300D01*
X010400Y000300D01*
X010257Y000443D01*
X010257Y000300D01*
X010157Y000300D02*
X010157Y000343D01*
X010164Y000350D02*
X010350Y000350D01*
X010357Y000343D02*
X010357Y000300D01*
X010257Y000443D02*
X010257Y000857D01*
X010257Y000850D02*
X010257Y000850D01*
X010257Y000750D02*
X010257Y000750D01*
X010257Y000650D02*
X010257Y000650D01*
X010257Y000550D02*
X010257Y000550D01*
X010257Y000450D02*
X010257Y000450D01*
X011857Y001550D02*
X011857Y001965D01*
X011957Y001965D02*
X011957Y001550D01*
X012252Y002850D02*
X009642Y002850D01*
X009642Y002950D02*
X012237Y002950D01*
X013877Y003750D02*
X015987Y003750D01*
X015987Y003850D02*
X013862Y003850D01*
X013857Y003862D02*
X013857Y004365D01*
X013757Y004365D02*
X013757Y004003D01*
X013810Y003950D02*
X015987Y003950D01*
X015987Y004050D02*
X013669Y004050D01*
X013657Y004055D02*
X013657Y004365D01*
X013557Y004365D02*
X013557Y004070D01*
X015404Y004735D02*
X015427Y004758D01*
X015482Y004735D01*
X015404Y004735D01*
X015419Y004750D02*
X015445Y004750D01*
X015457Y004745D02*
X015457Y004735D01*
X015829Y004870D02*
X015877Y004986D01*
X015877Y005114D01*
X015829Y005231D01*
X015739Y005321D01*
X015621Y005370D01*
X015618Y005370D01*
X015639Y005379D01*
X015729Y005469D01*
X015777Y005586D01*
X015777Y005714D01*
X015729Y005830D01*
X015821Y005830D01*
X015939Y005879D01*
X015987Y005927D01*
X015987Y004843D01*
X015921Y004870D01*
X015829Y004870D01*
X015857Y004870D02*
X015857Y004938D01*
X015862Y004950D02*
X015987Y004950D01*
X015957Y004855D02*
X015957Y005897D01*
X015987Y005850D02*
X015869Y005850D01*
X015857Y005845D02*
X015857Y005162D01*
X015862Y005150D02*
X015987Y005150D01*
X015987Y005250D02*
X015810Y005250D01*
X015757Y005303D02*
X015757Y005538D01*
X015762Y005550D02*
X015987Y005550D01*
X015987Y005450D02*
X015710Y005450D01*
X015657Y005397D02*
X015657Y005355D01*
X015669Y005350D02*
X015987Y005350D01*
X015987Y005050D02*
X015877Y005050D01*
X015969Y004850D02*
X015987Y004850D01*
X016927Y004850D02*
X017257Y004850D01*
X017257Y004857D02*
X017257Y005443D01*
X017550Y005150D01*
X016927Y005150D01*
X016927Y005250D02*
X017450Y005250D01*
X017457Y005243D02*
X017457Y005057D01*
X017450Y005050D02*
X016927Y005050D01*
X016927Y004950D02*
X017350Y004950D01*
X017357Y004957D02*
X017357Y005343D01*
X017350Y005350D02*
X016927Y005350D01*
X016927Y005450D02*
X017257Y005450D01*
X017257Y005443D02*
X017257Y005857D01*
X017550Y006150D01*
X017964Y006150D01*
X018107Y006150D01*
X018107Y006050D02*
X018064Y006050D01*
X018057Y006057D02*
X018057Y006243D01*
X018064Y006250D02*
X018107Y006250D01*
X018107Y006293D02*
X017964Y006150D01*
X018107Y006007D01*
X018107Y006293D01*
X017964Y006150D02*
X017550Y006150D01*
X017557Y006150D02*
X017557Y006150D01*
X017657Y006150D02*
X017657Y006150D01*
X017757Y006150D02*
X017757Y006150D01*
X017857Y006150D02*
X017857Y006150D01*
X017957Y006150D02*
X017957Y006150D01*
X017257Y005750D02*
X016927Y005750D01*
X016927Y005650D02*
X017257Y005650D01*
X017257Y005550D02*
X016927Y005550D01*
X017550Y005150D02*
X017257Y004857D01*
X017257Y004443D01*
X017257Y003857D01*
X017257Y003443D01*
X017257Y002857D01*
X017257Y002443D01*
X017257Y002450D02*
X016927Y002450D01*
X016927Y002550D02*
X017257Y002550D01*
X017257Y002650D02*
X016927Y002650D01*
X016927Y002750D02*
X017257Y002750D01*
X017257Y002850D02*
X016927Y002850D01*
X016927Y002950D02*
X017350Y002950D01*
X017357Y002957D02*
X017357Y003343D01*
X017350Y003350D02*
X016927Y003350D01*
X016927Y003250D02*
X017450Y003250D01*
X017457Y003243D02*
X017457Y003057D01*
X017450Y003050D02*
X016927Y003050D01*
X016927Y003150D02*
X017550Y003150D01*
X017257Y002857D01*
X017550Y003150D02*
X017964Y003150D01*
X018107Y003150D01*
X018107Y003050D02*
X018064Y003050D01*
X018057Y003057D02*
X018057Y003243D01*
X018064Y003250D02*
X018107Y003250D01*
X018107Y003293D02*
X018107Y003007D01*
X017964Y003150D01*
X018107Y003293D01*
X017964Y003150D02*
X017550Y003150D01*
X017257Y003443D01*
X017257Y003450D02*
X016927Y003450D01*
X016927Y003550D02*
X017257Y003550D01*
X017257Y003650D02*
X016927Y003650D01*
X016927Y003750D02*
X017257Y003750D01*
X017257Y003850D02*
X016927Y003850D01*
X016927Y003950D02*
X017350Y003950D01*
X017357Y003957D02*
X017357Y004343D01*
X017350Y004350D02*
X016927Y004350D01*
X016927Y004250D02*
X017450Y004250D01*
X017457Y004243D02*
X017457Y004057D01*
X017450Y004050D02*
X016927Y004050D01*
X016927Y004150D02*
X017550Y004150D01*
X017257Y003857D01*
X017550Y004150D02*
X017964Y004150D01*
X018107Y004150D01*
X018107Y004050D02*
X018064Y004050D01*
X018057Y004057D02*
X018057Y004243D01*
X018064Y004250D02*
X018107Y004250D01*
X018107Y004293D02*
X018107Y004007D01*
X017964Y004150D01*
X018107Y004293D01*
X017964Y004150D02*
X017550Y004150D01*
X017257Y004443D01*
X017257Y004450D02*
X016927Y004450D01*
X016927Y004550D02*
X017257Y004550D01*
X017257Y004650D02*
X016927Y004650D01*
X016927Y004750D02*
X017257Y004750D01*
X017550Y005150D02*
X017964Y005150D01*
X018107Y005150D01*
X018107Y005250D02*
X018064Y005250D01*
X018057Y005243D02*
X018057Y005057D01*
X018064Y005050D02*
X018107Y005050D01*
X018107Y005007D02*
X017964Y005150D01*
X018107Y005293D01*
X018107Y005007D01*
X017964Y005150D02*
X017550Y005150D01*
X017557Y005150D02*
X017557Y005150D01*
X017657Y005150D02*
X017657Y005150D01*
X017757Y005150D02*
X017757Y005150D01*
X017857Y005150D02*
X017857Y005150D01*
X017957Y005150D02*
X017957Y005150D01*
X017957Y004150D02*
X017957Y004150D01*
X017857Y004150D02*
X017857Y004150D01*
X017757Y004150D02*
X017757Y004150D01*
X017657Y004150D02*
X017657Y004150D01*
X017557Y004150D02*
X017557Y004150D01*
X015987Y003550D02*
X015969Y003550D01*
X015857Y003570D02*
X015857Y004230D01*
X015657Y004297D02*
X015657Y003503D01*
X017557Y003150D02*
X017557Y003150D01*
X017657Y003150D02*
X017657Y003150D01*
X017757Y003150D02*
X017757Y003150D01*
X017857Y003150D02*
X017857Y003150D01*
X017957Y003150D02*
X017957Y003150D01*
X016352Y002150D02*
X014357Y002150D01*
X014357Y002050D02*
X016337Y002050D01*
X016769Y001750D02*
X017257Y001750D01*
X017450Y002050D02*
X016977Y002050D01*
X018057Y001243D02*
X018057Y000362D01*
X018045Y000350D02*
X017122Y000350D01*
X017157Y000385D02*
X017157Y000300D01*
X017222Y000450D02*
X018107Y000450D01*
X018107Y001250D02*
X018064Y001250D01*
X016707Y000650D02*
X016257Y000650D01*
X016457Y000600D02*
X016457Y000700D01*
X016557Y000700D02*
X016557Y000600D01*
X016657Y000600D02*
X016657Y000700D01*
X015400Y000300D02*
X015114Y000300D01*
X015257Y000443D01*
X015257Y000857D01*
X015257Y000443D01*
X015257Y000300D01*
X015157Y000300D02*
X015157Y000343D01*
X015164Y000350D02*
X015350Y000350D01*
X015357Y000343D02*
X015357Y000300D01*
X015400Y000300D02*
X015257Y000443D01*
X015257Y000450D02*
X015257Y000450D01*
X015257Y000550D02*
X015257Y000550D01*
X015257Y000650D02*
X015257Y000650D01*
X015257Y000750D02*
X015257Y000750D01*
X015257Y000850D02*
X015257Y000850D01*
X014881Y005235D02*
X012525Y005235D01*
X012439Y005321D01*
X012321Y005370D01*
X012194Y005370D01*
X012076Y005321D01*
X011990Y005235D01*
X011395Y005235D01*
X011429Y005269D01*
X011477Y005386D01*
X011477Y005514D01*
X011429Y005631D01*
X011339Y005721D01*
X011221Y005770D01*
X011094Y005770D01*
X011009Y005735D01*
X010634Y005735D01*
X010534Y005835D01*
X009934Y005835D01*
X009789Y005980D01*
X015481Y005980D01*
X015486Y005970D01*
X015394Y005970D01*
X015276Y005921D01*
X015186Y005831D01*
X015137Y005714D01*
X015137Y005592D01*
X015072Y005527D01*
X015072Y005427D01*
X014881Y005235D01*
X014896Y005250D02*
X012510Y005250D01*
X012557Y005235D02*
X012557Y005980D01*
X012457Y005980D02*
X012457Y005303D01*
X012369Y005350D02*
X014045Y005350D01*
X014057Y005345D02*
X014057Y005235D01*
X013957Y005235D02*
X013957Y005397D01*
X013976Y005379D02*
X014094Y005330D01*
X014221Y005330D01*
X014339Y005379D01*
X014425Y005465D01*
X014490Y005465D01*
X014576Y005379D01*
X014694Y005330D01*
X014821Y005330D01*
X014939Y005379D01*
X015029Y005469D01*
X015077Y005586D01*
X015077Y005714D01*
X015029Y005831D01*
X014939Y005921D01*
X014821Y005970D01*
X014694Y005970D01*
X014576Y005921D01*
X014490Y005835D01*
X014425Y005835D01*
X014339Y005921D01*
X014221Y005970D01*
X014094Y005970D01*
X013976Y005921D01*
X013886Y005831D01*
X013837Y005714D01*
X013837Y005586D01*
X013886Y005469D01*
X013976Y005379D01*
X013905Y005450D02*
X011477Y005450D01*
X011462Y005350D02*
X012145Y005350D01*
X012157Y005355D02*
X012157Y005980D01*
X012057Y005980D02*
X012057Y005303D01*
X012005Y005250D02*
X011410Y005250D01*
X011457Y005235D02*
X011457Y005338D01*
X011557Y005235D02*
X011557Y005980D01*
X011457Y005980D02*
X011457Y005562D01*
X011462Y005550D02*
X013852Y005550D01*
X013857Y005538D02*
X013857Y005235D01*
X013757Y005235D02*
X013757Y005980D01*
X013657Y005980D02*
X013657Y005235D01*
X013557Y005235D02*
X013557Y005980D01*
X013457Y005980D02*
X013457Y005235D01*
X013357Y005235D02*
X013357Y005980D01*
X013257Y005980D02*
X013257Y005235D01*
X013157Y005235D02*
X013157Y005980D01*
X013057Y005980D02*
X013057Y005235D01*
X012957Y005235D02*
X012957Y005980D01*
X012857Y005980D02*
X012857Y005235D01*
X012757Y005235D02*
X012757Y005980D01*
X012657Y005980D02*
X012657Y005235D01*
X012357Y005355D02*
X012357Y005980D01*
X012257Y005980D02*
X012257Y005370D01*
X011957Y005235D02*
X011957Y005980D01*
X011857Y005980D02*
X011857Y005235D01*
X011757Y005235D02*
X011757Y005980D01*
X011657Y005980D02*
X011657Y005235D01*
X011410Y005650D02*
X013837Y005650D01*
X013852Y005750D02*
X011269Y005750D01*
X011257Y005755D02*
X011257Y005980D01*
X011157Y005980D02*
X011157Y005770D01*
X011057Y005755D02*
X011057Y005980D01*
X010957Y005980D02*
X010957Y005735D01*
X011045Y005750D02*
X010619Y005750D01*
X010657Y005735D02*
X010657Y005980D01*
X010557Y005980D02*
X010557Y005812D01*
X010457Y005835D02*
X010457Y005980D01*
X010357Y005980D02*
X010357Y005835D01*
X010257Y005835D02*
X010257Y005980D01*
X010157Y005980D02*
X010157Y005835D01*
X010057Y005835D02*
X010057Y005980D01*
X009957Y005980D02*
X009957Y005835D01*
X009919Y005850D02*
X013905Y005850D01*
X013957Y005903D02*
X013957Y005980D01*
X014045Y005950D02*
X009819Y005950D01*
X009857Y005980D02*
X009857Y005912D01*
X009059Y005765D02*
X009037Y005714D01*
X009037Y005586D01*
X009086Y005469D01*
X009120Y005435D01*
X008977Y005435D01*
X008977Y005514D01*
X008929Y005631D01*
X008839Y005721D01*
X008763Y005752D01*
X008768Y005765D01*
X009059Y005765D01*
X009057Y005765D02*
X009057Y005762D01*
X009052Y005750D02*
X008769Y005750D01*
X008857Y005765D02*
X008857Y005703D01*
X008910Y005650D02*
X009037Y005650D01*
X009052Y005550D02*
X008962Y005550D01*
X008957Y005562D02*
X008957Y005765D01*
X009057Y005538D02*
X009057Y005435D01*
X009105Y005450D02*
X008977Y005450D01*
X008157Y005962D02*
X008157Y005980D01*
X010642Y005365D02*
X010642Y005235D01*
X010920Y005235D01*
X010886Y005269D01*
X010846Y005365D01*
X010642Y005365D01*
X010642Y005350D02*
X010852Y005350D01*
X010857Y005338D02*
X010857Y005235D01*
X010905Y005250D02*
X010642Y005250D01*
X010657Y005235D02*
X010657Y005365D01*
X010757Y005365D02*
X010757Y005235D01*
X010757Y005735D02*
X010757Y005980D01*
X010857Y005980D02*
X010857Y005735D01*
X011357Y005703D02*
X011357Y005980D01*
X013857Y005980D02*
X013857Y005762D01*
X014057Y005955D02*
X014057Y005980D01*
X014157Y005970D02*
X014157Y005980D01*
X014257Y005980D02*
X014257Y005955D01*
X014269Y005950D02*
X014645Y005950D01*
X014657Y005955D02*
X014657Y005980D01*
X014557Y005980D02*
X014557Y005903D01*
X014505Y005850D02*
X014410Y005850D01*
X014457Y005835D02*
X014457Y005980D01*
X014357Y005980D02*
X014357Y005903D01*
X014757Y005970D02*
X014757Y005980D01*
X014857Y005980D02*
X014857Y005955D01*
X014869Y005950D02*
X015345Y005950D01*
X015357Y005955D02*
X015357Y005980D01*
X015257Y005980D02*
X015257Y005903D01*
X015205Y005850D02*
X015010Y005850D01*
X014957Y005903D02*
X014957Y005980D01*
X015057Y005980D02*
X015057Y005762D01*
X015062Y005750D02*
X015152Y005750D01*
X015157Y005762D02*
X015157Y005980D01*
X015457Y005970D02*
X015457Y005980D01*
X015757Y005830D02*
X015757Y005762D01*
X015762Y005750D02*
X015987Y005750D01*
X015987Y005650D02*
X015777Y005650D01*
X015137Y005650D02*
X015077Y005650D01*
X015062Y005550D02*
X015096Y005550D01*
X015057Y005538D02*
X015057Y005412D01*
X015072Y005450D02*
X015010Y005450D01*
X014957Y005397D02*
X014957Y005312D01*
X014996Y005350D02*
X014869Y005350D01*
X014857Y005345D02*
X014857Y005235D01*
X014757Y005235D02*
X014757Y005330D01*
X014657Y005345D02*
X014657Y005235D01*
X014557Y005235D02*
X014557Y005397D01*
X014505Y005450D02*
X014410Y005450D01*
X014457Y005465D02*
X014457Y005235D01*
X014357Y005235D02*
X014357Y005397D01*
X014269Y005350D02*
X014645Y005350D01*
X014257Y005345D02*
X014257Y005235D01*
X014157Y005235D02*
X014157Y005330D01*
X016439Y006750D02*
X017257Y006750D01*
X016057Y006920D02*
X016057Y008380D01*
X016157Y008380D02*
X016157Y008362D01*
X017557Y008185D02*
X017557Y008115D01*
X007074Y004450D02*
X004657Y004450D01*
X004657Y004350D02*
X007057Y004350D01*
X007057Y004433D02*
X007057Y003867D01*
X007074Y003850D02*
X004657Y003850D01*
X004657Y003950D02*
X007057Y003950D01*
X007057Y004050D02*
X004657Y004050D01*
X004657Y004150D02*
X007057Y004150D01*
X007057Y004250D02*
X004657Y004250D01*
X005457Y002450D02*
X002957Y002450D01*
X006557Y001150D02*
X006557Y001150D01*
X006657Y001150D02*
X006657Y001150D01*
X006757Y001150D02*
X006757Y001150D01*
X006857Y001150D02*
X006857Y001150D01*
X006957Y001150D02*
X006957Y001150D01*
X007057Y001150D02*
X007057Y001057D01*
D16*
X002557Y003250D02*
X002423Y003116D01*
X001557Y003116D01*
X002557Y003250D02*
X002557Y003750D01*
X002301Y004494D02*
X001557Y004494D01*
X002301Y004494D02*
X002557Y004750D01*
X002557Y005750D02*
X002435Y005872D01*
X001557Y005872D01*
X002557Y006750D02*
X002557Y007150D01*
X002457Y007250D01*
X001557Y007250D01*
X005757Y005850D02*
X005857Y005750D01*
X007457Y005750D01*
D17*
X008257Y004850D02*
X008357Y004950D01*
X009957Y004950D01*
X009957Y004350D01*
X009957Y002950D01*
X008257Y004850D02*
X006557Y004850D01*
X005757Y004850D01*
X005657Y004850D01*
X005457Y004850D01*
X004757Y004850D01*
X002657Y004850D01*
X002557Y004750D01*
X014857Y004150D02*
X014857Y001450D01*
X016357Y001450D01*
X016757Y001050D01*
X016757Y000650D01*
X017057Y000950D01*
X017057Y007050D01*
X017057Y007650D01*
X017757Y007650D01*
X017057Y007650D02*
X017057Y008650D01*
X016757Y008950D01*
X016757Y009650D01*
X017057Y008650D02*
X017757Y008650D01*
D18*
X002957Y002450D03*
X005257Y001450D03*
X005457Y002150D03*
X008257Y001450D03*
X008757Y002030D03*
X010457Y002750D03*
X008757Y003230D03*
X007657Y004150D03*
X008668Y004433D03*
X009057Y004250D03*
X010457Y003850D03*
X011657Y004150D03*
X012157Y004550D03*
X012857Y004550D03*
X012257Y005050D03*
X011157Y005450D03*
X009357Y005650D03*
X008657Y005450D03*
X008457Y005850D03*
X007457Y005750D03*
X007457Y006250D03*
X006557Y007050D03*
X005257Y007050D03*
X005757Y006250D03*
X003857Y007050D03*
X003457Y006650D03*
X001157Y008050D03*
X004757Y004850D03*
X005757Y004850D03*
X006557Y004850D03*
X008657Y007650D03*
X008557Y008250D03*
X007957Y008250D03*
X008057Y009050D03*
X009357Y008250D03*
X009857Y007950D03*
X010857Y008150D03*
X011257Y007650D03*
X011657Y008150D03*
X012457Y008150D03*
X013557Y007950D03*
X014457Y007850D03*
X014357Y007150D03*
X013857Y007050D03*
X013357Y007050D03*
X014757Y007050D03*
X015257Y007050D03*
X015657Y006650D03*
X015757Y006150D03*
X015457Y005650D03*
X014757Y005650D03*
X014157Y005650D03*
X015557Y005050D03*
X015857Y004550D03*
X014857Y004150D03*
X013557Y003750D03*
X013157Y003350D03*
X012557Y002950D03*
X013257Y002850D03*
X013757Y002850D03*
X012457Y001550D03*
X013457Y001250D03*
X014157Y001250D03*
X016657Y002050D03*
X015857Y003250D03*
X011357Y001750D03*
X016657Y005950D03*
X015657Y007850D03*
X016457Y008250D03*
D19*
X016457Y008650D01*
X007957Y008650D01*
X007957Y008250D01*
X008057Y009050D02*
X015757Y009050D01*
X015757Y009650D01*
X015257Y007050D02*
X017057Y007050D01*
X016257Y006550D02*
X016157Y006650D01*
X015657Y006650D01*
X003457Y006650D01*
X003457Y008050D01*
X001157Y008050D01*
X003857Y007050D02*
X005257Y007050D01*
X006557Y007050D01*
X005757Y006250D02*
X005757Y005850D01*
X005757Y004950D01*
X005657Y004850D01*
X005457Y004850D02*
X005457Y002450D01*
X005457Y002150D01*
X009957Y002950D02*
X010157Y002750D01*
X010457Y002750D01*
X010557Y003750D02*
X010457Y003850D01*
X010557Y003750D02*
X013557Y003750D01*
X014857Y004150D02*
X011657Y004150D01*
X010857Y004150D01*
X010657Y004350D01*
X009957Y004350D01*
X007457Y006250D02*
X015557Y006250D01*
X015757Y006150D01*
X016257Y006550D02*
X016257Y003250D01*
X015857Y003250D01*
X016657Y002050D02*
X016657Y005950D01*
D20*
X015457Y005650D02*
X015257Y005450D01*
X015257Y005350D01*
X014957Y005050D01*
X012257Y005050D01*
X010557Y005050D01*
X010457Y005150D01*
X010457Y005350D01*
X010357Y005450D01*
X009557Y005450D01*
X009357Y005650D01*
X009457Y005650D01*
X009557Y005950D02*
X009857Y005650D01*
X010457Y005650D01*
X010557Y005550D01*
X011157Y005550D01*
X011167Y005540D01*
X011167Y005470D01*
X011157Y005450D01*
X010257Y005150D02*
X010257Y004850D01*
X010357Y004750D01*
X011857Y004750D01*
X011957Y004650D01*
X012057Y004650D01*
X012157Y004550D01*
X012257Y004450D01*
X012357Y004450D01*
X012457Y004550D01*
X012457Y004650D01*
X012657Y004850D01*
X015257Y004850D01*
X015457Y005050D01*
X015557Y005050D01*
X015857Y004550D02*
X012857Y004550D01*
X014157Y005650D02*
X014757Y005650D01*
X013357Y007050D02*
X013057Y006950D01*
X007157Y006950D01*
X006957Y007150D01*
X006957Y008850D01*
X006757Y009050D01*
X006157Y009050D01*
X005857Y009350D01*
X005857Y009550D01*
X005757Y009650D01*
X006757Y009650D02*
X007157Y009250D01*
X007157Y007350D01*
X007357Y007150D01*
X012757Y007150D01*
X013057Y007450D01*
X013557Y007450D01*
X013857Y007050D01*
X014257Y007150D02*
X014357Y007150D01*
X014257Y007150D02*
X013757Y007650D01*
X012957Y007650D01*
X012657Y007350D01*
X007557Y007350D01*
X007357Y007550D01*
X007357Y009250D01*
X007757Y009650D01*
X009457Y008250D02*
X009557Y008350D01*
X010857Y008350D01*
X010857Y008150D01*
X011257Y007650D02*
X008657Y007650D01*
X009157Y007850D02*
X009757Y007850D01*
X009857Y007950D01*
X009457Y008250D02*
X009357Y008250D01*
X009157Y007850D02*
X008757Y008250D01*
X008557Y008250D01*
X011657Y008150D02*
X012457Y008150D01*
X013557Y007950D02*
X013857Y007950D01*
X014357Y007450D01*
X014757Y007450D01*
X014757Y007050D01*
X014457Y007850D02*
X015657Y007850D01*
X010257Y005150D02*
X010157Y005250D01*
X008757Y005250D01*
X008657Y005350D01*
X008657Y005450D01*
X008457Y005850D02*
X008557Y005950D01*
X009557Y005950D01*
X009057Y004250D02*
X008957Y004150D01*
X007657Y004150D01*
X009457Y003750D02*
X009457Y002150D01*
X012457Y002150D01*
X012557Y002250D01*
X012557Y002950D01*
M02*
