G75*
%MOIN*%
%OFA0B0*%
%FSLAX24Y24*%
%IPPOS*%
%LPD*%
%AMOC8*
5,1,8,0,0,1.08239X$1,22.5*
%
%ADD10R,0.0415X0.0434*%
%ADD11R,0.0880X0.0880*%
%ADD12C,0.0880*%
%ADD13OC8,0.0780*%
%ADD14R,0.0950X0.0320*%
%ADD15R,0.0434X0.0415*%
%ADD16C,0.0257*%
%ADD17R,0.1376X0.0604*%
%ADD18R,0.0580X0.0300*%
%ADD19R,0.0300X0.0580*%
%ADD20C,0.0142*%
%ADD21R,0.0552X0.0297*%
%ADD22R,0.0600X0.0300*%
%ADD23R,0.1025X0.0710*%
%ADD24R,0.0580X0.0280*%
%ADD25R,0.0395X0.0434*%
%ADD26R,0.0580X0.0330*%
%ADD27R,0.0820X0.0820*%
%ADD28C,0.0820*%
D10*
X002729Y000850D03*
X003186Y000850D03*
X003186Y001550D03*
X002729Y001550D03*
X003429Y002450D03*
X003886Y002450D03*
X004529Y002150D03*
X004986Y002150D03*
X005929Y002150D03*
X006386Y002150D03*
X003886Y003050D03*
X003429Y003050D03*
X003429Y004450D03*
X003886Y004450D03*
X003986Y005050D03*
X003529Y005050D03*
X007029Y005050D03*
X007486Y005050D03*
X003086Y008750D03*
X002629Y008750D03*
X002629Y009450D03*
X003086Y009450D03*
X016329Y004950D03*
X016786Y004950D03*
X016786Y004450D03*
X016329Y004450D03*
X016329Y003850D03*
X016786Y003850D03*
X016786Y003350D03*
X016329Y003350D03*
D11*
X001557Y007250D03*
D12*
X001557Y005872D03*
X001557Y004494D03*
X001557Y003116D03*
D13*
X005757Y000650D03*
X006757Y000650D03*
X007757Y000650D03*
X008757Y000650D03*
X009757Y000650D03*
X010757Y000650D03*
X011757Y000650D03*
X012757Y000650D03*
X013757Y000650D03*
X014757Y000650D03*
X015757Y000650D03*
X016757Y000650D03*
X017757Y001650D03*
X017757Y002650D03*
X017757Y003650D03*
X017757Y004650D03*
X017757Y005650D03*
X017757Y006650D03*
X017757Y007650D03*
X017757Y008650D03*
X016757Y009650D03*
X015757Y009650D03*
X014757Y009650D03*
X013757Y009650D03*
X012757Y009650D03*
X011757Y009650D03*
X010757Y009650D03*
X009757Y009650D03*
X008757Y009650D03*
X007757Y009650D03*
X006757Y009650D03*
X005757Y009650D03*
D14*
X004827Y004400D03*
X004827Y003900D03*
X004827Y003400D03*
X004827Y002900D03*
X006887Y002900D03*
X006887Y003400D03*
X006887Y003900D03*
X006887Y004400D03*
D15*
X005757Y005322D03*
X006357Y005422D03*
X005757Y005778D03*
X006357Y005878D03*
X003457Y007322D03*
X003457Y007778D03*
X005957Y007722D03*
X006557Y007722D03*
X006557Y008178D03*
X005957Y008178D03*
X010057Y004778D03*
X010057Y004322D03*
X015357Y004122D03*
X015357Y004578D03*
X015357Y003678D03*
X015357Y003222D03*
X015157Y007522D03*
X015157Y007978D03*
X015157Y008422D03*
X015157Y008878D03*
X014357Y008978D03*
X014357Y008522D03*
X003457Y003978D03*
X003457Y003522D03*
D16*
X009985Y002337D02*
X009985Y002337D01*
X009985Y001763D01*
X009985Y001763D01*
X009985Y002337D01*
X009985Y002019D02*
X009985Y002019D01*
X009985Y002275D02*
X009985Y002275D01*
X010457Y002337D02*
X010457Y002337D01*
X010457Y001763D01*
X010457Y001763D01*
X010457Y002337D01*
X010457Y002019D02*
X010457Y002019D01*
X010457Y002275D02*
X010457Y002275D01*
X010930Y002337D02*
X010930Y002337D01*
X010930Y001763D01*
X010930Y001763D01*
X010930Y002337D01*
X010930Y002019D02*
X010930Y002019D01*
X010930Y002275D02*
X010930Y002275D01*
D17*
X010458Y002051D03*
D18*
X010967Y002848D03*
X010967Y003163D03*
X010967Y003478D03*
X010967Y003793D03*
X010967Y004107D03*
X010967Y004422D03*
X010967Y004737D03*
X010967Y005052D03*
X014347Y005052D03*
X014347Y004737D03*
X014347Y004422D03*
X014347Y004107D03*
X014347Y003793D03*
X014347Y003478D03*
X014347Y003163D03*
X014347Y002848D03*
X005167Y007480D03*
X005167Y007850D03*
X005167Y008220D03*
X004147Y008220D03*
X004147Y007850D03*
X004147Y007480D03*
D19*
X011555Y005640D03*
X011870Y005640D03*
X012185Y005640D03*
X012500Y005640D03*
X012815Y005640D03*
X013130Y005640D03*
X013445Y005640D03*
X013760Y005640D03*
X013760Y002260D03*
X013445Y002260D03*
X013130Y002260D03*
X012815Y002260D03*
X012500Y002260D03*
X012185Y002260D03*
X011870Y002260D03*
X011555Y002260D03*
D20*
X001046Y001016D02*
X001046Y000684D01*
X001046Y001016D02*
X001378Y001016D01*
X001378Y000684D01*
X001046Y000684D01*
X001046Y000825D02*
X001378Y000825D01*
X001378Y000966D02*
X001046Y000966D01*
X001737Y001016D02*
X001737Y000684D01*
X001737Y001016D02*
X002069Y001016D01*
X002069Y000684D01*
X001737Y000684D01*
X001737Y000825D02*
X002069Y000825D01*
X002069Y000966D02*
X001737Y000966D01*
X001737Y001384D02*
X001737Y001716D01*
X002069Y001716D01*
X002069Y001384D01*
X001737Y001384D01*
X001737Y001525D02*
X002069Y001525D01*
X002069Y001666D02*
X001737Y001666D01*
X001046Y001716D02*
X001046Y001384D01*
X001046Y001716D02*
X001378Y001716D01*
X001378Y001384D01*
X001046Y001384D01*
X001046Y001525D02*
X001378Y001525D01*
X001378Y001666D02*
X001046Y001666D01*
X001046Y008584D02*
X001046Y008916D01*
X001378Y008916D01*
X001378Y008584D01*
X001046Y008584D01*
X001046Y008725D02*
X001378Y008725D01*
X001378Y008866D02*
X001046Y008866D01*
X001046Y009284D02*
X001046Y009616D01*
X001378Y009616D01*
X001378Y009284D01*
X001046Y009284D01*
X001046Y009425D02*
X001378Y009425D01*
X001378Y009566D02*
X001046Y009566D01*
X001737Y009616D02*
X001737Y009284D01*
X001737Y009616D02*
X002069Y009616D01*
X002069Y009284D01*
X001737Y009284D01*
X001737Y009425D02*
X002069Y009425D01*
X002069Y009566D02*
X001737Y009566D01*
X001737Y008916D02*
X001737Y008584D01*
X001737Y008916D02*
X002069Y008916D01*
X002069Y008584D01*
X001737Y008584D01*
X001737Y008725D02*
X002069Y008725D01*
X002069Y008866D02*
X001737Y008866D01*
D21*
X006945Y006324D03*
X006945Y005950D03*
X006945Y005576D03*
X007969Y005576D03*
X007969Y006324D03*
D22*
X005027Y006320D03*
X004087Y006320D03*
X004087Y005950D03*
X004087Y005580D03*
X005027Y005580D03*
D23*
X016257Y002641D03*
X016257Y001459D03*
X016457Y007659D03*
X016457Y008841D03*
D24*
X016357Y006970D03*
X016357Y006650D03*
X016357Y006330D03*
X015257Y002008D03*
X015257Y001688D03*
X008157Y002030D03*
X008157Y002350D03*
X008157Y002670D03*
X008157Y003230D03*
X008157Y003550D03*
X008157Y003870D03*
X008157Y004430D03*
X008157Y004750D03*
X008157Y005070D03*
X007757Y001512D03*
X007757Y001192D03*
X006757Y001192D03*
X006757Y001512D03*
X005757Y001512D03*
X005757Y001192D03*
D25*
X007083Y007156D03*
X007831Y007156D03*
X007457Y007983D03*
D26*
X010457Y008473D03*
X010457Y008827D03*
X011257Y008827D03*
X011257Y008473D03*
X012057Y008473D03*
X012057Y008827D03*
X012857Y008827D03*
X012857Y008473D03*
X013657Y008473D03*
X013657Y008827D03*
D27*
X002557Y006750D03*
D28*
X002557Y005750D03*
X002557Y004750D03*
X002557Y003750D03*
M02*
