G75*
%MOIN*%
%OFA0B0*%
%FSLAX24Y24*%
%IPPOS*%
%LPD*%
%AMOC8*
5,1,8,0,0,1.08239X$1,22.5*
%
%ADD10R,0.0335X0.0354*%
%ADD11R,0.0870X0.0240*%
%ADD12R,0.0354X0.0335*%
%ADD13C,0.0177*%
%ADD14R,0.0500X0.0220*%
%ADD15R,0.0220X0.0500*%
%ADD16C,0.0118*%
%ADD17R,0.0472X0.0217*%
%ADD18R,0.0520X0.0220*%
%ADD19R,0.0945X0.0630*%
%ADD20R,0.0790X0.0670*%
%ADD21R,0.0315X0.0354*%
%ADD22R,0.0800X0.0800*%
D10*
X002729Y000850D03*
X003186Y000850D03*
X003186Y001550D03*
X002729Y001550D03*
X003429Y002450D03*
X003886Y002450D03*
X004529Y002150D03*
X004986Y002150D03*
X005929Y002150D03*
X006386Y002150D03*
X003886Y003050D03*
X003429Y003050D03*
X003429Y004450D03*
X003886Y004450D03*
X003986Y005050D03*
X003529Y005050D03*
X007029Y005050D03*
X007486Y005050D03*
X003086Y008750D03*
X002629Y008750D03*
X002629Y009450D03*
X003086Y009450D03*
X016329Y004950D03*
X016786Y004950D03*
X016786Y004450D03*
X016329Y004450D03*
X016329Y003850D03*
X016786Y003850D03*
X016786Y003350D03*
X016329Y003350D03*
D11*
X006887Y003400D03*
X006887Y003900D03*
X006887Y004400D03*
X004827Y004400D03*
X004827Y003900D03*
X004827Y003400D03*
X004827Y002900D03*
X006887Y002900D03*
D12*
X010057Y004322D03*
X010057Y004778D03*
X006357Y005422D03*
X005757Y005322D03*
X005757Y005778D03*
X006357Y005878D03*
X003457Y007322D03*
X003457Y007778D03*
X005957Y007722D03*
X006557Y007722D03*
X006557Y008178D03*
X005957Y008178D03*
X003457Y003978D03*
X003457Y003522D03*
X014357Y008522D03*
X014357Y008978D03*
X015157Y008878D03*
X015157Y008422D03*
X015157Y007978D03*
X015157Y007522D03*
X015357Y004578D03*
X015357Y004122D03*
X015357Y003678D03*
X015357Y003222D03*
D13*
X010930Y002337D02*
X010930Y002337D01*
X010930Y001763D01*
X010930Y001763D01*
X010930Y002337D01*
X010930Y001939D02*
X010930Y001939D01*
X010930Y002115D02*
X010930Y002115D01*
X010930Y002291D02*
X010930Y002291D01*
X010457Y002337D02*
X010457Y002337D01*
X010457Y001763D01*
X010457Y001763D01*
X010457Y002337D01*
X010457Y001939D02*
X010457Y001939D01*
X010457Y002115D02*
X010457Y002115D01*
X010457Y002291D02*
X010457Y002291D01*
X009985Y002337D02*
X009985Y002337D01*
X009985Y001763D01*
X009985Y001763D01*
X009985Y002337D01*
X009985Y001939D02*
X009985Y001939D01*
X009985Y002115D02*
X009985Y002115D01*
X009985Y002291D02*
X009985Y002291D01*
D14*
X010967Y002848D03*
X010967Y003163D03*
X010967Y003478D03*
X010967Y003793D03*
X010967Y004107D03*
X010967Y004422D03*
X010967Y004737D03*
X010967Y005052D03*
X014347Y005052D03*
X014347Y004737D03*
X014347Y004422D03*
X014347Y004107D03*
X014347Y003793D03*
X014347Y003478D03*
X014347Y003163D03*
X014347Y002848D03*
X005167Y007480D03*
X005167Y007850D03*
X005167Y008220D03*
X004147Y008220D03*
X004147Y007850D03*
X004147Y007480D03*
D15*
X011555Y005640D03*
X011870Y005640D03*
X012185Y005640D03*
X012500Y005640D03*
X012815Y005640D03*
X013130Y005640D03*
X013445Y005640D03*
X013760Y005640D03*
X013760Y002260D03*
X013445Y002260D03*
X013130Y002260D03*
X012815Y002260D03*
X012500Y002260D03*
X012185Y002260D03*
X011870Y002260D03*
X011555Y002260D03*
D16*
X001074Y000988D02*
X001074Y000712D01*
X001074Y000988D02*
X001350Y000988D01*
X001350Y000712D01*
X001074Y000712D01*
X001074Y000829D02*
X001350Y000829D01*
X001350Y000946D02*
X001074Y000946D01*
X001765Y000988D02*
X001765Y000712D01*
X001765Y000988D02*
X002041Y000988D01*
X002041Y000712D01*
X001765Y000712D01*
X001765Y000829D02*
X002041Y000829D01*
X002041Y000946D02*
X001765Y000946D01*
X001765Y001412D02*
X001765Y001688D01*
X002041Y001688D01*
X002041Y001412D01*
X001765Y001412D01*
X001765Y001529D02*
X002041Y001529D01*
X002041Y001646D02*
X001765Y001646D01*
X001074Y001688D02*
X001074Y001412D01*
X001074Y001688D02*
X001350Y001688D01*
X001350Y001412D01*
X001074Y001412D01*
X001074Y001529D02*
X001350Y001529D01*
X001350Y001646D02*
X001074Y001646D01*
X001074Y008612D02*
X001074Y008888D01*
X001350Y008888D01*
X001350Y008612D01*
X001074Y008612D01*
X001074Y008729D02*
X001350Y008729D01*
X001350Y008846D02*
X001074Y008846D01*
X001765Y008888D02*
X001765Y008612D01*
X001765Y008888D02*
X002041Y008888D01*
X002041Y008612D01*
X001765Y008612D01*
X001765Y008729D02*
X002041Y008729D01*
X002041Y008846D02*
X001765Y008846D01*
X001765Y009312D02*
X001765Y009588D01*
X002041Y009588D01*
X002041Y009312D01*
X001765Y009312D01*
X001765Y009429D02*
X002041Y009429D01*
X002041Y009546D02*
X001765Y009546D01*
X001074Y009588D02*
X001074Y009312D01*
X001074Y009588D02*
X001350Y009588D01*
X001350Y009312D01*
X001074Y009312D01*
X001074Y009429D02*
X001350Y009429D01*
X001350Y009546D02*
X001074Y009546D01*
D17*
X006945Y006324D03*
X006945Y005950D03*
X006945Y005576D03*
X007969Y005576D03*
X007969Y006324D03*
D18*
X005027Y006320D03*
X004087Y006320D03*
X004087Y005950D03*
X004087Y005580D03*
X005027Y005580D03*
D19*
X016257Y002641D03*
X016257Y001459D03*
X016457Y007659D03*
X016457Y008841D03*
D20*
X016362Y006475D03*
X008152Y004925D03*
X008152Y003725D03*
X008152Y002525D03*
D21*
X007831Y007156D03*
X007083Y007156D03*
X007457Y007983D03*
D22*
X015257Y001850D03*
X007757Y001350D03*
X006757Y001350D03*
X005757Y001350D03*
M02*
