G75*
%MOIN*%
%OFA0B0*%
%FSLAX24Y24*%
%IPPOS*%
%LPD*%
%AMOC8*
5,1,8,0,0,1.08239X$1,22.5*
%
%ADD10C,0.0060*%
%ADD11C,0.0160*%
%ADD12C,0.0050*%
%ADD13C,0.0080*%
%ADD14C,0.0040*%
%ADD15R,0.0160X0.0280*%
%ADD16C,0.0000*%
%ADD17R,0.0280X0.0160*%
%ADD18C,0.0100*%
D10*
X005147Y002720D02*
X006567Y002720D01*
X006567Y004580D02*
X005147Y004580D01*
X004697Y005360D02*
X004417Y005360D01*
X004417Y006540D02*
X004697Y006540D01*
X004647Y006460D02*
X004632Y006447D01*
X004615Y006437D01*
X004596Y006429D01*
X004577Y006425D01*
X004557Y006423D01*
X004537Y006425D01*
X004518Y006429D01*
X004499Y006437D01*
X004482Y006447D01*
X004467Y006460D01*
X004517Y007260D02*
X004797Y007260D01*
X004747Y007340D02*
X004732Y007353D01*
X004715Y007363D01*
X004696Y007371D01*
X004677Y007375D01*
X004657Y007377D01*
X004637Y007375D01*
X004618Y007371D01*
X004599Y007363D01*
X004582Y007353D01*
X004567Y007340D01*
X004517Y008440D02*
X004797Y008440D01*
X011277Y005190D02*
X011417Y005330D01*
X014037Y005330D01*
X014037Y002570D01*
X011277Y002570D01*
X011277Y005190D01*
X011436Y005030D02*
X011438Y005053D01*
X011444Y005076D01*
X011453Y005097D01*
X011466Y005117D01*
X011482Y005134D01*
X011500Y005148D01*
X011520Y005159D01*
X011542Y005167D01*
X011565Y005171D01*
X011589Y005171D01*
X011612Y005167D01*
X011634Y005159D01*
X011654Y005148D01*
X011672Y005134D01*
X011688Y005117D01*
X011701Y005097D01*
X011710Y005076D01*
X011716Y005053D01*
X011718Y005030D01*
X011716Y005007D01*
X011710Y004984D01*
X011701Y004963D01*
X011688Y004943D01*
X011672Y004926D01*
X011654Y004912D01*
X011634Y004901D01*
X011612Y004893D01*
X011589Y004889D01*
X011565Y004889D01*
X011542Y004893D01*
X011520Y004901D01*
X011500Y004912D01*
X011482Y004926D01*
X011466Y004943D01*
X011453Y004963D01*
X011444Y004984D01*
X011438Y005007D01*
X011436Y005030D01*
X016851Y006037D02*
X016907Y005980D01*
X017021Y005980D01*
X017078Y006037D01*
X017078Y006093D01*
X017021Y006150D01*
X016964Y006150D01*
X017021Y006150D02*
X017078Y006207D01*
X017078Y006264D01*
X017021Y006320D01*
X016907Y006320D01*
X016851Y006264D01*
X017219Y006320D02*
X017219Y006093D01*
X017332Y005980D01*
X017446Y006093D01*
X017446Y006320D01*
X017332Y006880D02*
X017446Y006993D01*
X017446Y007220D01*
X017219Y007220D02*
X017219Y006993D01*
X017332Y006880D01*
X017078Y006937D02*
X017078Y007050D01*
X017021Y007107D01*
X016964Y007107D01*
X016851Y007050D01*
X016851Y007220D01*
X017078Y007220D01*
X017078Y006937D02*
X017021Y006880D01*
X016907Y006880D01*
X016851Y006937D01*
D11*
X015169Y007750D02*
X015145Y007750D01*
X016557Y004962D02*
X016557Y004938D01*
X015369Y004350D02*
X015345Y004350D01*
X015369Y003450D02*
X015345Y003450D01*
X010069Y004550D02*
X010045Y004550D01*
X007257Y005038D02*
X007257Y005062D01*
X005769Y005550D02*
X005745Y005550D01*
X004757Y002162D02*
X004757Y002138D01*
D12*
X004307Y002100D02*
X004307Y002055D01*
X004127Y001875D01*
X004307Y001875D01*
X004307Y002100D02*
X004262Y002145D01*
X004172Y002145D01*
X004127Y002100D01*
X004012Y002100D02*
X003967Y002145D01*
X003877Y002145D01*
X003832Y002100D01*
X003832Y001920D01*
X003877Y001875D01*
X003967Y001875D01*
X004012Y001920D01*
X003912Y001645D02*
X003822Y001645D01*
X003777Y001600D01*
X003662Y001600D02*
X003662Y001510D01*
X003617Y001465D01*
X003482Y001465D01*
X003482Y001375D02*
X003482Y001645D01*
X003617Y001645D01*
X003662Y001600D01*
X003572Y001465D02*
X003662Y001375D01*
X003777Y001375D02*
X003957Y001555D01*
X003957Y001600D01*
X003912Y001645D01*
X003957Y001375D02*
X003777Y001375D01*
X003867Y000945D02*
X003867Y000675D01*
X003777Y000675D02*
X003957Y000675D01*
X003777Y000855D02*
X003867Y000945D01*
X003662Y000900D02*
X003662Y000810D01*
X003617Y000765D01*
X003482Y000765D01*
X003482Y000675D02*
X003482Y000945D01*
X003617Y000945D01*
X003662Y000900D01*
X003572Y000765D02*
X003662Y000675D01*
X004182Y002375D02*
X004182Y002645D01*
X004317Y002645D01*
X004362Y002600D01*
X004362Y002510D01*
X004317Y002465D01*
X004182Y002465D01*
X004272Y002465D02*
X004362Y002375D01*
X004477Y002510D02*
X004657Y002510D01*
X004612Y002375D02*
X004612Y002645D01*
X004477Y002510D01*
X004212Y003275D02*
X004122Y003275D01*
X004077Y003320D01*
X004077Y003410D02*
X004167Y003455D01*
X004212Y003455D01*
X004257Y003410D01*
X004257Y003320D01*
X004212Y003275D01*
X003962Y003275D02*
X003872Y003365D01*
X003917Y003365D02*
X003782Y003365D01*
X003782Y003275D02*
X003782Y003545D01*
X003917Y003545D01*
X003962Y003500D01*
X003962Y003410D01*
X003917Y003365D01*
X004077Y003410D02*
X004077Y003545D01*
X004257Y003545D01*
X004077Y003775D02*
X004077Y003820D01*
X004257Y004000D01*
X004257Y004045D01*
X004077Y004045D01*
X003962Y004000D02*
X003962Y003910D01*
X003917Y003865D01*
X003782Y003865D01*
X003782Y003775D02*
X003782Y004045D01*
X003917Y004045D01*
X003962Y004000D01*
X003872Y003865D02*
X003962Y003775D01*
X004182Y004575D02*
X004182Y004845D01*
X004317Y004845D01*
X004362Y004800D01*
X004362Y004710D01*
X004317Y004665D01*
X004182Y004665D01*
X004272Y004665D02*
X004362Y004575D01*
X004477Y004620D02*
X004522Y004575D01*
X004612Y004575D01*
X004657Y004620D01*
X004657Y004800D01*
X004612Y004845D01*
X004522Y004845D01*
X004477Y004800D01*
X004477Y004755D01*
X004522Y004710D01*
X004657Y004710D01*
X004667Y005075D02*
X004667Y005345D01*
X004577Y005255D01*
X004462Y005300D02*
X004462Y005210D01*
X004417Y005165D01*
X004282Y005165D01*
X004282Y005075D02*
X004282Y005345D01*
X004417Y005345D01*
X004462Y005300D01*
X004372Y005165D02*
X004462Y005075D01*
X004577Y005075D02*
X004757Y005075D01*
X004872Y005075D02*
X005052Y005075D01*
X004962Y005075D02*
X004962Y005345D01*
X004872Y005255D01*
X005527Y005975D02*
X005482Y006020D01*
X005482Y006200D01*
X005527Y006245D01*
X005617Y006245D01*
X005662Y006200D01*
X005777Y006200D02*
X005777Y006155D01*
X005822Y006110D01*
X005912Y006110D01*
X005957Y006065D01*
X005957Y006020D01*
X005912Y005975D01*
X005822Y005975D01*
X005777Y006020D01*
X005777Y006065D01*
X005822Y006110D01*
X005912Y006110D02*
X005957Y006155D01*
X005957Y006200D01*
X005912Y006245D01*
X005822Y006245D01*
X005777Y006200D01*
X005662Y006020D02*
X005617Y005975D01*
X005527Y005975D01*
X005898Y006455D02*
X005898Y006725D01*
X006033Y006725D01*
X006079Y006680D01*
X006079Y006590D01*
X006033Y006545D01*
X005898Y006545D01*
X005988Y006545D02*
X006079Y006455D01*
X006193Y006455D02*
X006373Y006455D01*
X006283Y006455D02*
X006283Y006725D01*
X006193Y006635D01*
X006488Y006680D02*
X006533Y006725D01*
X006623Y006725D01*
X006668Y006680D01*
X006668Y006635D01*
X006488Y006455D01*
X006668Y006455D01*
X007332Y006770D02*
X007377Y006725D01*
X007467Y006725D01*
X007512Y006770D01*
X007512Y006995D01*
X007627Y006950D02*
X007672Y006995D01*
X007762Y006995D01*
X007807Y006950D01*
X007807Y006905D01*
X007762Y006860D01*
X007807Y006815D01*
X007807Y006770D01*
X007762Y006725D01*
X007672Y006725D01*
X007627Y006770D01*
X007717Y006860D02*
X007762Y006860D01*
X007332Y006770D02*
X007332Y006995D01*
X007302Y008275D02*
X007257Y008320D01*
X007257Y008500D01*
X007302Y008545D01*
X007392Y008545D01*
X007437Y008500D01*
X007437Y008320D01*
X007392Y008275D01*
X007302Y008275D01*
X007347Y008365D02*
X007437Y008275D01*
X007552Y008275D02*
X007732Y008455D01*
X007732Y008500D01*
X007687Y008545D01*
X007597Y008545D01*
X007552Y008500D01*
X007552Y008275D02*
X007732Y008275D01*
X006732Y008475D02*
X006462Y008475D01*
X006462Y008610D01*
X006507Y008655D01*
X006597Y008655D01*
X006642Y008610D01*
X006642Y008475D01*
X006642Y008565D02*
X006732Y008655D01*
X006732Y008770D02*
X006732Y008950D01*
X006732Y008860D02*
X006462Y008860D01*
X006552Y008770D01*
X006597Y009064D02*
X006597Y009244D01*
X006462Y009199D02*
X006597Y009064D01*
X006732Y009199D02*
X006462Y009199D01*
X006032Y009199D02*
X006032Y009109D01*
X005987Y009064D01*
X005897Y009064D02*
X005852Y009154D01*
X005852Y009199D01*
X005897Y009244D01*
X005987Y009244D01*
X006032Y009199D01*
X005897Y009064D02*
X005762Y009064D01*
X005762Y009244D01*
X005762Y008860D02*
X006032Y008860D01*
X006032Y008770D02*
X006032Y008950D01*
X005852Y008770D02*
X005762Y008860D01*
X005807Y008655D02*
X005897Y008655D01*
X005942Y008610D01*
X005942Y008475D01*
X005942Y008565D02*
X006032Y008655D01*
X005807Y008655D02*
X005762Y008610D01*
X005762Y008475D01*
X006032Y008475D01*
X004957Y008575D02*
X004777Y008575D01*
X004867Y008575D02*
X004867Y008845D01*
X004777Y008755D01*
X004662Y008800D02*
X004662Y008620D01*
X004617Y008575D01*
X004527Y008575D01*
X004482Y008620D01*
X004482Y008800D01*
X004527Y008845D01*
X004617Y008845D01*
X004662Y008800D01*
X004572Y008665D02*
X004662Y008575D01*
X004152Y008620D02*
X004152Y008665D01*
X004107Y008710D01*
X003972Y008710D01*
X003972Y008620D01*
X004017Y008575D01*
X004107Y008575D01*
X004152Y008620D01*
X004062Y008800D02*
X003972Y008710D01*
X004062Y008800D02*
X004152Y008845D01*
X003767Y008845D02*
X003767Y008575D01*
X003677Y008575D02*
X003857Y008575D01*
X003562Y008575D02*
X003472Y008665D01*
X003517Y008665D02*
X003382Y008665D01*
X003382Y008575D02*
X003382Y008845D01*
X003517Y008845D01*
X003562Y008800D01*
X003562Y008710D01*
X003517Y008665D01*
X003677Y008755D02*
X003767Y008845D01*
X003807Y008345D02*
X003852Y008300D01*
X003852Y008255D01*
X003807Y008210D01*
X003852Y008165D01*
X003852Y008120D01*
X003807Y008075D01*
X003717Y008075D01*
X003672Y008120D01*
X003557Y008075D02*
X003377Y008075D01*
X003467Y008075D02*
X003467Y008345D01*
X003377Y008255D01*
X003262Y008210D02*
X003217Y008165D01*
X003082Y008165D01*
X003082Y008075D02*
X003082Y008345D01*
X003217Y008345D01*
X003262Y008300D01*
X003262Y008210D01*
X003172Y008165D02*
X003262Y008075D01*
X003672Y008300D02*
X003717Y008345D01*
X003807Y008345D01*
X003807Y008210D02*
X003762Y008210D01*
X003677Y009375D02*
X003857Y009555D01*
X003857Y009600D01*
X003812Y009645D01*
X003722Y009645D01*
X003677Y009600D01*
X003562Y009600D02*
X003562Y009510D01*
X003517Y009465D01*
X003382Y009465D01*
X003382Y009375D02*
X003382Y009645D01*
X003517Y009645D01*
X003562Y009600D01*
X003472Y009465D02*
X003562Y009375D01*
X003677Y009375D02*
X003857Y009375D01*
X003972Y009510D02*
X004152Y009510D01*
X004107Y009375D02*
X004107Y009645D01*
X003972Y009510D01*
X003982Y006945D02*
X003982Y006720D01*
X004027Y006675D01*
X004117Y006675D01*
X004162Y006720D01*
X004162Y006945D01*
X004277Y006810D02*
X004457Y006810D01*
X004412Y006675D02*
X004412Y006945D01*
X004277Y006810D01*
X006193Y005180D02*
X006193Y005000D01*
X006238Y004955D01*
X006328Y004955D01*
X006373Y005000D01*
X006488Y005000D02*
X006488Y005090D01*
X006623Y005090D01*
X006668Y005045D01*
X006668Y005000D01*
X006623Y004955D01*
X006533Y004955D01*
X006488Y005000D01*
X006488Y005090D02*
X006578Y005180D01*
X006668Y005225D01*
X006373Y005180D02*
X006328Y005225D01*
X006238Y005225D01*
X006193Y005180D01*
X009782Y005120D02*
X009827Y005075D01*
X009917Y005075D01*
X009962Y005120D01*
X010077Y005120D02*
X010122Y005075D01*
X010212Y005075D01*
X010257Y005120D01*
X010257Y005210D01*
X010212Y005255D01*
X010167Y005255D01*
X010077Y005210D01*
X010077Y005345D01*
X010257Y005345D01*
X009962Y005300D02*
X009917Y005345D01*
X009827Y005345D01*
X009782Y005300D01*
X009782Y005120D01*
X010832Y005420D02*
X010832Y005645D01*
X011012Y005645D02*
X011012Y005420D01*
X010967Y005375D01*
X010877Y005375D01*
X010832Y005420D01*
X011127Y005375D02*
X011307Y005555D01*
X011307Y005600D01*
X011262Y005645D01*
X011172Y005645D01*
X011127Y005600D01*
X011127Y005375D02*
X011307Y005375D01*
X014793Y005080D02*
X014793Y004900D01*
X014838Y004855D01*
X014928Y004855D01*
X014973Y004900D01*
X015088Y004990D02*
X015268Y004990D01*
X015223Y004855D02*
X015223Y005125D01*
X015088Y004990D01*
X014973Y005080D02*
X014928Y005125D01*
X014838Y005125D01*
X014793Y005080D01*
X016582Y005320D02*
X016627Y005275D01*
X016717Y005275D01*
X016762Y005320D01*
X016877Y005320D02*
X016877Y005275D01*
X016877Y005320D02*
X017057Y005500D01*
X017057Y005545D01*
X016877Y005545D01*
X016762Y005500D02*
X016717Y005545D01*
X016627Y005545D01*
X016582Y005500D01*
X016582Y005320D01*
X017062Y004899D02*
X017107Y004944D01*
X017287Y004764D01*
X017332Y004809D01*
X017332Y004899D01*
X017287Y004944D01*
X017107Y004944D01*
X017062Y004899D02*
X017062Y004809D01*
X017107Y004764D01*
X017287Y004764D01*
X017332Y004650D02*
X017332Y004470D01*
X017332Y004560D02*
X017062Y004560D01*
X017152Y004470D01*
X017107Y004355D02*
X017197Y004355D01*
X017242Y004310D01*
X017242Y004175D01*
X017242Y004265D02*
X017332Y004355D01*
X017332Y004175D02*
X017062Y004175D01*
X017062Y004310D01*
X017107Y004355D01*
X017107Y004050D02*
X017152Y004050D01*
X017197Y004005D01*
X017197Y003915D01*
X017152Y003870D01*
X017107Y003870D01*
X017062Y003915D01*
X017062Y004005D01*
X017107Y004050D01*
X017197Y004005D02*
X017242Y004050D01*
X017287Y004050D01*
X017332Y004005D01*
X017332Y003915D01*
X017287Y003870D01*
X017242Y003870D01*
X017197Y003915D01*
X017197Y003755D02*
X017107Y003755D01*
X017062Y003710D01*
X017062Y003575D01*
X017332Y003575D01*
X017242Y003575D02*
X017242Y003710D01*
X017197Y003755D01*
X017242Y003665D02*
X017332Y003755D01*
X017368Y003025D02*
X017278Y002980D01*
X017188Y002890D01*
X017323Y002890D01*
X017368Y002845D01*
X017368Y002800D01*
X017323Y002755D01*
X017233Y002755D01*
X017188Y002800D01*
X017188Y002890D01*
X017073Y002890D02*
X017028Y002845D01*
X016893Y002845D01*
X016893Y002755D02*
X016893Y003025D01*
X017028Y003025D01*
X017073Y002980D01*
X017073Y002890D01*
X016983Y002845D02*
X017073Y002755D01*
X015368Y002745D02*
X015368Y002700D01*
X015323Y002655D01*
X015233Y002655D01*
X015188Y002700D01*
X015073Y002700D02*
X015028Y002655D01*
X014938Y002655D01*
X014893Y002700D01*
X014893Y002880D01*
X014938Y002925D01*
X015028Y002925D01*
X015073Y002880D01*
X015188Y002880D02*
X015233Y002925D01*
X015323Y002925D01*
X015368Y002880D01*
X015368Y002835D01*
X015323Y002790D01*
X015368Y002745D01*
X015323Y002790D02*
X015278Y002790D01*
X014337Y001845D02*
X014247Y001845D01*
X014202Y001800D01*
X014087Y001845D02*
X013997Y001845D01*
X014042Y001845D02*
X014042Y001620D01*
X013997Y001575D01*
X013952Y001575D01*
X013907Y001620D01*
X014202Y001575D02*
X014382Y001755D01*
X014382Y001800D01*
X014337Y001845D01*
X014382Y001575D02*
X014202Y001575D01*
X017032Y001350D02*
X017032Y001170D01*
X017077Y001125D01*
X017167Y001125D01*
X017212Y001170D01*
X017327Y001125D02*
X017507Y001125D01*
X017417Y001125D02*
X017417Y001395D01*
X017327Y001305D01*
X017212Y001350D02*
X017167Y001395D01*
X017077Y001395D01*
X017032Y001350D01*
X009518Y001855D02*
X009338Y001855D01*
X009428Y001855D02*
X009428Y002125D01*
X009338Y002035D01*
X009223Y002125D02*
X009043Y001855D01*
X009223Y001855D02*
X009043Y002125D01*
X007268Y002455D02*
X007088Y002455D01*
X007178Y002455D02*
X007178Y002725D01*
X007088Y002635D01*
X006973Y002725D02*
X006973Y002500D01*
X006928Y002455D01*
X006838Y002455D01*
X006793Y002500D01*
X006793Y002725D01*
X006817Y002145D02*
X006682Y002145D01*
X006682Y001875D01*
X006682Y001965D02*
X006817Y001965D01*
X006862Y002010D01*
X006862Y002100D01*
X006817Y002145D01*
X006977Y002100D02*
X007022Y002145D01*
X007112Y002145D01*
X007157Y002100D01*
X007157Y002055D01*
X007112Y002010D01*
X007157Y001965D01*
X007157Y001920D01*
X007112Y001875D01*
X007022Y001875D01*
X006977Y001920D01*
X006862Y001875D02*
X006772Y001965D01*
X007067Y002010D02*
X007112Y002010D01*
X014993Y006500D02*
X015038Y006455D01*
X015083Y006455D01*
X015128Y006500D01*
X015128Y006725D01*
X015083Y006725D02*
X015173Y006725D01*
X015288Y006635D02*
X015378Y006725D01*
X015378Y006455D01*
X015288Y006455D02*
X015468Y006455D01*
X014787Y007475D02*
X014607Y007475D01*
X014562Y007520D01*
X014562Y007610D01*
X014607Y007655D01*
X014607Y007770D02*
X014652Y007770D01*
X014697Y007815D01*
X014697Y007950D01*
X014607Y007950D02*
X014562Y007905D01*
X014562Y007815D01*
X014607Y007770D01*
X014452Y007736D02*
X014452Y007916D01*
X014452Y008030D02*
X014272Y008211D01*
X014227Y008211D01*
X014182Y008165D01*
X014182Y008075D01*
X014227Y008030D01*
X014227Y007916D02*
X014182Y007871D01*
X014182Y007781D01*
X014227Y007736D01*
X014227Y007916D02*
X014272Y007916D01*
X014452Y007736D01*
X014452Y007621D02*
X014362Y007531D01*
X014362Y007576D02*
X014362Y007441D01*
X014452Y007441D02*
X014182Y007441D01*
X014182Y007576D01*
X014227Y007621D01*
X014317Y007621D01*
X014362Y007576D01*
X014787Y007655D02*
X014832Y007610D01*
X014832Y007520D01*
X014787Y007475D01*
X014787Y007770D02*
X014832Y007815D01*
X014832Y007905D01*
X014787Y007950D01*
X014607Y007950D01*
X014452Y008030D02*
X014452Y008211D01*
X014562Y008225D02*
X014562Y008360D01*
X014607Y008405D01*
X014697Y008405D01*
X014742Y008360D01*
X014742Y008225D01*
X014742Y008315D02*
X014832Y008405D01*
X014832Y008520D02*
X014652Y008700D01*
X014607Y008700D01*
X014562Y008655D01*
X014562Y008565D01*
X014607Y008520D01*
X014832Y008520D02*
X014832Y008700D01*
X014787Y008814D02*
X014832Y008859D01*
X014832Y008949D01*
X014787Y008994D01*
X014742Y008994D01*
X014697Y008949D01*
X014697Y008904D01*
X014697Y008949D02*
X014652Y008994D01*
X014607Y008994D01*
X014562Y008949D01*
X014562Y008859D01*
X014607Y008814D01*
X014562Y008225D02*
X014832Y008225D01*
X017048Y009150D02*
X017093Y009105D01*
X017183Y009105D01*
X017229Y009150D01*
X017343Y009105D02*
X017523Y009105D01*
X017433Y009105D02*
X017433Y009375D01*
X017343Y009285D01*
X017229Y009330D02*
X017183Y009375D01*
X017093Y009375D01*
X017048Y009330D01*
X017048Y009150D01*
X017638Y009150D02*
X017818Y009330D01*
X017818Y009150D01*
X017773Y009105D01*
X017683Y009105D01*
X017638Y009150D01*
X017638Y009330D01*
X017683Y009375D01*
X017773Y009375D01*
X017818Y009330D01*
D13*
X016657Y007250D02*
X016057Y007250D01*
X016040Y007248D01*
X016023Y007244D01*
X016007Y007237D01*
X015993Y007227D01*
X015980Y007214D01*
X015970Y007200D01*
X015963Y007184D01*
X015959Y007167D01*
X015957Y007150D01*
X015957Y006500D01*
X015957Y006250D02*
X015957Y006150D01*
X015959Y006133D01*
X015963Y006116D01*
X015970Y006100D01*
X015980Y006086D01*
X015993Y006073D01*
X016007Y006063D01*
X016023Y006056D01*
X016040Y006052D01*
X016057Y006050D01*
X016657Y006050D01*
X016674Y006052D01*
X016691Y006056D01*
X016707Y006063D01*
X016721Y006073D01*
X016734Y006086D01*
X016744Y006100D01*
X016751Y006116D01*
X016755Y006133D01*
X016757Y006150D01*
X016757Y006250D01*
X016757Y006500D02*
X016757Y007150D01*
X016755Y007167D01*
X016751Y007184D01*
X016744Y007200D01*
X016734Y007214D01*
X016721Y007227D01*
X016707Y007237D01*
X016691Y007244D01*
X016674Y007248D01*
X016657Y007250D01*
X014051Y008335D02*
X014051Y008965D01*
X014046Y008981D01*
X014038Y008997D01*
X014028Y009011D01*
X014016Y009023D01*
X014001Y009033D01*
X013985Y009040D01*
X013968Y009044D01*
X013951Y009045D01*
X013933Y009043D01*
X013382Y009043D02*
X013362Y009045D01*
X013343Y009043D01*
X013324Y009037D01*
X013307Y009028D01*
X013291Y009016D01*
X013279Y009001D01*
X013270Y008983D01*
X013264Y008965D01*
X013264Y008335D01*
X013251Y008335D02*
X013251Y008965D01*
X013246Y008981D01*
X013238Y008997D01*
X013228Y009011D01*
X013216Y009023D01*
X013201Y009033D01*
X013185Y009040D01*
X013168Y009044D01*
X013151Y009045D01*
X013133Y009043D01*
X012582Y009043D02*
X012562Y009045D01*
X012543Y009043D01*
X012524Y009037D01*
X012507Y009028D01*
X012491Y009016D01*
X012479Y009001D01*
X012470Y008983D01*
X012464Y008965D01*
X012464Y008335D01*
X012451Y008335D02*
X012451Y008965D01*
X012446Y008981D01*
X012438Y008997D01*
X012428Y009011D01*
X012416Y009023D01*
X012401Y009033D01*
X012385Y009040D01*
X012368Y009044D01*
X012351Y009045D01*
X012333Y009043D01*
X011782Y009043D02*
X011762Y009045D01*
X011743Y009043D01*
X011724Y009037D01*
X011707Y009028D01*
X011691Y009016D01*
X011679Y009001D01*
X011670Y008983D01*
X011664Y008965D01*
X011664Y008335D01*
X011651Y008335D02*
X011651Y008965D01*
X011646Y008981D01*
X011638Y008997D01*
X011628Y009011D01*
X011616Y009023D01*
X011601Y009033D01*
X011585Y009040D01*
X011568Y009044D01*
X011551Y009045D01*
X011533Y009043D01*
X010982Y009043D02*
X010962Y009045D01*
X010943Y009043D01*
X010924Y009037D01*
X010907Y009028D01*
X010891Y009016D01*
X010879Y009001D01*
X010870Y008983D01*
X010864Y008965D01*
X010864Y008335D01*
X010851Y008335D02*
X010851Y008965D01*
X010846Y008981D01*
X010838Y008997D01*
X010828Y009011D01*
X010816Y009023D01*
X010801Y009033D01*
X010785Y009040D01*
X010768Y009044D01*
X010751Y009045D01*
X010733Y009043D01*
X010182Y009043D02*
X010162Y009045D01*
X010143Y009043D01*
X010124Y009037D01*
X010107Y009028D01*
X010091Y009016D01*
X010079Y009001D01*
X010070Y008983D01*
X010064Y008965D01*
X010064Y008335D01*
X010070Y008317D01*
X010079Y008299D01*
X010091Y008284D01*
X010107Y008272D01*
X010124Y008263D01*
X010143Y008257D01*
X010162Y008255D01*
X010182Y008257D01*
X010733Y008257D02*
X010751Y008255D01*
X010768Y008256D01*
X010785Y008260D01*
X010801Y008267D01*
X010816Y008277D01*
X010828Y008289D01*
X010838Y008303D01*
X010846Y008319D01*
X010851Y008335D01*
X010864Y008335D02*
X010870Y008317D01*
X010879Y008299D01*
X010891Y008284D01*
X010907Y008272D01*
X010924Y008263D01*
X010943Y008257D01*
X010962Y008255D01*
X010982Y008257D01*
X011533Y008257D02*
X011551Y008255D01*
X011568Y008256D01*
X011585Y008260D01*
X011601Y008267D01*
X011616Y008277D01*
X011628Y008289D01*
X011638Y008303D01*
X011646Y008319D01*
X011651Y008335D01*
X011664Y008335D02*
X011670Y008317D01*
X011679Y008299D01*
X011691Y008284D01*
X011707Y008272D01*
X011724Y008263D01*
X011743Y008257D01*
X011762Y008255D01*
X011782Y008257D01*
X012333Y008257D02*
X012351Y008255D01*
X012368Y008256D01*
X012385Y008260D01*
X012401Y008267D01*
X012416Y008277D01*
X012428Y008289D01*
X012438Y008303D01*
X012446Y008319D01*
X012451Y008335D01*
X012464Y008335D02*
X012470Y008317D01*
X012479Y008299D01*
X012491Y008284D01*
X012507Y008272D01*
X012524Y008263D01*
X012543Y008257D01*
X012562Y008255D01*
X012582Y008257D01*
X013133Y008257D02*
X013151Y008255D01*
X013168Y008256D01*
X013185Y008260D01*
X013201Y008267D01*
X013216Y008277D01*
X013228Y008289D01*
X013238Y008303D01*
X013246Y008319D01*
X013251Y008335D01*
X013264Y008335D02*
X013270Y008317D01*
X013279Y008299D01*
X013291Y008284D01*
X013307Y008272D01*
X013324Y008263D01*
X013343Y008257D01*
X013362Y008255D01*
X013382Y008257D01*
X013933Y008257D02*
X013951Y008255D01*
X013968Y008256D01*
X013985Y008260D01*
X014001Y008267D01*
X014016Y008277D01*
X014028Y008289D01*
X014038Y008303D01*
X014046Y008319D01*
X014051Y008335D01*
X008557Y005250D02*
X008557Y005150D01*
X008557Y005250D02*
X008555Y005267D01*
X008551Y005284D01*
X008544Y005300D01*
X008534Y005314D01*
X008521Y005327D01*
X008507Y005337D01*
X008491Y005344D01*
X008474Y005348D01*
X008457Y005350D01*
X007857Y005350D01*
X007840Y005348D01*
X007823Y005344D01*
X007807Y005337D01*
X007793Y005327D01*
X007780Y005314D01*
X007770Y005300D01*
X007763Y005284D01*
X007759Y005267D01*
X007757Y005250D01*
X007757Y005150D01*
X007626Y005450D02*
X007288Y005450D01*
X007736Y005844D02*
X007736Y006056D01*
X007626Y006450D02*
X007288Y006450D01*
X006906Y007511D02*
X006906Y007826D01*
X007142Y007826D01*
X007772Y007826D02*
X008009Y007826D01*
X008009Y007511D01*
X007757Y004900D02*
X007757Y004250D01*
X007759Y004233D01*
X007763Y004216D01*
X007770Y004200D01*
X007780Y004186D01*
X007793Y004173D01*
X007807Y004163D01*
X007823Y004156D01*
X007840Y004152D01*
X007857Y004150D01*
X008457Y004150D01*
X007857Y004150D01*
X007840Y004148D01*
X007823Y004144D01*
X007807Y004137D01*
X007793Y004127D01*
X007780Y004114D01*
X007770Y004100D01*
X007763Y004084D01*
X007759Y004067D01*
X007757Y004050D01*
X007757Y003950D01*
X007757Y003700D02*
X007757Y003050D01*
X007759Y003033D01*
X007763Y003016D01*
X007770Y003000D01*
X007780Y002986D01*
X007793Y002973D01*
X007807Y002963D01*
X007823Y002956D01*
X007840Y002952D01*
X007857Y002950D01*
X008457Y002950D01*
X007857Y002950D01*
X007840Y002948D01*
X007823Y002944D01*
X007807Y002937D01*
X007793Y002927D01*
X007780Y002914D01*
X007770Y002900D01*
X007763Y002884D01*
X007759Y002867D01*
X007757Y002850D01*
X007757Y002750D01*
X007757Y002500D02*
X007757Y001850D01*
X007759Y001833D01*
X007763Y001816D01*
X007770Y001800D01*
X007780Y001786D01*
X007793Y001773D01*
X007807Y001763D01*
X007823Y001756D01*
X007840Y001752D01*
X007857Y001750D01*
X008457Y001750D01*
X008474Y001752D01*
X008491Y001756D01*
X008507Y001763D01*
X008521Y001773D01*
X008534Y001786D01*
X008544Y001800D01*
X008551Y001816D01*
X008555Y001833D01*
X008557Y001850D01*
X008557Y002500D01*
X008557Y002750D02*
X008557Y002850D01*
X008555Y002867D01*
X008551Y002884D01*
X008544Y002900D01*
X008534Y002914D01*
X008521Y002927D01*
X008507Y002937D01*
X008491Y002944D01*
X008474Y002948D01*
X008457Y002950D01*
X008474Y002952D01*
X008491Y002956D01*
X008507Y002963D01*
X008521Y002973D01*
X008534Y002986D01*
X008544Y003000D01*
X008551Y003016D01*
X008555Y003033D01*
X008557Y003050D01*
X008557Y003700D01*
X008557Y003950D02*
X008557Y004050D01*
X008555Y004067D01*
X008551Y004084D01*
X008544Y004100D01*
X008534Y004114D01*
X008521Y004127D01*
X008507Y004137D01*
X008491Y004144D01*
X008474Y004148D01*
X008457Y004150D01*
X008474Y004152D01*
X008491Y004156D01*
X008507Y004163D01*
X008521Y004173D01*
X008534Y004186D01*
X008544Y004200D01*
X008551Y004216D01*
X008555Y004233D01*
X008557Y004250D01*
X008557Y004900D01*
X006565Y002565D02*
X006567Y002580D01*
X006573Y002593D01*
X006582Y002605D01*
X006593Y002614D01*
X006607Y002620D01*
X006622Y002622D01*
X006637Y002620D01*
X006650Y002614D01*
X006662Y002605D01*
X006671Y002594D01*
X006677Y002580D01*
X006679Y002565D01*
X006677Y002550D01*
X006671Y002537D01*
X006662Y002525D01*
X006651Y002516D01*
X006637Y002510D01*
X006622Y002508D01*
X006607Y002510D01*
X006594Y002516D01*
X006582Y002525D01*
X006573Y002536D01*
X006567Y002550D01*
X006565Y002565D01*
X006357Y001650D02*
X006357Y001350D01*
X006157Y001350D02*
X006157Y001650D01*
X006151Y001665D02*
X006146Y001681D01*
X006138Y001697D01*
X006128Y001711D01*
X006116Y001723D01*
X006101Y001733D01*
X006085Y001740D01*
X006068Y001744D01*
X006051Y001745D01*
X006033Y001743D01*
X006364Y001665D02*
X006369Y001681D01*
X006377Y001697D01*
X006387Y001711D01*
X006399Y001723D01*
X006414Y001733D01*
X006430Y001740D01*
X006447Y001744D01*
X006464Y001745D01*
X006482Y001743D01*
X007033Y001743D02*
X007051Y001745D01*
X007068Y001744D01*
X007085Y001740D01*
X007101Y001733D01*
X007116Y001723D01*
X007128Y001711D01*
X007138Y001697D01*
X007146Y001681D01*
X007151Y001665D01*
X007157Y001650D02*
X007157Y001350D01*
X007357Y001350D02*
X007357Y001650D01*
X007364Y001665D02*
X007369Y001681D01*
X007377Y001697D01*
X007387Y001711D01*
X007399Y001723D01*
X007414Y001733D01*
X007430Y001740D01*
X007447Y001744D01*
X007464Y001745D01*
X007482Y001743D01*
X008033Y001743D02*
X008051Y001745D01*
X008068Y001744D01*
X008085Y001740D01*
X008101Y001733D01*
X008116Y001723D01*
X008128Y001711D01*
X008138Y001697D01*
X008146Y001681D01*
X008151Y001665D01*
X008157Y001650D02*
X008157Y001350D01*
X008157Y001100D02*
X008157Y001050D01*
X008151Y001035D02*
X008146Y001019D01*
X008138Y001003D01*
X008128Y000989D01*
X008116Y000977D01*
X008101Y000967D01*
X008085Y000960D01*
X008068Y000956D01*
X008051Y000955D01*
X008033Y000957D01*
X007482Y000957D02*
X007464Y000955D01*
X007447Y000956D01*
X007430Y000960D01*
X007414Y000967D01*
X007399Y000977D01*
X007387Y000989D01*
X007377Y001003D01*
X007369Y001019D01*
X007364Y001035D01*
X007357Y001050D02*
X007357Y001100D01*
X007157Y001100D02*
X007157Y001050D01*
X007151Y001035D02*
X007146Y001019D01*
X007138Y001003D01*
X007128Y000989D01*
X007116Y000977D01*
X007101Y000967D01*
X007085Y000960D01*
X007068Y000956D01*
X007051Y000955D01*
X007033Y000957D01*
X006482Y000957D02*
X006464Y000955D01*
X006447Y000956D01*
X006430Y000960D01*
X006414Y000967D01*
X006399Y000977D01*
X006387Y000989D01*
X006377Y001003D01*
X006369Y001019D01*
X006364Y001035D01*
X006357Y001050D02*
X006357Y001100D01*
X006157Y001100D02*
X006157Y001050D01*
X006151Y001035D02*
X006146Y001019D01*
X006138Y001003D01*
X006128Y000989D01*
X006116Y000977D01*
X006101Y000967D01*
X006085Y000960D01*
X006068Y000956D01*
X006051Y000955D01*
X006033Y000957D01*
X005482Y000957D02*
X005464Y000955D01*
X005447Y000956D01*
X005430Y000960D01*
X005414Y000967D01*
X005399Y000977D01*
X005387Y000989D01*
X005377Y001003D01*
X005369Y001019D01*
X005364Y001035D01*
X005357Y001050D02*
X005357Y001100D01*
X005357Y001350D02*
X005357Y001650D01*
X005364Y001665D02*
X005369Y001681D01*
X005377Y001697D01*
X005387Y001711D01*
X005399Y001723D01*
X005414Y001733D01*
X005430Y001740D01*
X005447Y001744D01*
X005464Y001745D01*
X005482Y001743D01*
X003096Y002427D02*
X000455Y002427D01*
X000455Y007939D01*
X003096Y007939D01*
X003096Y002427D01*
X002807Y003250D02*
X002307Y003250D01*
X002057Y003500D01*
X002057Y004000D01*
X002307Y004250D01*
X002057Y004500D01*
X002057Y005000D01*
X002307Y005250D01*
X002057Y005500D01*
X002057Y006000D01*
X002307Y006250D01*
X002057Y006500D01*
X002057Y007000D01*
X002307Y007250D01*
X002807Y007250D01*
X003057Y007000D01*
X003057Y006500D01*
X002807Y006250D01*
X003057Y006000D01*
X003057Y005500D01*
X002807Y005250D01*
X003057Y005000D01*
X003057Y004500D01*
X002807Y004250D01*
X003057Y004000D01*
X003057Y003500D01*
X002807Y003250D01*
X000455Y002427D02*
X000140Y002427D01*
X000140Y007939D01*
X000455Y007939D01*
X001624Y008569D02*
X001624Y008750D01*
X001502Y008658D01*
X001624Y008750D02*
X001624Y008931D01*
X001502Y008836D02*
X001618Y008760D01*
X001624Y009269D02*
X001624Y009450D01*
X001502Y009358D01*
X001624Y009450D02*
X001624Y009631D01*
X001502Y009536D02*
X001618Y009460D01*
X009721Y002302D02*
X009721Y001790D01*
X011197Y001790D02*
X011197Y002302D01*
X014857Y002150D02*
X014857Y002100D01*
X014864Y002165D02*
X014869Y002181D01*
X014877Y002197D01*
X014887Y002211D01*
X014899Y002223D01*
X014914Y002233D01*
X014930Y002240D01*
X014947Y002244D01*
X014964Y002245D01*
X014982Y002243D01*
X015533Y002243D02*
X015551Y002245D01*
X015568Y002244D01*
X015585Y002240D01*
X015601Y002233D01*
X015616Y002223D01*
X015628Y002211D01*
X015638Y002197D01*
X015646Y002181D01*
X015651Y002165D01*
X015657Y002150D02*
X015657Y002100D01*
X015657Y001850D02*
X015657Y001550D01*
X015651Y001535D02*
X015646Y001519D01*
X015638Y001503D01*
X015628Y001489D01*
X015616Y001477D01*
X015601Y001467D01*
X015585Y001460D01*
X015568Y001456D01*
X015551Y001455D01*
X015533Y001457D01*
X014982Y001457D02*
X014964Y001455D01*
X014947Y001456D01*
X014930Y001460D01*
X014914Y001467D01*
X014899Y001477D01*
X014887Y001489D01*
X014877Y001503D01*
X014869Y001519D01*
X014864Y001535D01*
X014857Y001550D02*
X014857Y001850D01*
X001624Y001731D02*
X001624Y001550D01*
X001502Y001458D01*
X001624Y001369D02*
X001624Y001550D01*
X001618Y001560D02*
X001502Y001636D01*
X001624Y001031D02*
X001624Y000850D01*
X001502Y000758D01*
X001624Y000669D02*
X001624Y000850D01*
X001618Y000860D02*
X001502Y000936D01*
D14*
X001482Y000545D02*
X001348Y000545D01*
X001348Y000345D01*
X001482Y000345D01*
X001569Y000345D02*
X001669Y000345D01*
X001703Y000378D01*
X001703Y000512D01*
X001669Y000545D01*
X001569Y000545D01*
X001569Y000345D01*
X001415Y000445D02*
X001348Y000445D01*
X001261Y000345D02*
X001127Y000345D01*
X001127Y000545D01*
X001790Y000312D02*
X001924Y000312D01*
X002078Y000345D02*
X002078Y000445D01*
X002145Y000512D01*
X002145Y000545D01*
X002078Y000445D02*
X002011Y000512D01*
X002011Y000545D01*
X001924Y001812D02*
X001790Y001812D01*
X001703Y001878D02*
X001669Y001845D01*
X001569Y001845D01*
X001569Y002045D01*
X001669Y002045D01*
X001703Y002012D01*
X001703Y001878D01*
X001482Y001845D02*
X001348Y001845D01*
X001348Y002045D01*
X001482Y002045D01*
X001415Y001945D02*
X001348Y001945D01*
X001261Y001845D02*
X001127Y001845D01*
X001127Y002045D01*
X002011Y002045D02*
X002011Y001845D01*
X002111Y001845D01*
X002145Y001878D01*
X002145Y001912D01*
X002111Y001945D01*
X002011Y001945D01*
X002011Y002045D02*
X002111Y002045D01*
X002145Y002012D01*
X002145Y001978D01*
X002111Y001945D01*
X002077Y002170D02*
X002077Y002370D01*
X002177Y002370D01*
X002211Y002337D01*
X002211Y002270D01*
X002177Y002237D01*
X002077Y002237D01*
X002144Y002237D02*
X002211Y002170D01*
X002298Y002203D02*
X002332Y002170D01*
X002398Y002170D01*
X002432Y002203D01*
X002432Y002237D01*
X002398Y002270D01*
X002332Y002270D01*
X002298Y002303D01*
X002298Y002337D01*
X002332Y002370D01*
X002398Y002370D01*
X002432Y002337D01*
X002519Y002270D02*
X002653Y002270D01*
X002740Y002237D02*
X002774Y002270D01*
X002840Y002270D01*
X002874Y002237D01*
X002874Y002203D01*
X002840Y002170D01*
X002774Y002170D01*
X002740Y002203D01*
X002740Y002237D01*
X002774Y002270D02*
X002740Y002303D01*
X002740Y002337D01*
X002774Y002370D01*
X002840Y002370D01*
X002874Y002337D01*
X002874Y002303D01*
X002840Y002270D01*
X002961Y002270D02*
X002961Y002370D01*
X003095Y002370D01*
X003061Y002303D02*
X003095Y002270D01*
X003095Y002203D01*
X003061Y002170D01*
X002995Y002170D01*
X002961Y002203D01*
X002961Y002270D02*
X003028Y002303D01*
X003061Y002303D01*
X002619Y002370D02*
X002619Y002170D01*
X002519Y002270D02*
X002619Y002370D01*
X005037Y001504D02*
X005104Y001437D01*
X005037Y001504D02*
X005237Y001504D01*
X005237Y001570D02*
X005237Y001437D01*
X005237Y001349D02*
X005237Y001216D01*
X005237Y001283D02*
X005037Y001283D01*
X005104Y001216D01*
X005037Y001128D02*
X005037Y001062D01*
X005037Y001095D02*
X005204Y001095D01*
X005237Y001062D01*
X005237Y001028D01*
X005204Y000995D01*
X008237Y001062D02*
X008237Y001128D01*
X008237Y001095D02*
X008404Y001095D01*
X008437Y001062D01*
X008437Y001028D01*
X008404Y000995D01*
X008437Y001216D02*
X008437Y001349D01*
X008437Y001283D02*
X008237Y001283D01*
X008304Y001216D01*
X008271Y001437D02*
X008237Y001470D01*
X008237Y001537D01*
X008271Y001570D01*
X008304Y001570D01*
X008337Y001537D01*
X008371Y001570D01*
X008404Y001570D01*
X008437Y001537D01*
X008437Y001470D01*
X008404Y001437D01*
X008337Y001504D02*
X008337Y001537D01*
X008844Y002428D02*
X008877Y002461D01*
X008877Y002495D01*
X008844Y002528D01*
X008677Y002528D01*
X008677Y002495D02*
X008677Y002561D01*
X008711Y002649D02*
X008677Y002682D01*
X008677Y002749D01*
X008711Y002782D01*
X008744Y002782D01*
X008777Y002749D01*
X008811Y002782D01*
X008844Y002782D01*
X008877Y002749D01*
X008877Y002682D01*
X008844Y002649D01*
X008777Y002716D02*
X008777Y002749D01*
X008844Y003628D02*
X008877Y003661D01*
X008877Y003695D01*
X008844Y003728D01*
X008677Y003728D01*
X008677Y003695D02*
X008677Y003761D01*
X008777Y003849D02*
X008777Y003982D01*
X008677Y003949D02*
X008777Y003849D01*
X008877Y003949D02*
X008677Y003949D01*
X008844Y004828D02*
X008877Y004861D01*
X008877Y004895D01*
X008844Y004928D01*
X008677Y004928D01*
X008677Y004895D02*
X008677Y004961D01*
X008677Y005049D02*
X008777Y005049D01*
X008744Y005116D01*
X008744Y005149D01*
X008777Y005182D01*
X008844Y005182D01*
X008877Y005149D01*
X008877Y005082D01*
X008844Y005049D01*
X008677Y005049D02*
X008677Y005182D01*
X010253Y007970D02*
X010287Y007970D01*
X010320Y008003D01*
X010320Y008170D01*
X010287Y008170D02*
X010353Y008170D01*
X010441Y008070D02*
X010541Y008070D01*
X010574Y008037D01*
X010574Y008003D01*
X010541Y007970D01*
X010474Y007970D01*
X010441Y008003D01*
X010441Y008070D01*
X010508Y008137D01*
X010574Y008170D01*
X010253Y007970D02*
X010220Y008003D01*
X011120Y008003D02*
X011153Y007970D01*
X011187Y007970D01*
X011220Y008003D01*
X011220Y008170D01*
X011187Y008170D02*
X011253Y008170D01*
X011341Y008137D02*
X011374Y008170D01*
X011441Y008170D01*
X011474Y008137D01*
X011474Y008103D01*
X011441Y008070D01*
X011374Y008070D01*
X011341Y008103D01*
X011341Y008137D01*
X011374Y008070D02*
X011341Y008037D01*
X011341Y008003D01*
X011374Y007970D01*
X011441Y007970D01*
X011474Y008003D01*
X011474Y008037D01*
X011441Y008070D01*
X011720Y008003D02*
X011753Y007970D01*
X011787Y007970D01*
X011820Y008003D01*
X011820Y008170D01*
X011787Y008170D02*
X011853Y008170D01*
X011941Y008103D02*
X012008Y008170D01*
X012008Y007970D01*
X012074Y007970D02*
X011941Y007970D01*
X012162Y008003D02*
X012295Y008137D01*
X012262Y008170D01*
X012195Y008170D01*
X012162Y008137D01*
X012162Y008003D01*
X012195Y007970D01*
X012262Y007970D01*
X012295Y008003D01*
X012295Y008137D01*
X012720Y008003D02*
X012753Y007970D01*
X012787Y007970D01*
X012820Y008003D01*
X012820Y008170D01*
X012787Y008170D02*
X012853Y008170D01*
X012941Y008137D02*
X012941Y008103D01*
X012974Y008070D01*
X013074Y008070D01*
X013074Y008003D02*
X013074Y008137D01*
X013041Y008170D01*
X012974Y008170D01*
X012941Y008137D01*
X012941Y008003D02*
X012974Y007970D01*
X013041Y007970D01*
X013074Y008003D01*
X013720Y008003D02*
X013753Y007970D01*
X013787Y007970D01*
X013820Y008003D01*
X013820Y008170D01*
X013787Y008170D02*
X013853Y008170D01*
X013941Y008170D02*
X014074Y008170D01*
X014074Y008137D01*
X013941Y008003D01*
X013941Y007970D01*
X002145Y008278D02*
X002145Y008345D01*
X002078Y008345D01*
X002145Y008278D02*
X002111Y008245D01*
X002045Y008245D01*
X002011Y008278D01*
X002011Y008412D01*
X002045Y008445D01*
X002111Y008445D01*
X002145Y008412D01*
X001924Y008212D02*
X001790Y008212D01*
X001703Y008278D02*
X001703Y008412D01*
X001669Y008445D01*
X001569Y008445D01*
X001569Y008245D01*
X001669Y008245D01*
X001703Y008278D01*
X001482Y008245D02*
X001348Y008245D01*
X001348Y008445D01*
X001482Y008445D01*
X001415Y008345D02*
X001348Y008345D01*
X001261Y008245D02*
X001127Y008245D01*
X001127Y008445D01*
X001127Y009745D02*
X001261Y009745D01*
X001348Y009745D02*
X001482Y009745D01*
X001569Y009745D02*
X001669Y009745D01*
X001703Y009778D01*
X001703Y009912D01*
X001669Y009945D01*
X001569Y009945D01*
X001569Y009745D01*
X001415Y009845D02*
X001348Y009845D01*
X001348Y009945D02*
X001348Y009745D01*
X001127Y009745D02*
X001127Y009945D01*
X001348Y009945D02*
X001482Y009945D01*
X001790Y009712D02*
X001924Y009712D01*
X002011Y009745D02*
X002011Y009945D01*
X002111Y009945D01*
X002145Y009912D01*
X002145Y009845D01*
X002111Y009812D01*
X002011Y009812D01*
X002078Y009812D02*
X002145Y009745D01*
D15*
X002857Y009450D03*
X002857Y008750D03*
X003757Y005050D03*
X003657Y004450D03*
X003657Y003050D03*
X003657Y002450D03*
X002957Y001550D03*
X002957Y000850D03*
X006157Y002150D03*
X016557Y003350D03*
X016557Y003850D03*
X016557Y004450D03*
D16*
X000757Y000350D02*
X000757Y009950D01*
X000957Y010150D01*
X018057Y010150D01*
X018257Y009950D01*
X018257Y000350D01*
X018057Y000150D01*
X000957Y000150D01*
X000757Y000350D01*
D17*
X003457Y003750D03*
X006357Y005650D03*
X003457Y007550D03*
X005957Y007950D03*
X006557Y007950D03*
X014357Y008750D03*
X015157Y008650D03*
D18*
X007057Y006580D03*
M02*
